<svg width="1280" height="1190" viewBox="0 0 1280 1190" fill="none" xmlns="http://www.w3.org/2000/svg">
<mask id="mask0_90_3" style="mask-type:luminance" maskUnits="userSpaceOnUse" x="325" y="174" width="1224" height="686">
<path d="M325.611 860H1548.38V174.437H325.611V860Z" fill="white"/>
</mask>
<g mask="url(#mask0_90_3)">
<path fill-rule="evenodd" clip-rule="evenodd" d="M910.662 792.623L675.404 320.803L424.508 797.924L910.662 792.623Z" fill="#4DB6A4"/>
</g>
<mask id="mask1_90_3" style="mask-type:luminance" maskUnits="userSpaceOnUse" x="425" y="315" width="487" height="483">
<path fill-rule="evenodd" clip-rule="evenodd" d="M911.216 792.533L676.198 315.851L425.558 797.888L911.216 792.533Z" fill="white"/>
</mask>
<g mask="url(#mask1_90_3)">
<path fill-rule="evenodd" clip-rule="evenodd" d="M757.749 285.352L676.198 315.851L687.579 872.747L911.216 813.593L757.749 285.352Z" fill="#42998D"/>
<path fill-rule="evenodd" clip-rule="evenodd" d="M803.044 540.232L783.183 532.847C783.183 532.847 762.592 515.388 748.175 503.166C746.073 501.384 742.934 500.953 740.318 502.088C737.704 503.224 736.171 505.682 736.486 508.242C738.299 523.062 740.984 544.999 743.121 562.476C743.472 565.339 741.518 568.029 738.426 568.942C735.334 569.854 731.943 568.741 730.276 566.268C722.794 555.17 714.216 542.446 707.98 533.195C706.536 531.053 703.768 529.9 700.98 530.275C698.192 530.651 695.94 532.481 695.284 534.904C694.082 539.345 692.713 544.408 691.328 549.521C690.551 552.39 687.572 554.361 684.236 554.212C680.902 554.063 678.163 551.835 677.719 548.913C675.425 533.841 672.802 516.584 670.92 504.218C670.532 501.667 668.381 499.603 665.535 499.052C662.69 498.502 659.758 499.582 658.198 501.755C649.614 513.715 637.394 530.74 628.814 542.693C627.256 544.868 624.325 545.946 621.481 545.398C618.635 544.848 616.482 542.786 616.092 540.237C614.489 529.768 612.456 516.506 611.018 507.107C610.67 504.831 608.909 502.92 606.458 502.154C604.008 501.391 601.277 501.901 599.389 503.478C579.313 520.241 535.442 556.871 535.442 556.871L674.96 294.404L803.044 540.232Z" fill="#B5E4DD"/>
</g>
<mask id="mask2_90_3" style="mask-type:luminance" maskUnits="userSpaceOnUse" x="424" y="318" width="487" height="478">
<path fill-rule="evenodd" clip-rule="evenodd" d="M910.304 790.131L675.046 318.31L424.15 795.431L910.304 790.131Z" fill="white"/>
</mask>
<g mask="url(#mask2_90_3)">
<mask id="mask3_90_3" style="mask-type:luminance" maskUnits="userSpaceOnUse" x="534" y="297" width="269" height="273">
<path fill-rule="evenodd" clip-rule="evenodd" d="M802.021 540.403L782.141 533.094C782.141 533.094 761.528 515.813 747.096 503.716C744.992 501.951 741.85 501.525 739.232 502.648C736.615 503.773 735.082 506.206 735.395 508.739C737.21 523.409 739.898 545.122 742.038 562.421C742.389 565.254 740.433 567.917 737.338 568.82C734.243 569.724 730.847 568.622 729.179 566.174C721.69 555.189 713.103 542.595 706.86 533.438C705.415 531.318 702.645 530.177 699.854 530.547C697.063 530.92 694.808 532.731 694.151 535.13C692.948 539.526 691.576 544.536 690.191 549.598C689.414 552.437 686.43 554.389 683.093 554.241C679.755 554.093 677.013 551.888 676.568 548.994C674.273 534.077 671.647 516.996 669.763 504.757C669.374 502.232 667.221 500.189 664.372 499.643C661.525 499.099 658.589 500.168 657.027 502.319C648.435 514.157 636.203 531.008 627.614 542.839C626.054 544.99 623.121 546.061 620.273 545.517C617.424 544.972 615.269 542.931 614.879 540.408C613.274 530.046 611.24 516.919 609.8 507.616C609.451 505.363 607.688 503.471 605.235 502.714C602.782 501.956 600.049 502.463 598.159 504.024C578.063 520.615 534.146 556.871 534.146 556.871L673.807 297.083L802.021 540.403Z" fill="white"/>
</mask>
<g mask="url(#mask3_90_3)">
<path fill-rule="evenodd" clip-rule="evenodd" d="M756.68 288.122L675.046 318.31L686.439 869.528L910.304 810.977L756.68 288.122Z" fill="#9ADCD2"/>
</g>
</g>
<mask id="mask4_90_3" style="mask-type:luminance" maskUnits="userSpaceOnUse" x="-6" y="0" width="1263" height="798">
<path d="M-5.13156 797.138H1256.06V0.642944H-5.13156V797.138Z" fill="white"/>
</mask>
<g mask="url(#mask4_90_3)">
<path fill-rule="evenodd" clip-rule="evenodd" d="M598.304 718.859L355.654 170.692L96.8736 725.018L598.304 718.859Z" fill="#4DB6A4"/>
</g>
<mask id="mask5_90_3" style="mask-type:luminance" maskUnits="userSpaceOnUse" x="97" y="164" width="502" height="561">
<path fill-rule="evenodd" clip-rule="evenodd" d="M598.875 718.754L356.473 164.939L97.9561 724.976L598.875 718.754Z" fill="white"/>
</mask>
<g mask="url(#mask5_90_3)">
<path fill-rule="evenodd" clip-rule="evenodd" d="M440.586 129.505L356.473 164.939L368.212 811.948L598.875 743.222L440.586 129.505Z" fill="#42998D"/>
<path fill-rule="evenodd" clip-rule="evenodd" d="M487.304 425.628L466.82 417.048C466.82 417.048 445.581 396.764 430.711 382.565C428.543 380.494 425.306 379.993 422.608 381.312C419.912 382.632 418.33 385.488 418.655 388.461C420.525 405.68 423.294 431.166 425.499 451.472C425.861 454.797 423.846 457.923 420.656 458.983C417.467 460.044 413.969 458.75 412.25 455.877C404.533 442.983 395.685 428.201 389.253 417.452C387.764 414.964 384.909 413.624 382.034 414.059C379.158 414.496 376.835 416.623 376.158 419.438C374.919 424.598 373.507 430.479 372.078 436.42C371.277 439.753 368.204 442.044 364.763 441.87C361.325 441.697 358.499 439.109 358.041 435.714C355.676 418.203 352.97 398.153 351.029 383.787C350.628 380.823 348.41 378.425 345.474 377.784C342.54 377.145 339.516 378.4 337.907 380.925C329.053 394.82 316.45 414.6 307.6 428.487C305.993 431.014 302.97 432.267 300.036 431.63C297.1 430.991 294.88 428.595 294.478 425.633C292.824 413.47 290.728 398.063 289.245 387.143C288.885 384.499 287.069 382.278 284.541 381.389C282.014 380.502 279.198 381.094 277.25 382.926C256.544 402.402 211.293 444.959 211.293 444.959L355.196 140.022L487.304 425.628Z" fill="#B5E4DD"/>
</g>
<mask id="mask6_90_3" style="mask-type:luminance" maskUnits="userSpaceOnUse" x="96" y="167" width="502" height="556">
<path fill-rule="evenodd" clip-rule="evenodd" d="M597.934 715.964L355.284 167.797L96.5043 722.122L597.934 715.964Z" fill="white"/>
</mask>
<g mask="url(#mask6_90_3)">
<mask id="mask7_90_3" style="mask-type:luminance" maskUnits="userSpaceOnUse" x="209" y="143" width="278" height="317">
<path fill-rule="evenodd" clip-rule="evenodd" d="M486.249 425.827L465.744 417.335C465.744 417.335 444.484 397.257 429.599 383.203C427.428 381.153 424.188 380.658 421.487 381.963C418.788 383.269 417.207 386.096 417.53 389.039C419.402 406.082 422.174 431.309 424.381 451.407C424.743 454.699 422.726 457.792 419.534 458.842C416.341 459.892 412.839 458.611 411.118 455.767C403.394 443.005 394.537 428.373 388.098 417.735C386.608 415.272 383.75 413.946 380.871 414.376C377.993 414.809 375.668 416.914 374.99 419.7C373.749 424.807 372.334 430.629 370.905 436.509C370.104 439.808 367.026 442.075 363.584 441.904C360.142 441.732 357.313 439.17 356.854 435.808C354.487 418.477 351.779 398.632 349.835 384.412C349.434 381.479 347.214 379.105 344.275 378.471C341.338 377.839 338.31 379.081 336.7 381.58C327.837 395.333 315.221 414.911 306.362 428.657C304.753 431.156 301.727 432.4 298.79 431.768C295.852 431.135 293.629 428.764 293.227 425.832C291.571 413.793 289.473 398.543 287.988 387.735C287.628 385.117 285.81 382.919 283.28 382.039C280.75 381.159 277.931 381.747 275.981 383.561C255.254 402.836 209.957 444.959 209.957 444.959L354.007 143.134L486.249 425.827Z" fill="white"/>
</mask>
<g mask="url(#mask7_90_3)">
<path fill-rule="evenodd" clip-rule="evenodd" d="M439.483 132.724L355.284 167.796L367.035 808.208L597.935 740.182L439.483 132.724Z" fill="#9ADCD2"/>
</g>
</g>
<mask id="mask8_90_3" style="mask-type:luminance" maskUnits="userSpaceOnUse" x="-183" y="149" width="800" height="514">
<path d="M-182.18 662.918H616.423V149.292H-182.18V662.918Z" fill="white"/>
</mask>
<g mask="url(#mask8_90_3)">
<path fill-rule="evenodd" clip-rule="evenodd" d="M199.923 612.439L46.2739 258.95L-117.589 616.41L199.923 612.439Z" fill="#4DB6A4"/>
</g>
<mask id="mask9_90_3" style="mask-type:luminance" maskUnits="userSpaceOnUse" x="-117" y="255" width="318" height="362">
<path fill-rule="evenodd" clip-rule="evenodd" d="M200.285 612.371L46.7925 255.24L-116.904 616.383L200.285 612.371Z" fill="white"/>
</mask>
<g mask="url(#mask9_90_3)">
<path fill-rule="evenodd" clip-rule="evenodd" d="M100.054 232.39L46.7924 255.24L54.2258 672.468L200.285 628.15L100.054 232.39Z" fill="#42998D"/>
<path fill-rule="evenodd" clip-rule="evenodd" d="M129.637 423.347L116.666 417.814C116.666 417.814 103.217 404.734 93.8012 395.577C92.4284 394.242 90.3784 393.919 88.6701 394.769C86.963 395.621 85.9613 397.462 86.167 399.38C87.3512 410.483 89.1048 426.918 90.5009 440.012C90.7299 442.157 89.4539 444.172 87.4345 444.856C85.4151 445.54 83.1998 444.706 82.1111 442.853C77.225 434.538 71.6224 425.006 67.5494 418.075C66.6065 416.47 64.7989 415.606 62.978 415.887C61.157 416.168 59.6862 417.54 59.2576 419.355C58.4727 422.683 57.5787 426.475 56.6737 430.306C56.1667 432.456 54.2208 433.933 52.0423 433.821C49.8649 433.709 48.0758 432.04 47.7856 429.851C46.2879 418.559 44.5747 405.63 43.3452 396.365C43.0917 394.454 41.687 392.908 39.8281 392.494C37.9704 392.082 36.0551 392.892 35.0362 394.52C29.43 403.48 21.4493 416.235 15.8455 425.191C14.8278 426.82 12.9138 427.628 11.0561 427.217C9.19711 426.805 7.79128 425.26 7.53657 423.35C6.48953 415.507 5.16206 405.571 4.22279 398.53C3.99501 396.824 2.84512 395.392 1.24456 394.819C-0.355995 394.247 -2.13902 394.629 -3.3722 395.811C-16.484 408.37 -45.1372 435.813 -45.1372 435.813L45.9841 239.172L129.637 423.347Z" fill="#B5E4DD"/>
</g>
<mask id="mask10_90_3" style="mask-type:luminance" maskUnits="userSpaceOnUse" x="-118" y="257" width="318" height="358">
<path fill-rule="evenodd" clip-rule="evenodd" d="M199.689 610.572L46.0401 257.083L-117.823 614.543L199.689 610.572Z" fill="white"/>
</mask>
<g mask="url(#mask10_90_3)">
<mask id="mask11_90_3" style="mask-type:luminance" maskUnits="userSpaceOnUse" x="-46" y="241" width="175" height="204">
<path fill-rule="evenodd" clip-rule="evenodd" d="M128.969 423.475L115.985 417.999C115.985 417.999 102.522 405.052 93.0968 395.989C91.7226 394.667 89.6705 394.348 87.9604 395.189C86.2516 396.032 85.2501 397.855 85.4548 399.752C86.6402 410.743 88.3956 427.01 89.7931 439.971C90.0223 442.093 88.745 444.088 86.7236 444.765C84.7022 445.442 82.4846 444.616 81.3948 442.783C76.5036 434.552 70.8954 425.117 66.8182 418.257C65.8743 416.668 64.0649 415.813 62.2421 416.091C60.4193 416.37 58.947 417.727 58.518 419.524C57.7322 422.818 56.8361 426.572 55.9314 430.364C55.4239 432.491 53.4748 433.953 51.2953 433.842C49.1157 433.732 47.3247 432.08 47.0342 429.912C45.535 418.736 43.82 405.939 42.5893 396.769C42.3355 394.877 40.9295 393.346 39.0686 392.937C37.209 392.53 35.2918 393.33 34.2719 394.942C28.6599 403.811 20.671 416.436 15.0615 425.3C14.0429 426.912 12.1268 427.714 10.2672 427.306C8.40638 426.898 6.99912 425.369 6.74414 423.479C5.69604 415.715 4.36721 405.881 3.42698 398.911C3.19897 397.223 2.0479 395.806 0.445717 395.238C-1.15647 394.671 -2.94132 395.05 -4.17575 396.22C-17.3009 408.65 -45.9834 435.813 -45.9834 435.813L45.2309 241.179L128.969 423.475Z" fill="white"/>
</mask>
<g mask="url(#mask11_90_3)">
<path fill-rule="evenodd" clip-rule="evenodd" d="M99.3559 234.466L46.04 257.082L53.4809 670.056L199.689 626.189L99.3559 234.466Z" fill="#9ADCD2"/>
</g>
</g>
<path fill-rule="evenodd" clip-rule="evenodd" d="M-23.6786 606.511C14.6736 612.455 54.1275 605.451 88.7258 586.084C139.479 557.651 197.757 541.467 259.715 541.467C348.286 541.467 429.336 574.537 491.627 629.21C530.614 663.425 581.637 678.945 632.172 671.961C648.028 669.745 664.215 668.607 680.663 668.607C802.165 668.607 909.522 730.84 973.705 825.705H-23.6786V606.511Z" fill="#2F8779"/>
<path fill-rule="evenodd" clip-rule="evenodd" d="M-119.67 591.257C24.327 542.517 107.442 582.594 212.049 653.64C237.107 670.659 261.656 691.378 294.198 700.208C361.351 718.426 433.368 690.082 502.068 708.612C522.848 714.219 605.28 767.872 602.016 784.229C600.329 792.674 582.777 801.009 574.565 805.316C491.953 848.645 365.543 832.305 271.112 830.183C219.309 829.02 167.601 831.17 116.123 835.574C60.1138 840.363 -46.4748 862.98 -99.8177 846.273C-124.946 838.404 -145.691 822.193 -157.337 803.751C-178.304 770.552 -161.141 621.584 -119.67 591.257Z" fill="#2B7C70"/>
<path fill-rule="evenodd" clip-rule="evenodd" d="M1332.83 808.85C1278.47 818.067 1222.54 807.207 1173.5 777.179C1101.55 733.093 1018.94 708 931.112 708C805.559 708 690.667 759.274 602.367 844.045C547.1 897.095 474.774 921.16 403.138 910.331C380.661 906.895 357.716 905.13 334.4 905.13C162.166 905.13 9.98242 1001.62 -81 1148.71H1332.83V808.85Z" fill="#2F8779"/>
<path fill-rule="evenodd" clip-rule="evenodd" d="M1468.91 785.199C1264.78 709.627 1146.97 771.767 998.681 881.923C963.16 908.311 928.361 940.437 882.23 954.127C787.039 982.375 684.951 938.427 587.566 967.158C558.109 975.851 441.258 1059.04 445.886 1084.4C448.277 1097.5 473.158 1110.42 484.798 1117.1C601.905 1184.28 781.096 1158.94 914.956 1155.65C988.389 1153.85 1061.69 1157.18 1134.66 1164.01C1214.06 1171.44 1365.15 1206.51 1440.77 1180.6C1476.39 1168.4 1505.79 1143.27 1522.3 1114.67C1552.02 1063.2 1527.69 832.221 1468.91 785.199Z" fill="#2B7C70"/>
</svg>
