<svg width="294" height="307" viewBox="0 0 294 307" fill="none" xmlns="http://www.w3.org/2000/svg">
<path d="M275.156 127.764H232.94C230.338 127.764 228.209 125.792 228.209 123.381C228.209 120.972 230.338 119 232.94 119H275.156C277.758 119 279.885 120.972 279.885 123.381C279.885 125.792 277.758 127.764 275.156 127.764Z" fill="white"/>
<path d="M289.26 136H236.238C234.196 136 232.526 133.975 232.526 131.501C232.526 129.025 234.196 127 236.238 127H289.26C291.302 127 292.971 129.025 292.971 131.501C292.971 133.975 291.302 136 289.26 136Z" fill="white"/>
<path d="M277.703 119.763H241.575C238.973 119.763 236.844 117.792 236.844 115.381C236.844 112.972 238.973 111 241.575 111H277.703C280.305 111 282.432 112.972 282.432 115.381C282.432 117.792 280.305 119.763 277.703 119.763Z" fill="white"/>
<rect y="206" width="294" height="101" fill="#76A42B"/>
<path d="M41.1189 172.537L139.114 12.8099L252.236 172.537H41.1189Z" fill="#285E5E"/>
<path d="M150.717 92.673L156.951 86.5912L170.996 106.545L171.913 90.4563L207.48 138.531L211.088 131.36L225.99 172.537H252.881L139.759 12.8099L141.074 59.8466L150.717 92.673Z" fill="#388A91"/>
<path d="M140.976 57.0368L162.021 79.5742V59.9765L176.705 62.3068L139.661 10.0001L111.907 55.2373L120.588 53.1168V66.3455L140.976 57.0368Z" fill="white"/>
<path d="M120.588 53.1167V66.3455L139.661 57.6375V10.0001L111.907 55.2372L120.588 53.1167Z" fill="#C9E8E2"/>
<path d="M128.497 205.537L205.085 69.395L293.496 205.537H128.497Z" fill="#285E5E"/>
<path d="M214.154 137.466L219.026 132.282L230.003 149.289L230.72 135.576L258.517 176.552L261.337 170.44L272.984 205.537H294L205.59 69.395L206.618 109.486L214.154 137.466Z" fill="#388A91"/>
<path d="M206.541 107.091L222.989 126.301V109.597L234.465 111.583L205.513 67.0001L183.822 105.558L190.606 103.75V115.026L206.541 107.091Z" fill="white"/>
<path d="M190.606 103.75V115.026L205.513 107.603V67.0001L183.822 105.558L190.606 103.75Z" fill="#C9E8E2"/>
<path d="M0 205.537L80.8699 66.4468L174.223 205.537H0Z" fill="#285E5E"/>
<path d="M90.4456 135.992L95.5902 130.696L107.181 148.071L107.938 134.061L137.289 175.924L140.266 169.68L152.564 205.537H174.755L81.4026 66.4468L82.488 107.406L90.4456 135.992Z" fill="#388A91"/>
<path d="M82.4069 104.959L99.774 124.585V107.519L111.892 109.549L81.3215 63.9999L58.4177 103.392L65.5811 101.546V113.065L82.4069 104.959Z" fill="white"/>
<path d="M65.5811 101.546V113.065L81.3215 105.483V63.9999L58.4177 103.392L65.5811 101.546Z" fill="#C9E8E2"/>
<path d="M243.29 16.7642H201.073C198.471 16.7642 196.343 14.7922 196.343 12.3815C196.343 9.97216 198.471 8.00016 201.073 8.00016H243.29C245.892 8.00016 248.019 9.97216 248.019 12.3815C248.019 14.7922 245.892 16.7642 243.29 16.7642Z" fill="white"/>
<path d="M257.393 25H204.371C202.329 25 200.659 22.9749 200.659 20.5007C200.659 18.0251 202.329 16 204.371 16H257.393C259.435 16 261.104 18.0251 261.104 20.5007C261.104 22.9749 259.435 25 257.393 25Z" fill="white"/>
<path d="M245.836 8.7627H209.707C207.105 8.7627 204.977 6.79203 204.977 4.38136C204.977 1.97203 207.105 3.24249e-05 209.707 3.24249e-05H245.836C248.438 3.24249e-05 250.565 1.97203 250.565 4.38136C250.565 6.79203 248.438 8.7627 245.836 8.7627Z" fill="white"/>
<path d="M56.1986 82.7642H13.9822C11.3802 82.7642 9.25171 80.7922 9.25171 78.3815C9.25171 75.9722 11.3802 74.0002 13.9822 74.0002H56.1986C58.8006 74.0002 60.9277 75.9722 60.9277 78.3815C60.9277 80.7922 58.8006 82.7642 56.1986 82.7642Z" fill="white"/>
<path d="M70.3017 91H17.2797C15.2377 91 13.5684 88.9749 13.5684 86.5007C13.5684 84.0251 15.2377 82 17.2797 82H70.3017C72.3438 82 74.0131 84.0251 74.0131 86.5007C74.0131 88.9749 72.3438 91 70.3017 91Z" fill="white"/>
<path d="M58.7455 74.7627H22.6168C20.0148 74.7627 17.8862 72.792 17.8862 70.3814C17.8862 67.972 20.0148 66 22.6168 66H58.7455C61.3475 66 63.4745 67.972 63.4745 70.3814C63.4745 72.792 61.3475 74.7627 58.7455 74.7627Z" fill="white"/>
<path d="M63.7344 212.634L81.0029 150L98.2715 212.634H63.7344Z" fill="#3B651F"/>
<path d="M114.105 219.652L130.269 150L146.433 219.652H114.105Z" fill="#5EA134"/>
<path d="M130.553 219.5V151.5L146.486 219.5H130.553Z" fill="#528D2D"/>
<path d="M162.42 211.652L178.584 142L194.748 211.652H162.42Z" fill="#5EA134"/>
<path d="M178.867 211.5V143.5L194.801 211.5H178.867Z" fill="#528D2D"/>
<path d="M194.287 204.652L210.451 135L226.615 204.652H194.287Z" fill="#5EA134"/>
<path d="M210.734 204.5V136.5L226.668 204.5H210.734Z" fill="#528D2D"/>
<path d="M178.867 221.652L195.031 152L211.195 221.652H178.867Z" fill="#5EA134"/>
<path d="M195.314 221.5V153.5L211.248 221.5H195.314Z" fill="#528D2D"/>
<path d="M223.07 206.652L239.234 137L255.398 206.652H223.07Z" fill="#5EA134"/>
<path d="M239.518 206.5V138.5L255.451 206.5H239.518Z" fill="#528D2D"/>
<path d="M90.4614 205.652L106.625 136L122.789 205.652H90.4614Z" fill="#5EA134"/>
<path d="M106.909 205.5V137.5L122.842 205.5H106.909Z" fill="#528D2D"/>
<path d="M74.0144 220.652L90.1782 151L106.342 220.652H74.0144Z" fill="#5EA134"/>
<path d="M90.4619 220.5V152.5L106.395 220.5H90.4619Z" fill="#528D2D"/>
<path d="M15.4199 212.652L31.5837 143L47.7476 212.652H15.4199Z" fill="#5EA134"/>
<path d="M31.8674 212.5V144.5L47.801 212.5H31.8674Z" fill="#528D2D"/>
<path d="M138.776 219.652L154.94 150L171.104 219.652H138.776Z" fill="#5EA134"/>
<path d="M42.1467 221.652L58.3106 152L74.4744 221.652H42.1467Z" fill="#5EA134"/>
<path d="M71.4661 221.332H70.9302V199H71.4661V221.332Z" fill="#B7DB24"/>
<path d="M84.8571 188.775C84.8571 195.831 78.9785 201.55 71.7251 201.55C64.4731 201.55 58.5945 195.831 58.5945 188.775C58.5945 181.72 64.4731 176 71.7251 176C78.9785 176 84.8571 181.72 84.8571 188.775Z" fill="#B7DB24"/>
<path d="M85.09 188.775C85.09 181.72 79.2114 176 71.958 176V201.549C79.2114 201.549 85.09 195.831 85.09 188.775Z" fill="#96BE23"/>
<path d="M146.508 236.332H145.972V214H146.508V236.332Z" fill="#B7DB24"/>
<path d="M159.899 203.775C159.899 210.831 154.021 216.55 146.767 216.55C139.515 216.55 133.637 210.831 133.637 203.775C133.637 196.72 139.515 191 146.767 191C154.021 191 159.899 196.72 159.899 203.775Z" fill="#B7DB24"/>
<path d="M160.132 203.775C160.132 196.72 154.254 191 147 191V216.55C154.254 216.55 160.132 210.831 160.132 203.775Z" fill="#96BE23"/>
<path d="M186.599 217.332H186.063V195H186.599V217.332Z" fill="#B7DB24"/>
<path d="M199.99 184.775C199.99 191.831 194.112 197.55 186.858 197.55C179.606 197.55 173.728 191.831 173.728 184.775C173.728 177.72 179.606 172 186.858 172C194.112 172 199.99 177.72 199.99 184.775Z" fill="#B7DB24"/>
<path d="M200.223 184.775C200.223 177.72 194.345 172 187.091 172V197.55C194.345 197.55 200.223 191.831 200.223 184.775Z" fill="#96BE23"/>
<path d="M222.578 232.332H222.042V210H222.578V232.332Z" fill="#B7DB24"/>
<path d="M235.969 199.775C235.969 206.831 230.09 212.55 222.837 212.55C215.585 212.55 209.706 206.831 209.706 199.775C209.706 192.72 215.585 187 222.837 187C230.09 187 235.969 192.72 235.969 199.775Z" fill="#B7DB24"/>
<path d="M236.202 199.775C236.202 192.72 230.323 187 223.07 187V212.55C230.323 212.55 236.202 206.831 236.202 199.775Z" fill="#96BE23"/>
<path d="M32.4031 226.332H31.8672V204H32.4031V226.332Z" fill="#B7DB24"/>
<path d="M45.7941 193.775C45.7941 200.831 39.9155 206.55 32.6621 206.55C25.4101 206.55 19.5315 200.831 19.5315 193.775C19.5315 186.72 25.4101 181 32.6621 181C39.9155 181 45.7941 186.72 45.7941 193.775Z" fill="#B7DB24"/>
<path d="M46.0273 193.775C46.0273 186.72 40.1486 181 32.8953 181V206.549C40.1486 206.549 46.0273 200.831 46.0273 193.775Z" fill="#96BE23"/>
<path d="M256.501 205.332H255.965V183H256.501V205.332Z" fill="#B7DB24"/>
<path d="M269.892 172.775C269.892 179.831 264.013 185.55 256.76 185.55C249.508 185.55 243.629 179.831 243.629 172.775C243.629 165.72 249.508 160 256.76 160C264.013 160 269.892 165.72 269.892 172.775Z" fill="#B7DB24"/>
<path d="M270.125 172.775C270.125 165.72 264.246 160 256.993 160V185.549C264.246 185.549 270.125 179.831 270.125 172.775Z" fill="#96BE23"/>
<path d="M119.781 223.332H119.245V201H119.781V223.332Z" fill="#B7DB24"/>
<path d="M133.172 190.775C133.172 197.831 127.293 203.549 120.04 203.549C112.788 203.549 106.909 197.831 106.909 190.775C106.909 183.72 112.788 178 120.04 178C127.293 178 133.172 183.72 133.172 190.775Z" fill="#B7DB24"/>
<path d="M133.405 190.775C133.405 183.72 127.526 178 120.273 178V203.549C127.526 203.549 133.405 197.831 133.405 190.775Z" fill="#96BE23"/>
<path d="M226.233 276.78H71.3317C65.4572 276.78 60.6504 272.105 60.6504 266.391C60.6504 260.675 65.4572 256 71.3317 256H226.233C232.108 256 236.915 260.675 236.915 266.391C236.915 272.105 232.108 276.78 226.233 276.78Z" fill="#53A1D5"/>
<path d="M239.392 287.78H105.254C99.3798 287.78 94.573 283.105 94.573 277.389C94.573 271.674 99.3798 267 105.254 267H239.392C245.267 267 250.074 271.674 250.074 277.389C250.074 283.105 245.267 287.78 239.392 287.78Z" fill="#53A1D5"/>
<path d="M205.112 256.781H98.0587C92.1842 256.781 87.3774 252.105 87.3774 246.391C87.3774 240.676 92.1842 236 98.0587 236H205.112C210.986 236 215.793 240.676 215.793 246.391C215.793 252.105 210.986 256.781 205.112 256.781Z" fill="#53A1D5"/>
</svg>
