<svg  viewBox="0 0 1280 875" fill="none" xmlns="http://www.w3.org/2000/svg">
<path fill-rule="evenodd" clip-rule="evenodd" d="M236.617 613.043C274.969 618.988 314.423 611.984 349.021 592.617C399.774 564.184 458.052 548 520.01 548C608.581 548 689.631 581.07 751.922 635.742C790.909 669.957 841.932 685.478 892.467 678.494C908.323 676.278 924.51 675.139 940.958 675.139C1062.46 675.139 1169.82 737.373 1234 832.237H236.617V613.043Z" fill="#2F8779"/>
<path fill-rule="evenodd" clip-rule="evenodd" d="M140.625 597.79C284.622 549.05 367.737 589.127 472.344 660.173C497.402 677.191 521.951 697.911 554.494 706.74C621.646 724.959 693.663 696.615 762.363 715.145C783.143 720.751 865.575 774.405 862.311 790.761C860.624 799.207 843.072 807.542 834.86 811.849C752.248 855.178 625.838 838.838 531.407 836.716C479.604 835.553 427.897 837.702 376.418 842.106C320.409 846.896 213.82 869.513 160.477 852.806C135.349 844.937 114.605 828.726 102.958 810.283C81.9915 777.085 99.154 628.117 140.625 597.79Z" fill="#2B7C70"/>
<mask id="mask0_98_2" style="mask-type:luminance" maskUnits="userSpaceOnUse" x="482" y="189" width="1224" height="686">
<path d="M482.61 875H1705.38V189.437H482.61V875Z" fill="white"/>
</mask>
<g mask="url(#mask0_98_2)">
<path fill-rule="evenodd" clip-rule="evenodd" d="M1067.66 807.623L832.404 335.803L581.508 812.924L1067.66 807.623Z" fill="#4DB6A4"/>
</g>
<mask id="mask1_98_2" style="mask-type:luminance" maskUnits="userSpaceOnUse" x="582" y="330" width="487" height="483">
<path fill-rule="evenodd" clip-rule="evenodd" d="M1068.22 807.533L833.198 330.851L582.557 812.888L1068.22 807.533Z" fill="white"/>
</mask>
<g mask="url(#mask1_98_2)">
<path fill-rule="evenodd" clip-rule="evenodd" d="M914.749 300.352L833.198 330.851L844.579 887.747L1068.22 828.593L914.749 300.352Z" fill="#42998D"/>
<path fill-rule="evenodd" clip-rule="evenodd" d="M960.044 555.232L940.183 547.847C940.183 547.847 919.592 530.388 905.175 518.166C903.073 516.384 899.934 515.953 897.318 517.088C894.704 518.224 893.171 520.682 893.486 523.242C895.299 538.062 897.984 559.999 900.121 577.476C900.472 580.339 898.518 583.029 895.426 583.942C892.334 584.854 888.942 583.741 887.276 581.268C879.794 570.17 871.216 557.446 864.98 548.195C863.536 546.053 860.768 544.9 857.98 545.275C855.192 545.651 852.94 547.481 852.284 549.904C851.082 554.345 849.713 559.408 848.328 564.521C847.551 567.39 844.572 569.361 841.236 569.212C837.902 569.063 835.163 566.835 834.719 563.913C832.425 548.841 829.802 531.584 827.92 519.218C827.532 516.667 825.381 514.603 822.535 514.052C819.69 513.502 816.758 514.582 815.198 516.755C806.614 528.715 794.394 545.74 785.814 557.693C784.256 559.868 781.325 560.946 778.481 560.398C775.635 559.848 773.482 557.786 773.092 555.237C771.489 544.768 769.456 531.506 768.018 522.107C767.669 519.831 765.909 517.92 763.458 517.154C761.008 516.391 758.277 516.901 756.389 518.478C736.313 535.241 692.441 571.871 692.441 571.871L831.96 309.404L960.044 555.232Z" fill="#B5E4DD"/>
</g>
<mask id="mask2_98_2" style="mask-type:luminance" maskUnits="userSpaceOnUse" x="581" y="333" width="487" height="478">
<path fill-rule="evenodd" clip-rule="evenodd" d="M1067.3 805.131L832.046 333.31L581.15 810.431L1067.3 805.131Z" fill="white"/>
</mask>
<g mask="url(#mask2_98_2)">
<mask id="mask3_98_2" style="mask-type:luminance" maskUnits="userSpaceOnUse" x="691" y="312" width="269" height="273">
<path fill-rule="evenodd" clip-rule="evenodd" d="M959.021 555.403L939.141 548.094C939.141 548.094 918.528 530.813 904.096 518.716C901.992 516.951 898.85 516.525 896.232 517.648C893.615 518.773 892.082 521.206 892.395 523.739C894.21 538.409 896.898 560.122 899.038 577.421C899.389 580.254 897.433 582.917 894.338 583.82C891.243 584.724 887.847 583.622 886.179 581.174C878.69 570.189 870.103 557.595 863.86 548.438C862.415 546.318 859.645 545.177 856.854 545.547C854.063 545.92 851.808 547.731 851.151 550.13C849.948 554.526 848.576 559.536 847.191 564.598C846.414 567.437 843.43 569.389 840.093 569.241C836.755 569.093 834.013 566.888 833.568 563.994C831.273 549.077 828.647 531.996 826.762 519.757C826.374 517.232 824.221 515.189 821.372 514.643C818.525 514.099 815.589 515.168 814.027 517.319C805.435 529.157 793.203 546.008 784.614 557.839C783.054 559.99 780.121 561.061 777.273 560.517C774.424 559.972 772.269 557.931 771.879 555.408C770.274 545.046 768.239 531.919 766.8 522.616C766.451 520.363 764.688 518.471 762.235 517.714C759.782 516.956 757.049 517.463 755.159 519.024C735.063 535.615 691.146 571.871 691.146 571.871L830.807 312.083L959.021 555.403Z" fill="white"/>
</mask>
<g mask="url(#mask3_98_2)">
<path fill-rule="evenodd" clip-rule="evenodd" d="M913.68 303.122L832.046 333.31L843.439 884.528L1067.3 825.977L913.68 303.122Z" fill="#9ADCD2"/>
</g>
</g>
<mask id="mask4_98_2" style="mask-type:luminance" maskUnits="userSpaceOnUse" x="151" y="15" width="1263" height="798">
<path d="M151.868 812.138H1413.06V15.6429H151.868V812.138Z" fill="white"/>
</mask>
<g mask="url(#mask4_98_2)">
<path fill-rule="evenodd" clip-rule="evenodd" d="M755.304 733.859L512.654 185.692L253.874 740.018L755.304 733.859Z" fill="#4DB6A4"/>
</g>
<mask id="mask5_98_2" style="mask-type:luminance" maskUnits="userSpaceOnUse" x="254" y="179" width="502" height="561">
<path fill-rule="evenodd" clip-rule="evenodd" d="M755.875 733.754L513.473 179.939L254.956 739.976L755.875 733.754Z" fill="white"/>
</mask>
<g mask="url(#mask5_98_2)">
<path fill-rule="evenodd" clip-rule="evenodd" d="M597.586 144.505L513.473 179.939L525.212 826.948L755.875 758.222L597.586 144.505Z" fill="#42998D"/>
<path fill-rule="evenodd" clip-rule="evenodd" d="M644.304 440.628L623.82 432.048C623.82 432.048 602.581 411.764 587.711 397.565C585.543 395.494 582.306 394.993 579.608 396.312C576.912 397.632 575.33 400.488 575.655 403.461C577.525 420.68 580.294 446.166 582.499 466.472C582.861 469.797 580.845 472.923 577.656 473.983C574.467 475.044 570.969 473.75 569.249 470.877C561.533 457.983 552.685 443.201 546.253 432.452C544.764 429.964 541.909 428.624 539.034 429.059C536.158 429.496 533.835 431.623 533.158 434.438C531.919 439.598 530.507 445.479 529.078 451.42C528.277 454.753 525.204 457.044 521.763 456.87C518.325 456.697 515.499 454.109 515.041 450.714C512.676 433.203 509.97 413.153 508.028 398.787C507.628 395.823 505.41 393.425 502.474 392.784C499.54 392.145 496.516 393.4 494.907 395.925C486.053 409.82 473.45 429.6 464.6 443.487C462.993 446.014 459.97 447.267 457.036 446.63C454.1 445.991 451.88 443.595 451.478 440.633C449.824 428.47 447.728 413.063 446.245 402.143C445.885 399.499 444.069 397.278 441.541 396.389C439.014 395.502 436.198 396.094 434.25 397.926C413.544 417.402 368.293 459.959 368.293 459.959L512.196 155.022L644.304 440.628Z" fill="#B5E4DD"/>
</g>
<mask id="mask6_98_2" style="mask-type:luminance" maskUnits="userSpaceOnUse" x="253" y="182" width="502" height="556">
<path fill-rule="evenodd" clip-rule="evenodd" d="M754.934 730.964L512.284 182.797L253.504 737.122L754.934 730.964Z" fill="white"/>
</mask>
<g mask="url(#mask6_98_2)">
<mask id="mask7_98_2" style="mask-type:luminance" maskUnits="userSpaceOnUse" x="366" y="158" width="278" height="317">
<path fill-rule="evenodd" clip-rule="evenodd" d="M643.249 440.826L622.744 432.334C622.744 432.334 601.484 412.257 586.599 398.203C584.428 396.153 581.188 395.658 578.487 396.963C575.788 398.269 574.207 401.096 574.53 404.039C576.402 421.082 579.174 446.309 581.381 466.407C581.743 469.699 579.726 472.792 576.534 473.842C573.341 474.892 569.839 473.611 568.118 470.767C560.394 458.005 551.537 443.373 545.098 432.735C543.608 430.272 540.75 428.946 537.871 429.376C534.993 429.809 532.668 431.914 531.99 434.7C530.749 439.807 529.334 445.629 527.905 451.509C527.104 454.808 524.026 457.075 520.584 456.904C517.142 456.732 514.313 454.17 513.854 450.808C511.487 433.477 508.778 413.632 506.835 399.412C506.434 396.479 504.214 394.105 501.275 393.471C498.338 392.839 495.31 394.081 493.7 396.58C484.837 410.333 472.221 429.911 463.362 443.657C461.753 446.156 458.727 447.4 455.79 446.768C452.852 446.135 450.629 443.764 450.227 440.832C448.571 428.793 446.473 413.543 444.988 402.734C444.628 400.117 442.81 397.919 440.28 397.039C437.75 396.159 434.931 396.747 432.981 398.561C412.254 417.836 366.957 459.959 366.957 459.959L511.007 158.134L643.249 440.826Z" fill="white"/>
</mask>
<g mask="url(#mask7_98_2)">
<path fill-rule="evenodd" clip-rule="evenodd" d="M596.483 147.724L512.284 182.796L524.035 823.208L754.935 755.182L596.483 147.724Z" fill="#9ADCD2"/>
</g>
</g>
<mask id="mask8_98_2" style="mask-type:luminance" maskUnits="userSpaceOnUse" x="76" y="138" width="799" height="514">
<path d="M76 651.625H874.603V138H76V651.625Z" fill="white"/>
</mask>
<g mask="url(#mask8_98_2)">
<path fill-rule="evenodd" clip-rule="evenodd" d="M458.104 601.147L304.454 247.658L140.591 605.118L458.104 601.147Z" fill="#4DB6A4"/>
</g>
<mask id="mask9_98_2" style="mask-type:luminance" maskUnits="userSpaceOnUse" x="141" y="243" width="318" height="363">
<path fill-rule="evenodd" clip-rule="evenodd" d="M458.466 601.079L304.973 243.948L141.277 605.091L458.466 601.079Z" fill="white"/>
</mask>
<g mask="url(#mask9_98_2)">
<path fill-rule="evenodd" clip-rule="evenodd" d="M358.234 221.098L304.973 243.947L312.406 661.176L458.466 616.857L358.234 221.098Z" fill="#42998D"/>
<path fill-rule="evenodd" clip-rule="evenodd" d="M387.817 412.054L374.846 406.522C374.846 406.522 361.398 393.441 351.982 384.285C350.609 382.95 348.559 382.627 346.85 383.477C345.143 384.328 344.142 386.17 344.347 388.087C345.532 399.191 347.285 415.626 348.681 428.72C348.91 430.865 347.634 432.88 345.615 433.564C343.595 434.248 341.38 433.414 340.291 431.561C335.405 423.246 329.803 413.714 325.73 406.782C324.787 405.178 322.979 404.314 321.158 404.594C319.337 404.876 317.867 406.247 317.438 408.063C316.653 411.39 315.759 415.183 314.854 419.014C314.347 421.163 312.401 422.64 310.223 422.529C308.045 422.417 306.256 420.748 305.966 418.559C304.468 407.266 302.755 394.337 301.525 385.073C301.272 383.162 299.867 381.615 298.008 381.202C296.151 380.79 294.235 381.599 293.217 383.228C287.61 392.188 279.63 404.943 274.026 413.898C273.008 415.528 271.094 416.336 269.236 415.925C267.377 415.513 265.972 413.968 265.717 412.058C264.67 404.215 263.342 394.279 262.403 387.237C262.175 385.532 261.025 384.1 259.425 383.527C257.824 382.954 256.041 383.337 254.808 384.518C241.696 397.077 213.043 424.52 213.043 424.52L304.164 227.88L387.817 412.054Z" fill="#B5E4DD"/>
</g>
<mask id="mask10_98_2" style="mask-type:luminance" maskUnits="userSpaceOnUse" x="140" y="245" width="318" height="359">
<path fill-rule="evenodd" clip-rule="evenodd" d="M457.87 599.279L304.22 245.79L140.357 603.25L457.87 599.279Z" fill="white"/>
</mask>
<g mask="url(#mask10_98_2)">
<mask id="mask11_98_2" style="mask-type:luminance" maskUnits="userSpaceOnUse" x="212" y="229" width="176" height="205">
<path fill-rule="evenodd" clip-rule="evenodd" d="M387.149 412.182L374.165 406.706C374.165 406.706 360.703 393.759 351.277 384.696C349.903 383.375 347.851 383.055 346.141 383.897C344.432 384.739 343.43 386.562 343.635 388.46C344.821 399.45 346.576 415.718 347.973 428.678C348.203 430.801 346.925 432.796 344.904 433.473C342.883 434.15 340.665 433.324 339.575 431.49C334.684 423.26 329.076 413.825 324.999 406.964C324.055 405.376 322.245 404.521 320.422 404.799C318.6 405.078 317.127 406.435 316.698 408.232C315.913 411.525 315.016 415.279 314.112 419.071C313.604 421.199 311.655 422.661 309.476 422.55C307.296 422.439 305.505 420.787 305.215 418.619C303.715 407.443 302 394.646 300.77 385.476C300.516 383.585 299.11 382.054 297.249 381.645C295.389 381.237 293.472 382.038 292.452 383.65C286.84 392.519 278.851 405.144 273.242 414.008C272.223 415.619 270.307 416.422 268.448 416.014C266.587 415.606 265.179 414.077 264.924 412.186C263.876 404.423 262.548 394.588 261.607 387.619C261.379 385.931 260.228 384.513 258.626 383.946C257.024 383.378 255.239 383.758 254.005 384.927C240.879 397.357 212.197 424.52 212.197 424.52L303.411 229.886L387.149 412.182Z" fill="white"/>
</mask>
<g mask="url(#mask11_98_2)">
<path fill-rule="evenodd" clip-rule="evenodd" d="M357.536 223.173L304.22 245.79L311.661 658.764L457.87 614.897L357.536 223.173Z" fill="#9ADCD2"/>
</g>
</g>
<mask id="mask12_98_2" style="mask-type:luminance" maskUnits="userSpaceOnUse" x="-359" y="-308" width="2141" height="1146">
<path d="M-358.771 837.526H1782V-308H-358.771V837.526Z" fill="white"/>
</mask>
<g mask="url(#mask12_98_2)">
<path fill-rule="evenodd" clip-rule="evenodd" d="M645.268 704.622H669.999V674.332H645.268V704.622Z" fill="#552C17"/>
<path fill-rule="evenodd" clip-rule="evenodd" d="M657.634 571.808L714.486 692.94H600.781L657.634 571.808Z" fill="#32706B"/>
</g>
<g clip-path="url(#clip0_98_2)">
<mask id="mask13_98_2" style="mask-type:luminance" maskUnits="userSpaceOnUse" x="602" y="571" width="115" height="122">
<path fill-rule="evenodd" clip-rule="evenodd" d="M659.258 571.418L716.11 692.55H602.405L659.258 571.418Z" fill="white"/>
</mask>
<g mask="url(#mask13_98_2)">
<path fill-rule="evenodd" clip-rule="evenodd" d="M716.11 637.021C715.252 636.355 659.054 641.64 659.054 641.64V692.55L722.528 694.521C722.528 694.521 716.968 637.684 716.11 637.021Z" fill="#26615D"/>
</g>
<path fill-rule="evenodd" clip-rule="evenodd" d="M658.522 532.379L707.244 641.226H609.799L658.522 532.379Z" fill="#539A73"/>
<mask id="mask14_98_2" style="mask-type:luminance" maskUnits="userSpaceOnUse" x="609" y="532" width="99" height="110">
<path fill-rule="evenodd" clip-rule="evenodd" d="M658.522 532.379L707.244 641.226H609.799L658.522 532.379Z" fill="white"/>
</mask>
<g mask="url(#mask14_98_2)">
<path fill-rule="evenodd" clip-rule="evenodd" d="M696.476 577.963L658.522 589.746V641.226L715.374 645.506L696.476 577.963Z" fill="#35746F"/>
</g>
<mask id="mask15_98_2" style="mask-type:luminance" maskUnits="userSpaceOnUse" x="-295" y="-329" width="2142" height="1146">
<path d="M-294.692 816.978H1846.08V-328.547H-294.692V816.978Z" fill="white"/>
</mask>
<g mask="url(#mask15_98_2)">
<path fill-rule="evenodd" clip-rule="evenodd" d="M660.098 515.9L698.052 590.527H622.144L660.098 515.9Z" fill="#3EBE80"/>
</g>
<mask id="mask16_98_2" style="mask-type:luminance" maskUnits="userSpaceOnUse" x="622" y="515" width="77" height="76">
<path fill-rule="evenodd" clip-rule="evenodd" d="M660.079 515.941L698.033 590.565H622.122L660.079 515.941Z" fill="white"/>
</mask>
<g mask="url(#mask16_98_2)">
<path fill-rule="evenodd" clip-rule="evenodd" d="M693.436 523.499L659.875 515.938V590.565L708.802 595.513L693.436 523.499Z" fill="#348E85"/>
</g>
</g>
<mask id="mask17_98_2" style="mask-type:luminance" maskUnits="userSpaceOnUse" x="-223" y="-54" width="2131" height="866">
<path d="M-223 811.054H1908V-54H-223V811.054Z" fill="white"/>
</mask>
<g mask="url(#mask17_98_2)">
<path fill-rule="evenodd" clip-rule="evenodd" d="M776.456 710.691H801.074V687.817H776.456V710.691Z" fill="#552C17"/>
<path fill-rule="evenodd" clip-rule="evenodd" d="M788.765 610.395L845.358 701.869H732.172L788.765 610.395Z" fill="#32706B"/>
</g>
<g clip-path="url(#clip1_98_2)">
<mask id="mask18_98_2" style="mask-type:luminance" maskUnits="userSpaceOnUse" x="732" y="609" width="114" height="93">
<path fill-rule="evenodd" clip-rule="evenodd" d="M788.859 609.648L845.452 701.122H732.267L788.859 609.648Z" fill="white"/>
</mask>
<g mask="url(#mask18_98_2)">
<path fill-rule="evenodd" clip-rule="evenodd" d="M845.452 659.189C844.598 658.686 788.657 662.677 788.657 662.677V701.122L851.841 702.61C851.841 702.61 846.306 659.69 845.452 659.189Z" fill="#2A605C"/>
</g>
<path fill-rule="evenodd" clip-rule="evenodd" d="M788.127 580.167L836.627 662.365H739.626L788.127 580.167Z" fill="#3B857E"/>
<mask id="mask19_98_2" style="mask-type:luminance" maskUnits="userSpaceOnUse" x="739" y="580" width="98" height="83">
<path fill-rule="evenodd" clip-rule="evenodd" d="M788.127 580.167L836.627 662.365H739.626L788.127 580.167Z" fill="white"/>
</mask>
<g mask="url(#mask19_98_2)">
<path fill-rule="evenodd" clip-rule="evenodd" d="M825.908 614.591L788.127 623.489V662.365L844.719 665.596L825.908 614.591Z" fill="#35746F"/>
</g>
<mask id="mask20_98_2" style="mask-type:luminance" maskUnits="userSpaceOnUse" x="-161" y="-70" width="2132" height="866">
<path d="M-160.737 795.085H1970.26V-69.9687H-160.737V795.085Z" fill="white"/>
</mask>
<g mask="url(#mask20_98_2)">
<path fill-rule="evenodd" clip-rule="evenodd" d="M789.696 567.723L827.477 624.079H751.915L789.696 567.723Z" fill="#42998D"/>
</g>
<mask id="mask21_98_2" style="mask-type:luminance" maskUnits="userSpaceOnUse" x="751" y="567" width="77" height="58">
<path fill-rule="evenodd" clip-rule="evenodd" d="M789.677 567.754L827.458 624.107H751.893L789.677 567.754Z" fill="white"/>
</mask>
<g mask="url(#mask21_98_2)">
<path fill-rule="evenodd" clip-rule="evenodd" d="M822.882 573.462L789.474 567.752V624.107L838.177 627.844L822.882 573.462Z" fill="#387F78"/>
</g>
</g>
<mask id="mask22_98_2" style="mask-type:luminance" maskUnits="userSpaceOnUse" x="-498" y="-125" width="1992" height="794">
<path d="M-498 668.039H1493.26V-124.035H-498V668.039Z" fill="white"/>
</mask>
<g mask="url(#mask22_98_2)">
<path fill-rule="evenodd" clip-rule="evenodd" d="M435.918 576.143H458.922V555.199H435.918V576.143Z" fill="#552C17"/>
<path fill-rule="evenodd" clip-rule="evenodd" d="M447.42 484.308L500.302 568.065H394.538L447.42 484.308Z" fill="#32706B"/>
</g>
<g clip-path="url(#clip2_98_2)">
<mask id="mask23_98_2" style="mask-type:luminance" maskUnits="userSpaceOnUse" x="396" y="484" width="106" height="84">
<path fill-rule="evenodd" clip-rule="evenodd" d="M448.931 484.039L501.813 567.796H396.049L448.931 484.039Z" fill="white"/>
</mask>
<g mask="url(#mask23_98_2)">
<path fill-rule="evenodd" clip-rule="evenodd" d="M501.813 529.4C501.015 528.94 448.741 532.594 448.741 532.594V567.796L507.782 569.158C507.782 569.158 502.61 529.858 501.813 529.4Z" fill="#2A605C"/>
</g>
<path fill-rule="evenodd" clip-rule="evenodd" d="M448.246 457.045L493.566 532.308H402.926L448.246 457.045Z" fill="#3B857E"/>
<mask id="mask24_98_2" style="mask-type:luminance" maskUnits="userSpaceOnUse" x="402" y="457" width="92" height="76">
<path fill-rule="evenodd" clip-rule="evenodd" d="M448.246 457.045L493.566 532.308H402.926L448.246 457.045Z" fill="white"/>
</mask>
<g mask="url(#mask24_98_2)">
<path fill-rule="evenodd" clip-rule="evenodd" d="M483.549 488.564L448.246 496.712V532.308L501.128 535.267L483.549 488.564Z" fill="#35746F"/>
</g>
<mask id="mask25_98_2" style="mask-type:luminance" maskUnits="userSpaceOnUse" x="-439" y="-139" width="1992" height="793">
<path d="M-438.397 653.831H1552.87V-138.242H-438.397V653.831Z" fill="white"/>
</mask>
<g mask="url(#mask25_98_2)">
<path fill-rule="evenodd" clip-rule="evenodd" d="M449.712 445.651L485.016 497.252H414.409L449.712 445.651Z" fill="#42998D"/>
</g>
<mask id="mask26_98_2" style="mask-type:luminance" maskUnits="userSpaceOnUse" x="414" y="445" width="71" height="53">
<path fill-rule="evenodd" clip-rule="evenodd" d="M449.695 445.679L484.998 497.278H414.388L449.695 445.679Z" fill="white"/>
</mask>
<g mask="url(#mask26_98_2)">
<path fill-rule="evenodd" clip-rule="evenodd" d="M480.722 450.905L449.505 445.677V497.278L495.015 500.699L480.722 450.905Z" fill="#387F78"/>
</g>
</g>
<path fill-rule="evenodd" clip-rule="evenodd" d="M170 393.325H170.392C170.856 397.679 174.782 401.079 179.456 401.079H374.547C379.577 401.079 383.682 397.168 383.682 392.408V392.372C383.682 387.612 379.577 383.703 374.547 383.703H371.941C370.656 379.214 366.125 375.916 360.736 375.916C359.344 375.916 358.025 376.153 356.81 376.527C355.349 369.692 348.531 364.49 340.36 364.49C339.54 364.49 338.754 364.559 337.969 364.661C335.615 356.363 327.228 350.243 317.2 350.243C314.988 350.243 312.811 350.55 310.813 351.092C306.745 345.788 300.037 342.321 292.505 342.321C284.834 342.321 278.053 345.89 274.021 351.332C270.631 346.503 264.494 343.271 257.464 343.271C248.578 343.271 241.121 348.407 238.837 355.445C236.909 354.97 234.875 354.73 232.77 354.73C221.707 354.73 212.358 361.6 209.289 371.054C207.79 370.678 206.22 370.476 204.579 370.476C195.622 370.476 188.342 376.358 187.985 383.703H179.456C174.425 383.703 170.321 387.612 170.321 392.372V392.408L170.357 392.917L170 393.325Z" fill="#F0F0EE"/>
<path fill-rule="evenodd" clip-rule="evenodd" d="M541.118 322.263H739.828C745.597 322.263 750.279 317.799 750.279 312.303C750.279 308.165 747.652 304.627 743.883 303.105C744.168 301.907 744.339 300.71 744.339 299.459C744.339 291.349 737.2 284.817 728.347 284.817C727.547 284.817 726.805 284.872 726.005 284.925C723.321 277.089 715.323 271.374 705.842 271.374C703.673 271.374 701.615 271.647 699.673 272.191C697.16 262.339 687.452 255.047 675.857 255.047C672.315 255.047 668.945 255.699 665.918 256.951C660.892 251.78 653.41 248.57 645.128 248.57C634.447 248.57 625.136 253.959 620.623 261.85C617.426 260.381 613.828 259.618 610 259.618C600.863 259.618 592.923 264.245 588.697 271.156C585.784 270.068 582.584 269.415 579.271 269.415C567.563 269.415 557.739 276.926 555.281 286.994C554.939 286.941 554.539 286.941 554.139 286.941C544.602 286.941 536.834 293.744 536.834 302.125V302.343C531.408 302.724 527.123 307.077 527.123 312.303C527.123 317.799 531.865 322.263 537.634 322.263H541.118Z" fill="#F0F0EE"/>
<path fill-rule="evenodd" clip-rule="evenodd" d="M696.06 474.772H894.77C900.539 474.772 905.221 470.309 905.221 464.812C905.221 460.675 902.594 457.137 898.826 455.614C899.11 454.416 899.281 453.219 899.281 451.968C899.281 443.858 892.142 437.326 883.289 437.326C882.489 437.326 881.747 437.381 880.947 437.434C878.263 429.598 870.266 423.883 860.784 423.883C858.615 423.883 856.558 424.156 854.616 424.7C852.102 414.848 842.394 407.556 830.799 407.556C827.257 407.556 823.887 408.208 820.86 409.46C815.834 404.289 808.352 401.079 800.07 401.079C789.389 401.079 780.079 406.468 775.566 414.359C772.368 412.89 768.77 412.128 764.942 412.128C755.805 412.128 747.865 416.754 743.639 423.665C740.726 422.577 737.526 421.925 734.213 421.925C722.505 421.925 712.681 429.435 710.224 439.503C709.881 439.45 709.481 439.45 709.081 439.45C699.544 439.45 691.776 446.253 691.776 454.634V454.852C686.35 455.233 682.066 459.586 682.066 464.812C682.066 470.309 686.807 474.772 692.576 474.772H696.06Z" fill="#F0F0EE"/>
<path fill-rule="evenodd" clip-rule="evenodd" d="M435.73 109.094C435.209 109.062 434.681 109.046 434.151 109.046C433.576 109.046 433.052 109.046 432.477 109.095C433.104 107.4 433.471 105.553 433.471 103.658C433.471 94.4265 425.459 86.9417 415.615 86.9417C414.829 86.9417 414.149 86.9417 413.415 87.0419C413.469 86.2423 413.52 85.4447 413.52 84.6471C413.52 70.3258 401.109 58.6507 385.82 58.6507C381.787 58.6507 377.965 59.4974 374.508 60.9452C369.692 53.2601 360.633 48.0718 350.211 48.0718C348.222 48.0718 346.284 48.2702 344.399 48.6199C340.472 40.0369 330.994 34 319.944 34C306.547 34 295.472 42.8757 293.724 54.3956C288.531 48.8301 280.983 45.3038 272.553 45.3038C256.894 45.3038 244.2 57.3993 244.2 72.3198C244.2 73.5712 244.321 74.7912 244.493 75.9974C229.583 76.791 217.739 88.5309 217.739 102.937C217.739 117.478 230.477 129.874 245.743 130.025C265.739 130.22 285.782 129.953 305.793 129.953C328.5 129.953 351.207 129.953 373.914 129.953C391.04 129.953 408.168 129.953 425.296 129.953C428.43 129.953 431.566 129.953 434.702 129.953C448.655 129.953 449.657 109.926 435.73 109.094Z" fill="#F0F0EE"/>
<defs>
<clipPath id="clip0_98_2">
<rect width="165.125" height="248.621" fill="white" transform="translate(590.083 474.846)"/>
</clipPath>
<clipPath id="clip1_98_2">
<rect width="164.371" height="187.748" fill="white" transform="translate(720 536.721)"/>
</clipPath>
<clipPath id="clip2_98_2">
<rect width="153.593" height="171.909" fill="white" transform="translate(384.587 417.264)"/>
</clipPath>
</defs>
</svg>
