<svg width="126" height="263" viewBox="0 0 126 263" fill="none" xmlns="http://www.w3.org/2000/svg">
<path d="M67 0.437924C67 0.767924 67 1.09792 67 1.43792C66.1855 1.57255 66.1855 1.57255 65.3545 1.7099C43.7224 5.35474 43.7224 5.35474 27.1602 18.9496C23.8083 23.974 21.188 28.4978 20 34.4379C20.5827 34.184 21.1653 33.93 21.7656 33.6684C45.2807 23.7965 73.2197 24.0323 97.9653 29.0366C99.8933 29.4169 101.835 29.7226 103.777 30.0239C106.765 30.5709 109.283 31.0843 112 32.4379C113.294 34.392 113.778 36.0389 114.301 38.3168C115.406 41.6707 117.82 43.4874 120.344 45.8559C123.679 49.0421 124.894 51.2763 125.312 55.8754C123.524 60.7297 120.808 61.5435 116.383 63.895C112.778 66.2294 112.219 68.4011 111 72.4379C110.34 73.4279 109.68 74.4179 109 75.4379C109 76.7579 109 78.0779 109 79.4379C110.98 79.9329 110.98 79.9329 113 80.4379C113 81.0979 113 81.7579 113 82.4379C111.35 82.7679 109.7 83.0979 108 83.4379C108.33 84.0979 108.66 84.7579 109 85.4379C109.41 90.0456 108.997 92.8413 106 96.4379C102.812 97.7504 102.812 97.7504 100 98.4379C100.227 99.1392 100.454 99.8404 100.688 100.563C101.106 104.411 100.042 106.198 98 109.438C95.8125 111.313 95.8125 111.313 94 112.438C94.495 114.201 94.495 114.201 95 116C96.4886 122.667 96.5537 129.646 96 136.438C95.34 137.428 94.68 138.418 94 139.438C90.875 139.625 90.875 139.625 88 139.438C87.67 141.088 87.34 142.738 87 144.438C85.68 144.768 84.36 145.098 83 145.438C82.9745 152.251 82.9571 159.065 82.9451 165.879C82.9401 168.194 82.9333 170.509 82.9246 172.824C82.9124 176.163 82.9067 179.501 82.9023 182.84C82.8972 183.866 82.892 184.891 82.8867 185.947C82.8863 191.214 83.1147 196.331 83.7719 201.556C84.0337 203.716 84.1291 205.841 84.1328 208.016C84.1346 208.778 84.1364 209.54 84.1382 210.324C84.1317 211.494 84.1317 211.494 84.125 212.688C84.1245 213.515 84.124 214.342 84.1235 215.194C84.0967 219.958 83.8557 224.631 83.375 229.375C82.7696 236.044 82.9815 243.431 86.0508 249.524C87.7426 252.935 87.3589 255.669 87 259.438C84.7655 261.767 83.3678 262.386 80.1602 262.836C79.1379 262.829 78.1157 262.821 77.0625 262.813C76.0429 262.821 75.0232 262.828 73.9727 262.836C70.5902 262.383 68.6851 261.529 66 259.438C65.1115 253.773 66.8393 249.57 69 244.438C68.34 244.438 67.68 244.438 67 244.438C67.0232 243.287 67.0464 242.136 67.0703 240.95C67.2193 230.239 66.6373 219.845 65.334 209.219C64.9465 205.992 64.5896 202.762 64.2344 199.532C63.9691 197.146 63.7035 194.761 63.4375 192.375C63.3108 191.226 63.184 190.077 63.0535 188.893C62.9314 187.824 62.8093 186.754 62.6836 185.653C62.5759 184.695 62.4682 183.737 62.3572 182.75C62.1175 180.418 62.1175 180.418 61 178.438C60.34 178.438 59.68 178.438 59 178.438C56.9493 187.102 56.1967 195.843 55.4375 204.688C55.2491 206.842 55.0592 208.995 54.8667 211.149C54.6936 213.092 54.5252 215.035 54.3572 216.978C54.1302 219.176 53.8406 221.37 53.4678 223.548C52.6872 228.37 52.8156 233.188 52.8125 238.063C52.7941 239.618 52.7941 239.618 52.7754 241.204C52.7735 242.201 52.7715 243.199 52.7695 244.227C52.7654 245.131 52.7613 246.036 52.7571 246.968C53.0155 249.596 53.8064 251.118 55 253.438C54.875 257.063 54.875 257.063 54 260.438C50.8142 262.698 47.8264 262.736 44 262.75C42.9688 262.767 41.9375 262.784 40.875 262.801C37.6304 262.391 36.2543 261.788 34 259.438C33.4681 254.03 34.2908 250.565 36 245.438C37.0859 238.781 36.9265 232.534 36.2617 225.852C35.9519 221.81 35.8816 217.802 35.875 213.75C35.8684 212.747 35.8684 212.747 35.8616 211.723C35.873 207.414 36.077 203.14 36.3701 198.84C36.8665 191.446 37.0719 184.099 37.0273 176.688C37.0218 175.769 37.0163 174.85 37.0107 173.903C36.9831 170.12 36.9479 166.337 36.9041 162.555C36.8737 159.745 36.8561 156.935 36.8398 154.125C36.8264 153.285 36.8129 152.444 36.7991 151.578C36.7755 145.953 37.5585 140.872 39 135.438C37.9694 135.525 37.9694 135.525 36.918 135.614C29.6137 135.979 29.6137 135.979 26.875 133.563C24.4734 124.986 26.096 117.33 30 109.438C33.4149 104.035 36.994 101.48 43 99.4379C40.8305 97.2684 39.0191 96.4135 36.25 95.1254C29.3801 91.7301 23.8265 87.9408 21 80.4379C20.4311 77.4405 20.1381 74.484 20 71.4379C19.3194 71.3348 18.6388 71.2317 17.9375 71.1254C14.3708 70.2907 11.3378 68.9432 8 67.4379C8 66.7779 8 66.1179 8 65.4379C6.85531 65.0667 6.85531 65.0667 5.6875 64.6879C2.65967 63.2796 1.42688 62.4596 0 59.4379C0.725823 53.1958 5.63475 48.6162 10 44.4379C11.0931 43.8604 12.1862 43.2829 13.3125 42.6879C17.2425 39.3977 17.226 35.7274 18.1758 30.8246C20.267 22.2319 26.0362 14.7684 33 9.43792C44.1956 2.73644 53.9354 -0.0016335 67 0.437924Z" fill="#A88957"/>
<path d="M67 0.437924C67 0.767924 67 1.09792 67 1.43792C66.1855 1.57255 66.1855 1.57255 65.3545 1.7099C43.7224 5.35474 43.7224 5.35474 27.1602 18.9496C23.8083 23.974 21.188 28.4978 20 34.4379C20.5827 34.184 21.1653 33.93 21.7656 33.6684C45.2807 23.7965 73.2197 24.0323 97.9653 29.0366C99.8933 29.4169 101.835 29.7226 103.777 30.0239C106.765 30.5709 109.283 31.0843 112 32.4379C113.294 34.392 113.778 36.0389 114.301 38.3168C115.406 41.6707 117.82 43.4874 120.344 45.8559C123.723 49.0834 124.937 51.2558 125.188 55.9379C123.689 60.3559 121.851 61.3661 117.91 63.5903C116 64.4379 116 64.4379 114 64.4379C113.723 63.5111 113.446 62.5843 113.16 61.6293C112.617 59.833 112.617 59.833 112.062 58.0004C111.523 56.208 111.523 56.208 110.973 54.3793C110.291 51.5792 110.291 51.5792 109 50.4379C109.495 51.4485 109.99 52.4592 110.5 53.5004C113.033 59.4557 112.319 64.4942 110 70.4379C109.34 70.4379 108.68 70.4379 108 70.4379C104.755 74.6662 103 78.0945 103 83.4379C103.66 83.7679 104.32 84.0979 105 84.4379C104.01 84.4379 103.02 84.4379 102 84.4379C100 81.4379 100 81.4379 100.125 78.5629C101.115 75.0273 102.581 73.1588 105 70.4379C106.148 68.1416 106.308 66.3609 106.562 63.8129C106.688 62.587 106.688 62.587 106.816 61.3364C106.877 60.7099 106.938 60.0834 107 59.4379C107.66 60.0979 108.32 60.7579 109 61.4379C108.503 56.4649 107.447 52.7999 105 48.4379C105 49.0979 105 49.7579 105 50.4379C104.685 51.7758 104.354 53.11 104 54.4379C103.67 54.4379 103.34 54.4379 103 54.4379C102.691 53.3035 102.381 52.1692 102.062 51.0004C101.371 47.6502 101.371 47.6502 100 46.4379C98.4853 46.206 96.9625 46.0258 95.4375 45.8754C94.6112 45.7916 93.7849 45.7078 92.9336 45.6215C92.2955 45.5609 91.6574 45.5003 91 45.4379C91.99 47.4179 91.99 47.4179 93 49.4379C88.3099 47.79 88.3099 47.79 86.625 45.8754C84.4502 43.9516 83.1671 44.1263 80.3125 44.2504C79.5043 44.2775 78.696 44.3046 77.8633 44.3325C76.941 44.3847 76.941 44.3847 76 44.4379C78.4895 47.1053 80.6341 48.9954 84 50.4379C83 52.4379 83 52.4379 80.5625 53.7504C77.5856 55.7108 76.9969 57.0845 76 60.4379C76.33 60.1079 76.66 59.7779 77 59.4379C79.3125 57.3129 79.3125 57.3129 82 55.4379C85.1041 55.6205 86.3416 56.6657 89 58.4379C88.01 55.9629 88.01 55.9629 87 53.4379C90.3799 53.9756 93.6874 54.581 97 55.4379C97.2052 59.1037 97.3283 62.7681 97.4375 66.4379C97.5255 67.9829 97.5255 67.9829 97.6152 69.559C97.742 75.2431 97.4295 78.6689 93.6172 83.0512C92.4397 84.2095 91.2368 85.3431 90 86.4379C88.8553 87.5207 88.8553 87.5207 87.6875 88.6254C78.8082 94.6138 70.7389 97.5279 60 96.4379C55.4548 95.1871 51.267 93.4299 47 91.4379C45.992 90.9687 44.9839 90.4995 43.9453 90.0161C36.7656 86.397 31.9013 82.6537 28.5625 75.2504C27.6896 69.334 27.2743 62.7959 30.082 57.3325C31.375 55.6879 31.375 55.6879 34 53.4379C34.99 53.4379 35.98 53.4379 37 53.4379C39.2117 50.4956 39.2117 50.4956 41 47.4379C42.5 48.8129 42.5 48.8129 44 50.4379C44 52.4379 44 52.4379 42.5 54.0629C42.005 54.5167 41.51 54.9704 41 55.4379C41.5363 55.1079 42.0725 54.7779 42.625 54.4379C45.7034 53.1418 47.6772 53.0392 51 53.4379C54.375 55.4379 54.375 55.4379 57 57.4379C56.505 55.4579 56.505 55.4579 56 53.4379C56.66 53.4379 57.32 53.4379 58 53.4379C57.34 52.5304 56.68 51.6229 56 50.6879C54 47.4379 54 47.4379 54 43.4379C53.01 43.1079 52.02 42.7779 51 42.4379C50.67 43.7579 50.34 45.0779 50 46.4379C49.505 44.4579 49.505 44.4579 49 42.4379C44.05 43.4279 39.1 44.4179 34 45.4379C33.34 47.7479 32.68 50.0579 32 52.4379C31.34 52.1079 30.68 51.7779 30 51.4379C30 53.0879 30 54.7379 30 56.4379C29.34 56.1079 28.68 55.7779 28 55.4379C28 52.4679 28 49.4979 28 46.4379C26.8553 46.9329 26.8553 46.9329 25.6875 47.4379C23 48.4379 23 48.4379 20 48.4379C20.33 51.4079 20.66 54.3779 21 57.4379C20.34 57.1079 19.68 56.7779 19 56.4379C19 58.0879 19 59.7379 19 61.4379C16.2027 59.3704 15.9731 58.2935 15.3125 54.7504C15.2094 53.6573 15.1062 52.5642 15 51.4379C14.34 51.4379 13.68 51.4379 13 51.4379C13.624 53.1675 14.2492 54.8965 14.875 56.6254C15.3971 58.0698 15.3971 58.0698 15.9297 59.5434C16.9099 62.1943 17.9372 64.8192 19 67.4379C17.68 68.4279 16.36 69.4179 15 70.4379C12.69 69.4479 10.38 68.4579 8 67.4379C8 66.7779 8 66.1179 8 65.4379C6.85531 65.0667 6.85531 65.0667 5.6875 64.6879C2.65967 63.2796 1.42688 62.4596 0 59.4379C0.725823 53.1958 5.63475 48.6162 10 44.4379C11.0931 43.8604 12.1862 43.2829 13.3125 42.6879C17.2425 39.3977 17.226 35.7274 18.1758 30.8246C20.267 22.2319 26.0362 14.7684 33 9.43792C44.1956 2.73644 53.9354 -0.0016335 67 0.437924Z" fill="#FEC5A3"/>
<path d="M49 42.438C49.495 43.923 49.495 43.923 50 45.438C50.33 44.448 50.66 43.458 51 42.438C52.32 42.768 53.64 43.098 55 43.438C55.1237 44.3455 55.2475 45.253 55.375 46.188C55.9211 49.0277 56.5726 50.9639 58 53.438C57.34 53.438 56.68 53.438 56 53.438C56.66 55.088 57.32 56.738 58 58.438C55.5064 57.2342 53.3186 55.9837 51 54.438C47.4617 54.2121 44.3909 54.3946 41 55.438C41.33 54.448 41.66 53.458 42 52.438C42.66 52.438 43.32 52.438 44 52.438C43.01 51.448 42.02 50.458 41 49.438C39.35 51.418 37.7 53.398 36 55.438C35.34 55.108 34.68 54.778 34 54.438C30.417 57.6743 29.5835 60.5463 29.0625 65.188C28.7576 71.5509 29.3257 76.8835 33.2344 82.0786C40.9865 89.6709 55.6274 95.6508 66.3125 95.813C75.4888 95.6119 83.3502 91.6559 90 85.438C90.5074 84.9959 91.0148 84.5539 91.5376 84.0984C96.0748 79.6401 96.724 75.9017 96.8828 69.647C96.8789 68.0895 96.8789 68.0895 96.875 66.5005C96.8956 65.4351 96.9163 64.3697 96.9375 63.272C96.9844 60.6599 97.0045 58.0504 97 55.438C94.03 55.108 91.06 54.778 88 54.438C88.99 56.913 88.99 56.913 90 59.438C89.4225 59.1286 88.845 58.8192 88.25 58.5005C87.5075 58.1499 86.765 57.7992 86 57.438C85.3606 57.1286 84.7213 56.8192 84.0625 56.5005C81.6452 56.1913 81.6452 56.1913 79.25 58.8755C78.5075 59.7211 77.765 60.5667 77 61.438C76.34 61.108 75.68 60.778 75 60.438C76.9732 55.8684 78.9224 53.3034 83 50.438C82.0512 50.0255 81.1025 49.613 80.125 49.188C76.8588 47.3589 76.3889 46.7012 75 43.438C83.6268 42.6708 83.6268 42.6708 86.9297 44.5161C88.3542 45.7493 89.6843 47.0894 91 48.438C91.99 48.933 91.99 48.933 93 49.438C92.01 47.788 91.02 46.138 90 44.438C91.6052 44.4982 93.2093 44.5871 94.8125 44.688C96.1525 44.7576 96.1525 44.7576 97.5195 44.8286C100 45.438 100 45.438 101.781 47.3442C102.98 49.4031 103.583 51.1032 104 53.438C103.505 49.973 103.505 49.973 103 46.438C103.66 46.438 104.32 46.438 105 46.438C110.74 57.7751 110.74 57.7751 110 64.438C109.01 62.953 109.01 62.953 108 61.438C107.914 62.0065 107.827 62.5749 107.738 63.1606C106.948 67.5013 106.139 70.6157 103.312 74.063C100.97 76.988 100.992 77.2714 101.188 81.3755C101.59 82.8914 101.59 82.8914 102 84.438C102 83.448 102 82.458 102 81.438C102.491 76.9005 104.364 74.1121 107 70.438C107.99 68.953 107.99 68.953 109 67.438C109.33 67.768 109.66 68.098 110 68.438C111.401 64.0584 111.924 59.584 110.07 55.2778C109.336 53.8817 108.572 52.4999 107.777 51.1372C107.521 50.5765 107.264 50.0157 107 49.438C107.33 48.778 107.66 48.118 108 47.438C112.621 53.7531 114.645 59.4131 113.559 67.2974C112.73 70.473 110.901 72.8012 109 75.438C109 76.758 109 78.078 109 79.438C110.98 79.933 110.98 79.933 113 80.438C113 81.098 113 81.758 113 82.438C111.35 82.768 109.7 83.098 108 83.438C108.33 84.098 108.66 84.758 109 85.438C109.41 90.0457 108.997 92.8413 106 96.438C102.812 97.7505 102.812 97.7505 100 98.438C100.227 99.1392 100.454 99.8405 100.688 100.563C101.106 104.411 100.042 106.198 98 109.438C95.8125 111.313 95.8125 111.313 94 112.438C94.495 114.201 94.495 114.201 95 116C96.4886 122.667 96.5537 129.646 96 136.438C95.34 137.428 94.68 138.418 94 139.438C90.875 139.625 90.875 139.625 88 139.438C87.67 141.088 87.34 142.738 87 144.438C85.35 144.768 83.7 145.098 82 145.438C82.99 143.458 82.99 143.458 84 141.438C83.2575 141.211 82.515 140.984 81.75 140.75C78.3645 139.135 76.9579 137.629 75 134.438C74.4934 130.892 74.4198 129.227 76.5625 126.313C77.0369 125.694 77.5113 125.075 78 124.438C77.9603 122.411 77.9603 122.411 77 120.438C75.064 119.012 75.064 119.012 72.6875 117.938C69.2047 116.147 66.5744 114.46 64 111.438C63.67 115.068 63.34 118.698 63 122.438C62.34 122.438 61.68 122.438 61 122.438C60.67 121.118 60.34 119.798 60 118.438C57.525 119.428 57.525 119.428 55 120.438C55 121.098 55 121.758 55 122.438C56.65 122.438 58.3 122.438 60 122.438C60 123.098 60 123.758 60 124.438C57.03 123.943 57.03 123.943 54 123.438C54 122.778 54 122.118 54 121.438C51.03 122.428 51.03 122.428 48 123.438C46.4235 117.617 46.4235 117.617 48.0469 114.297C48.9546 112.92 49.8952 111.564 50.8711 110.235C52.266 108.368 52.266 108.368 52 105.438C51.01 104.778 50.02 104.118 49 103.438C49 102.778 49 102.118 49 101.438C47.35 101.438 45.7 101.438 44 101.438C43.67 100.448 43.34 99.458 43 98.438C40.4213 96.9202 40.4213 96.9202 37.3125 95.563C29.9701 92.0181 24.0283 88.4765 21 80.438C20.4311 77.4406 20.1381 74.484 20 71.438C18.68 71.108 17.36 70.778 16 70.438C16.6188 69.4171 16.6188 69.4171 17.25 68.3755C18.397 65.2645 18.397 65.2645 16.1875 62.063C15.8046 61.4765 15.4218 60.8899 15.0273 60.2856C13.4178 57.3908 13.2673 54.7123 13 51.438C13.99 51.108 14.98 50.778 16 50.438C16.66 53.738 17.32 57.038 18 60.438C18 58.788 18 57.138 18 55.438C18.66 55.768 19.32 56.098 20 56.438C20 53.798 20 51.158 20 48.438C22.64 47.778 25.28 47.118 28 46.438C28.33 48.748 28.66 51.058 29 53.438C29 51.458 29 49.478 29 47.438C29.66 48.758 30.32 50.078 31 51.438C31.2475 50.3242 31.495 49.2105 31.75 48.063C32.5469 46.1294 32.5469 46.1294 34 44.438C38.8829 42.831 43.8799 42.438 49 42.438Z" fill="#2F1611"/>
<path d="M67 0.437924C67 0.767924 67 1.09792 67 1.43792C66.1855 1.57255 66.1855 1.57255 65.3545 1.7099C43.7224 5.35474 43.7224 5.35474 27.1602 18.9496C23.8083 23.974 21.188 28.4978 20 34.4379C20.5827 34.184 21.1653 33.93 21.7656 33.6684C45.2807 23.7965 73.2197 24.0323 97.9653 29.0366C99.8933 29.4169 101.835 29.7226 103.777 30.0239C106.765 30.5709 109.283 31.0843 112 32.4379C113.294 34.392 113.778 36.0389 114.301 38.3168C115.406 41.6707 117.82 43.4874 120.344 45.8559C123.723 49.0834 124.937 51.2558 125.188 55.9379C123.689 60.3559 121.851 61.3661 117.91 63.5903C116 64.4379 116 64.4379 114 64.4379C113.723 63.5111 113.446 62.5843 113.16 61.6293C112.617 59.833 112.617 59.833 112.062 58.0004C111.523 56.208 111.523 56.208 110.973 54.3793C110.291 51.5792 110.291 51.5792 109 50.4379C109.495 51.4485 109.99 52.4592 110.5 53.5004C113.033 59.4557 112.319 64.4942 110 70.4379C109.34 70.4379 108.68 70.4379 108 70.4379C104.755 74.6662 103 78.0945 103 83.4379C103.66 83.7679 104.32 84.0979 105 84.4379C104.01 84.4379 103.02 84.4379 102 84.4379C100 81.4379 100 81.4379 100.125 78.5629C101.115 75.0273 102.581 73.1588 105 70.4379C106.148 68.1416 106.308 66.3609 106.562 63.8129C106.688 62.587 106.688 62.587 106.816 61.3364C106.877 60.7099 106.938 60.0834 107 59.4379C107.66 60.0979 108.32 60.7579 109 61.4379C108.503 56.4649 107.447 52.7999 105 48.4379C105 49.0979 105 49.7579 105 50.4379C104.685 51.7758 104.354 53.11 104 54.4379C103.67 54.4379 103.34 54.4379 103 54.4379C102.691 53.3035 102.381 52.1692 102.062 51.0004C101.371 47.6502 101.371 47.6502 100 46.4379C98.4853 46.206 96.9625 46.0258 95.4375 45.8754C94.6112 45.7916 93.7849 45.7078 92.9336 45.6215C92.2955 45.5609 91.6574 45.5003 91 45.4379C91.99 47.4179 91.99 47.4179 93 49.4379C88.25 47.769 88.25 47.769 86.8438 45.9067C83.8812 43.5467 80.4549 43.86 76.8125 43.7504C76.0822 43.7163 75.352 43.6821 74.5996 43.6469C72.3996 43.5514 70.2015 43.4872 68 43.4379C66.8618 43.4116 66.8618 43.4116 65.7007 43.3847C63.8005 43.3597 61.8998 43.3935 60 43.4379C58.6912 44.5276 58.6912 44.5276 58.8125 47.1879C58.9981 50.4054 59.6389 52.5455 61 55.4379C59.35 55.4379 57.7 55.4379 56 55.4379C56 54.7779 56 54.1179 56 53.4379C56.66 53.4379 57.32 53.4379 58 53.4379C57.34 52.5304 56.68 51.6229 56 50.6879C54 47.4379 54 47.4379 54 43.4379C53.01 43.1079 52.02 42.7779 51 42.4379C50.67 43.7579 50.34 45.0779 50 46.4379C49.505 44.4579 49.505 44.4579 49 42.4379C44.05 43.4279 39.1 44.4179 34 45.4379C33.34 47.7479 32.68 50.0579 32 52.4379C31.34 52.1079 30.68 51.7779 30 51.4379C30 53.0879 30 54.7379 30 56.4379C29.34 56.1079 28.68 55.7779 28 55.4379C28 52.4679 28 49.4979 28 46.4379C26.8553 46.9329 26.8553 46.9329 25.6875 47.4379C23 48.4379 23 48.4379 20 48.4379C20.33 51.4079 20.66 54.3779 21 57.4379C20.34 57.1079 19.68 56.7779 19 56.4379C19 58.0879 19 59.7379 19 61.4379C16.2027 59.3704 15.9731 58.2935 15.3125 54.7504C15.2094 53.6573 15.1062 52.5642 15 51.4379C14.34 51.4379 13.68 51.4379 13 51.4379C13.624 53.1675 14.2492 54.8965 14.875 56.6254C15.3971 58.0698 15.3971 58.0698 15.9297 59.5434C16.9099 62.1943 17.9372 64.8192 19 67.4379C17.68 68.4279 16.36 69.4179 15 70.4379C12.69 69.4479 10.38 68.4579 8 67.4379C8 66.7779 8 66.1179 8 65.4379C6.85531 65.0667 6.85531 65.0667 5.6875 64.6879C2.65967 63.2796 1.42688 62.4596 0 59.4379C0.725823 53.1958 5.63475 48.6162 10 44.4379C11.0931 43.8604 12.1862 43.2829 13.3125 42.6879C17.2425 39.3977 17.226 35.7274 18.1758 30.8246C20.267 22.2319 26.0362 14.7684 33 9.43792C44.1956 2.73644 53.9354 -0.0016335 67 0.437924Z" fill="#888A6C"/>
<path d="M95.25 7.12541C103.597 14.0841 108.388 21.1761 112 31.4379C108.806 32.5025 107.828 32.3876 104.648 31.6957C103.796 31.5165 102.944 31.3374 102.066 31.1528C100.734 30.8608 100.734 30.8608 99.375 30.5629C74.2754 25.139 46.0276 24.5232 22 34.4379C20.515 34.9329 20.515 34.9329 19 35.4379C21.1574 25.078 26.3112 16.812 34.875 10.5004C51.7416 -0.191151 77.9942 -4.97385 95.25 7.12541Z" fill="#E3DFCA"/>
<path d="M38.0002 156.438C47.6761 157.712 57.3415 159.039 67.0002 160.438C67.0002 160.768 67.0002 161.098 67.0002 161.438C63.6044 161.467 60.2086 161.485 56.8127 161.5C55.853 161.509 54.8933 161.517 53.9045 161.526C52.9732 161.529 52.0418 161.532 51.0823 161.536C49.8019 161.543 49.8019 161.543 48.4956 161.552C45.9078 161.434 43.5236 161.009 41.0002 160.438C41.3302 161.428 41.6602 162.418 42.0002 163.438C41.3402 163.438 40.6802 163.438 40.0002 163.438C39.973 165.792 39.9533 168.146 39.9377 170.5C39.9261 171.811 39.9145 173.122 39.9026 174.473C39.9192 178.358 39.9192 178.358 40.4963 181.848C41.107 186.198 41.1465 190.427 41.1252 194.813C41.1291 195.632 41.133 196.45 41.1369 197.293C41.127 203.311 41.127 203.311 40.0002 204.438C39.9364 206.805 39.9339 209.143 39.9729 211.508C39.9855 212.977 39.9979 214.446 40.01 215.915C40.0347 218.232 40.0625 220.549 40.0962 222.866C40.1266 225.101 40.1442 227.336 40.1604 229.571C40.1738 230.253 40.1873 230.936 40.2012 231.639C40.2252 236.316 39.4459 240.045 38.0002 244.438C41.4382 244.257 41.4382 244.257 45.0002 243.438C47.5858 240.382 47.4666 236.296 48.0002 232.438C48.1768 231.234 48.3534 230.03 48.5354 228.79C48.7094 227.56 48.8834 226.33 49.0627 225.063C49.2393 223.838 49.4159 222.614 49.5979 221.352C49.8856 218.553 50.0179 216.068 49.9651 213.286C49.897 207.217 50.7442 201.262 51.5002 195.25C51.7847 192.966 52.0661 190.681 52.344 188.395C52.5325 186.894 52.5325 186.894 52.7248 185.363C53.0085 182.35 53.162 179.461 53.0002 176.438C51.3669 174.722 51.3669 174.722 49.1252 173.688C46.67 172.368 44.9894 171.427 43.0002 169.438C46.2991 169.822 48.525 170.095 51.2502 172.063C57.669 175.272 66.3439 172.048 73.0002 170.438C71.7632 171.838 70.5263 173.237 69.2893 174.637C64.9649 180.678 66.019 186.435 67.0002 193.438C67.3324 194.901 67.6847 196.361 68.0627 197.813C68.9592 201.497 69.0677 204.836 69.0002 208.625C68.9078 215.125 69.2724 221.524 69.8127 228C69.883 228.953 69.9532 229.905 70.0256 230.886C70.6138 237.647 70.6138 237.647 74.0002 243.438C74.6602 243.438 75.3202 243.438 76.0002 243.438C78.621 238.461 78.368 233.361 78.5002 227.875C78.7674 219.893 79.3003 212.261 81.0002 204.438C80.0102 204.438 79.0202 204.438 78.0002 204.438C78.0911 203.343 78.0911 203.343 78.1838 202.226C78.4606 198.859 78.7304 195.492 79.0002 192.125C79.1433 190.404 79.1433 190.404 79.2893 188.647C79.8515 181.559 80.1301 174.548 80.0002 167.438C78.6802 167.438 77.3602 167.438 76.0002 167.438C76.0002 166.778 76.0002 166.118 76.0002 165.438C74.6802 165.108 73.3602 164.778 72.0002 164.438C72.6602 164.005 73.3202 163.572 74.0002 163.125C74.6602 162.569 75.3202 162.012 76.0002 161.438C76.0002 160.448 76.0002 159.458 76.0002 158.438C77.9802 158.108 79.9602 157.778 82.0002 157.438C82.9958 161.555 83.1017 165.381 83.0627 169.61C83.0589 170.292 83.0551 170.974 83.0512 171.676C83.035 174.571 83.007 177.467 82.9797 180.362C82.8715 190.919 82.8715 190.919 83.7688 201.429C84.2001 205.173 84.1462 208.924 84.1252 212.688C84.1247 213.515 84.1243 214.342 84.1238 215.194C84.0969 219.958 83.8559 224.631 83.3752 229.375C82.7698 236.044 82.9817 243.431 86.051 249.524C87.7428 252.935 87.3591 255.669 87.0002 259.438C84.7658 261.768 83.3681 262.386 80.1604 262.836C79.1381 262.829 78.1159 262.821 77.0627 262.813C75.5332 262.825 75.5332 262.825 73.9729 262.836C70.5905 262.383 68.6853 261.529 66.0002 259.438C65.1117 253.773 66.8395 249.57 69.0002 244.438C68.3402 244.438 67.6802 244.438 67.0002 244.438C67.0234 243.287 67.0466 242.136 67.0705 240.95C67.2195 230.239 66.6375 219.845 65.3342 209.219C64.9467 205.992 64.5898 202.762 64.2346 199.532C63.9693 197.146 63.7037 194.761 63.4377 192.375C63.311 191.226 63.1843 190.077 63.0537 188.893C62.9316 187.824 62.8096 186.754 62.6838 185.653C62.5761 184.695 62.4684 183.737 62.3574 182.75C62.1177 180.418 62.1177 180.418 61.0002 178.438C60.3402 178.438 59.6802 178.438 59.0002 178.438C56.9495 187.102 56.1969 195.843 55.4377 204.688C55.2494 206.842 55.0594 208.995 54.8669 211.149C54.6938 213.092 54.5255 215.035 54.3574 216.978C54.1305 219.176 53.8408 221.37 53.468 223.548C52.6875 228.37 52.8158 233.188 52.8127 238.063C52.7944 239.618 52.7944 239.618 52.7756 241.204C52.7737 242.201 52.7717 243.199 52.7698 244.227C52.7636 245.584 52.7636 245.584 52.7573 246.968C53.0157 249.596 53.8067 251.118 55.0002 253.438C54.8752 257.063 54.8752 257.063 54.0002 260.438C50.8144 262.698 47.8266 262.736 44.0002 262.75C42.969 262.767 41.9377 262.784 40.8752 262.801C37.6306 262.391 36.2546 261.788 34.0002 259.438C33.4683 254.03 34.2911 250.565 36.0002 245.438C37.0861 238.781 36.9267 232.534 36.2619 225.852C35.4562 215.341 35.9011 204.779 36.6443 194.278C37.1305 186.762 37.0535 179.25 36.9631 171.723C36.9182 166.503 37.0784 161.58 38.0002 156.438Z" fill="#7D6238"/>
<path d="M44 101.438C46.1875 101.063 46.1875 101.063 49 101.438C50.9902 103.278 52.3899 105.23 54 107.438C53.3812 108.18 52.7625 108.923 52.125 109.688C48.3768 114.539 47.7607 117.216 48 123.438C48.99 122.778 49.98 122.118 51 121.438C51.99 121.438 52.98 121.438 54 121.438C54 122.098 54 122.758 54 123.438C55.98 123.768 57.96 124.098 60 124.438C60 123.778 60 123.118 60 122.438C58.35 122.438 56.7 122.438 55 122.438C55 121.778 55 121.118 55 120.438C56.98 119.448 58.96 118.458 61 117.438C61 119.088 61 120.738 61 122.438C61.66 122.438 62.32 122.438 63 122.438C62.9794 121.18 62.9587 119.922 62.9375 118.625C62.8911 115.797 63.0831 114.189 64 111.438C67 112.438 67 112.438 68.6875 114.188C71.7816 117.198 75.2997 119.247 79 121.438C78.3872 124.4 77.7463 125.819 76 128.438C75.7868 131.848 75.9151 134.183 77 137.438C71.7612 136.887 67.0265 136.009 62 134.438C63.8226 136.261 66.4576 136.916 68.8125 137.875C72.2755 139.289 75.6813 140.71 79 142.438C79 143.758 79 145.078 79 146.438C79.66 146.438 80.32 146.438 81 146.438C81.75 148.625 81.75 148.625 82 151.438C80.5625 154.188 80.5625 154.188 78 156.438C75.2663 157.151 72.8494 157.296 70 157.438C70 156.778 70 156.118 70 155.438C69.3619 155.594 68.7238 155.75 68.0664 155.911C67.2401 156.105 66.4138 156.3 65.5625 156.5C64.7388 156.698 63.9151 156.895 63.0664 157.098C62.3845 157.21 61.7026 157.322 61 157.438C60 156.438 60 156.438 59.9023 152.84C59.9081 151.352 59.9211 149.864 59.9375 148.375C59.9581 145.756 59.9787 143.137 60 140.438C59.67 146.048 59.34 151.658 59 157.438C46.8979 155.39 46.8979 155.39 43 150.438C41.6653 146.806 40.8439 143.317 41 139.438C41.9961 137.676 41.9961 137.676 44 136.438C46.6101 135.905 49.0526 135.519 51.6875 135.25C52.3894 135.169 53.0913 135.087 53.8144 135.002C55.5417 134.803 57.2707 134.619 59 134.438C58.67 133.778 58.34 133.118 58 132.438C56.0819 132.685 56.0819 132.685 54.125 132.938C46.1104 133.76 38.0457 133.517 30 133.438C27.3071 128.504 26.6385 125.989 28 120.438C28.66 119.448 29.32 118.458 30 117.438C30.1237 116.51 30.2475 115.582 30.375 114.625C31.2994 109.911 33.582 106.812 37 103.5C39 102.438 39 102.438 41.125 102.438C43.7937 103.861 44.1358 105.629 45 108.438C44.67 106.128 44.34 103.818 44 101.438Z" fill="#AF9467"/>
<path d="M75 43.4382C83.6268 42.671 83.6268 42.671 86.9297 44.5163C88.3542 45.7495 89.6843 47.0896 91 48.4382C91.66 48.7682 92.32 49.0982 93 49.4382C92.01 47.7882 91.02 46.1382 90 44.4382C91.6052 44.4984 93.2093 44.5873 94.8125 44.6882C96.1525 44.7578 96.1525 44.7578 97.5195 44.8288C100 45.4382 100 45.4382 101.781 47.3445C102.98 49.4033 103.583 51.1034 104 53.4382C103.505 49.9732 103.505 49.9732 103 46.4382C103.66 46.4382 104.32 46.4382 105 46.4382C110.74 57.7753 110.74 57.7753 110 64.4382C109.34 63.4482 108.68 62.4582 108 61.4382C107.914 62.0067 107.827 62.5752 107.738 63.1609C106.948 67.5015 106.139 70.6159 103.312 74.0632C100.97 76.9882 100.992 77.2716 101.188 81.3757C101.456 82.3863 101.724 83.397 102 84.4382C102 83.4482 102 82.4582 102 81.4382C102.491 76.9007 104.364 74.1124 107 70.4382C107.66 69.4482 108.32 68.4582 109 67.4382C109.33 67.7682 109.66 68.0982 110 68.4382C111.401 64.0586 111.924 59.5842 110.07 55.2781C109.335 53.8819 108.572 52.5001 107.777 51.1374C107.521 50.5767 107.264 50.0159 107 49.4382C107.33 48.7782 107.66 48.1182 108 47.4382C112.621 53.7533 114.645 59.4133 113.559 67.2976C112.73 70.4733 110.901 72.8014 109 75.4382C109 76.7582 109 78.0782 109 79.4382C110.32 79.7682 111.64 80.0982 113 80.4382C113 81.0982 113 81.7582 113 82.4382C110.525 82.9332 110.525 82.9332 108 83.4382C108.33 84.0982 108.66 84.7582 109 85.4382C109.41 90.0459 108.997 92.8415 106 96.4382C102.812 97.7507 102.812 97.7507 100 98.4382C100.34 99.4901 100.34 99.4901 100.688 100.563C101.106 104.411 100.042 106.198 98 109.438C95.8125 111.313 95.8125 111.313 94 112.438C94.33 113.614 94.66 114.789 95 116.001C96.4886 122.667 96.5538 129.647 96 136.438C95.34 137.428 94.68 138.418 94 139.438C90.875 139.626 90.875 139.626 88 139.438C87.67 141.088 87.34 142.738 87 144.438C84.525 144.933 84.525 144.933 82 145.438C82.66 144.118 83.32 142.798 84 141.438C83.2575 141.211 82.515 140.984 81.75 140.751C78.3645 139.135 76.9579 137.629 75 134.438C74.3749 130.688 74.7661 128.916 76.4375 125.501C79.3304 123.172 79.948 123.13 83.5 123.376C86.5219 123.909 88.025 124.455 90.625 126.188C92 128.438 92 128.438 91.875 131.063C91 133.438 91 133.438 89 135.438C90.32 135.768 91.64 136.098 93 136.438C94.1077 129.571 93.7008 124.171 92 117.438C91.5462 118.139 91.0925 118.841 90.625 119.563C88 121.438 88 121.438 85.5078 121.259C82.9748 120.735 80.489 120.141 78 119.438C77.9136 118.823 77.8273 118.208 77.7383 117.575C76.9475 112.383 76.9475 112.383 73.6875 108.501C72.8006 108.15 71.9138 107.799 71 107.438C70.0719 107.046 69.1437 106.654 68.1875 106.251C67.4656 105.983 66.7437 105.714 66 105.438C66.33 104.778 66.66 104.118 67 103.438C69.31 103.768 71.62 104.098 74 104.438C74 103.778 74 103.118 74 102.438C74.66 102.438 75.32 102.438 76 102.438C76 101.778 76 101.118 76 100.438C74.02 100.108 72.04 99.7782 70 99.4382C71 97.4382 71 97.4382 73.5039 96.5866C74.5132 96.3314 75.5226 96.0762 76.5625 95.8132C77.5744 95.5528 78.5863 95.2924 79.6289 95.0241C80.4114 94.8308 81.1938 94.6374 82 94.4382C82 95.4282 82 96.4182 82 97.4382C81.2575 98.026 81.2575 98.026 80.5 98.6257C77.9773 101.674 78.6939 104.582 79 108.438C79.66 109.098 80.32 109.758 81 110.438C81.99 109.943 81.99 109.943 83 109.438C84.485 110.428 84.485 110.428 86 111.438C85.01 113.088 84.02 114.738 83 116.438C83.66 115.696 84.32 114.953 85 114.188C87.7334 111.416 90.6829 109.963 94.2305 108.43C96.3366 107.426 96.3366 107.426 98 104.438C97.6827 100.799 97.6827 100.799 97 97.4382C99.64 96.1182 102.28 94.7982 105 93.4382C105 91.4582 105 89.4782 105 87.4382C103.02 86.7782 101.04 86.1182 99 85.4382C98.67 85.7682 98.34 86.0982 98 86.4382C96.3338 86.4788 94.6661 86.4809 93 86.4382C93.6187 85.6132 94.2375 84.7882 94.875 83.9382C96.6204 81.3721 97.4235 79.1568 98.0625 76.1257C98.3719 74.9088 98.6813 73.692 99 72.4382C99.99 72.1082 100.98 71.7782 102 71.4382C103.144 69.1511 103.103 67.8456 103.062 65.3132C103.042 64.0345 103.021 62.7557 103 61.4382C101.35 61.1082 99.7 60.7782 98 60.4382C97.67 59.1182 97.34 57.7982 97 56.4382C94.03 55.7782 91.06 55.1182 88 54.4382C88.66 56.0882 89.32 57.7382 90 59.4382C89.4225 59.1288 88.845 58.8195 88.25 58.5007C87.5075 58.1501 86.765 57.7995 86 57.4382C85.3606 57.1288 84.7213 56.8195 84.0625 56.5007C81.6452 56.1915 81.6452 56.1915 79.25 58.8757C78.5075 59.7213 77.765 60.567 77 61.4382C76.34 61.1082 75.68 60.7782 75 60.4382C76.9732 55.8686 78.9224 53.3036 83 50.4382C82.0513 50.0257 81.1025 49.6132 80.125 49.1882C76.8588 47.3592 76.3889 46.7014 75 43.4382Z" fill="#1E100E"/>
<path d="M49 42.438C49.495 43.923 49.495 43.923 50 45.438C50.33 44.448 50.66 43.458 51 42.438C52.32 42.768 53.64 43.098 55 43.438C55.1237 44.3455 55.2475 45.253 55.375 46.188C55.9211 49.0277 56.5726 50.9639 58 53.438C57.34 53.438 56.68 53.438 56 53.438C56.66 55.088 57.32 56.738 58 58.438C55.5064 57.2342 53.3186 55.9837 51 54.438C47.4617 54.2121 44.3909 54.3946 41 55.438C41.33 54.448 41.66 53.458 42 52.438C42.66 52.438 43.32 52.438 44 52.438C43.01 51.448 42.02 50.458 41 49.438C39.35 51.418 37.7 53.398 36 55.438C35.34 55.108 34.68 54.778 34 54.438C33.2987 55.2836 32.5975 56.1292 31.875 57.0005C29 59.438 29 59.438 25.6875 59.2505C24.8006 58.9824 23.9137 58.7142 23 58.438C22.0247 63.152 22.0247 63.152 22.75 67.813C23.9972 69.7477 23.9972 69.7477 27 70.438C27.8142 73.0932 28.2723 75.7493 28.7656 78.481C31.7038 85.5194 38.8671 88.7216 45.5 91.688C46.2206 92.0257 46.9412 92.3635 47.6836 92.7114C52.0547 94.7191 56.3427 96.2369 61 97.438C57.9938 100.444 55.1762 100.034 51 100.438C52.0725 100.892 53.145 101.345 54.25 101.813C56.8806 102.939 59.46 104.117 62 105.438C62 107.748 62 110.058 62 112.438C61.01 111.448 61.01 111.448 60 110.438C58.02 111.428 58.02 111.428 56 112.438C56 111.448 56 110.458 56 109.438C54.0002 110.229 54.0002 110.229 52 111.438C51.505 112.923 51.505 112.923 51 114.438C50.34 114.438 49.68 114.438 49 114.438C50.1245 111.466 51.2229 109.104 53 106.438C52.34 105.984 51.68 105.53 51 105.063C50.34 104.527 49.68 103.99 49 103.438C49 102.778 49 102.118 49 101.438C47.35 101.438 45.7 101.438 44 101.438C43.67 100.448 43.34 99.458 43 98.438C40.4213 96.9202 40.4213 96.9202 37.3125 95.563C29.9701 92.0181 24.0283 88.4765 21 80.438C20.4311 77.4406 20.1381 74.484 20 71.438C18.68 71.108 17.36 70.778 16 70.438C16.6188 69.4171 16.6188 69.4171 17.25 68.3755C18.397 65.2645 18.397 65.2645 16.1875 62.063C15.8046 61.4765 15.4218 60.8899 15.0273 60.2856C13.4178 57.3908 13.2673 54.7123 13 51.438C13.99 51.108 14.98 50.778 16 50.438C16.66 53.738 17.32 57.038 18 60.438C18 58.788 18 57.138 18 55.438C18.66 55.768 19.32 56.098 20 56.438C20 53.798 20 51.158 20 48.438C22.64 47.778 25.28 47.118 28 46.438C28.33 48.748 28.66 51.058 29 53.438C29 51.458 29 49.478 29 47.438C29.66 48.758 30.32 50.078 31 51.438C31.2475 50.3242 31.495 49.2105 31.75 48.063C32.5469 46.1294 32.5469 46.1294 34 44.438C38.8829 42.831 43.8799 42.438 49 42.438Z" fill="#2E1511"/>
<path d="M67.0001 0.437896C67.0001 0.767896 67.0001 1.0979 67.0001 1.4379C66.4571 1.52765 65.914 1.6174 65.3546 1.70987C43.7225 5.35472 43.7225 5.35471 27.1602 18.9496C23.8084 23.9739 21.1881 28.4978 20.0001 34.4379C20.5827 34.184 21.1654 33.93 21.7657 33.6684C49.6377 21.9674 83.3945 24.2399 112 32.4379C112.495 36.3979 112.495 36.3979 113 40.4379C112.254 40.2917 111.509 40.1454 110.74 39.9948C107.327 39.3272 103.914 38.6638 100.5 38.0004C99.327 37.7703 98.154 37.5402 96.9454 37.3031C72.0109 32.4703 46.9875 33.0173 22.6876 40.6684C20.0001 41.4379 20.0001 41.4379 17.0001 41.4379C16.2079 32.5253 19.6325 24.1976 25.2501 17.3441C36.9617 4.58688 49.925 -0.136592 67.0001 0.437896Z" fill="#6C6636"/>
<path d="M82.0001 157.438C82.9956 161.555 83.1016 165.381 83.0626 169.61C83.0588 170.292 83.055 170.974 83.0511 171.676C83.0349 174.571 83.0069 177.467 82.9795 180.362C82.8713 190.919 82.8713 190.919 83.7686 201.429C84.2 205.173 84.1461 208.924 84.1251 212.688C84.1246 213.515 84.1241 214.342 84.1236 215.194C84.0968 219.958 83.8558 224.631 83.3751 229.375C82.7696 236.044 82.9815 243.431 86.0508 249.524C87.7426 252.935 87.359 255.669 87.0001 259.438C84.7656 261.768 83.3679 262.386 80.1602 262.836C79.138 262.829 78.1158 262.821 77.0626 262.813C76.0429 262.821 75.0233 262.828 73.9727 262.836C70.5903 262.383 68.6852 261.529 66.0001 259.438C65.1115 253.773 66.8394 249.57 69.0001 244.438C68.3401 244.438 67.6801 244.438 67.0001 244.438C67.0117 243.194 67.0233 241.95 67.0352 240.668C67.0918 231.872 67.1007 223.184 66.0001 214.438C66.3301 215.098 66.6601 215.758 67.0001 216.438C67.6601 216.438 68.3201 216.438 69.0001 216.438C69.0449 217.078 69.0898 217.719 69.136 218.378C69.3481 221.295 69.5801 224.21 69.8126 227.125C69.8828 228.133 69.9531 229.14 70.0254 230.178C70.5057 237.33 70.5057 237.33 74.0001 243.438C74.6601 243.438 75.3201 243.438 76.0001 243.438C78.6208 238.461 78.3678 233.361 78.5001 227.875C78.7672 219.893 79.3001 212.261 81.0001 204.438C80.0101 204.438 79.0201 204.438 78.0001 204.438C78.0606 203.708 78.1212 202.978 78.1837 202.226C78.4604 198.859 78.7303 195.492 79.0001 192.125C79.1431 190.404 79.1431 190.404 79.2891 188.647C79.8514 181.559 80.1299 174.548 80.0001 167.438C78.6801 167.438 77.3601 167.438 76.0001 167.438C76.0001 166.778 76.0001 166.118 76.0001 165.438C74.6801 165.108 73.3601 164.778 72.0001 164.438C72.6601 164.005 73.3201 163.572 74.0001 163.125C74.9901 162.29 74.9901 162.29 76.0001 161.438C76.0001 160.448 76.0001 159.458 76.0001 158.438C78.0756 157.885 79.8437 157.438 82.0001 157.438Z" fill="#7C6137"/>
<path d="M116 43.4378C117.393 45.3968 118.736 47.3931 120 49.4378C118.65 49.0569 118.65 49.0569 117.273 48.6683C101.251 44.3181 84.5876 42.0434 68 41.4378C67.2988 41.4106 66.5975 41.3834 65.875 41.3553C46.7294 40.7037 27.4246 42.8854 10.1875 51.8128C9.13562 52.3491 8.08375 52.8853 7 53.4378C6.34 53.1078 5.68 52.7778 5 52.4378C14.5589 41.6774 25.2842 38.287 39 35.4378C40.0648 35.2097 41.1295 34.9815 42.2266 34.7464C63.4142 30.9873 97.5693 29.7431 116 43.4378Z" fill="#E2DDC8"/>
<path d="M76 100.438C76 101.098 76 101.758 76 102.438C75.34 102.438 74.68 102.438 74 102.438C74 103.098 74 103.758 74 104.438C71.69 104.438 69.38 104.438 67 104.438C67.5362 104.685 68.0725 104.933 68.625 105.188C71.6763 106.794 74.3219 108.236 77 110.438C77.875 114.188 77.875 114.188 78 117.438C79.4334 117.97 80.872 118.488 82.3125 119C83.113 119.29 83.9135 119.58 84.7383 119.879C87.1433 120.687 87.1433 120.687 90 119.438C91.6854 117.441 91.6854 117.441 93 115.438C93.3922 117.978 93.764 120.518 94.125 123.063C94.2371 123.776 94.3493 124.489 94.4648 125.223C95.1023 129.855 94.8796 133.024 93 137.438C91.35 137.108 89.7 136.778 88 136.438C88.7734 135.324 88.7734 135.324 89.5625 134.188C91.2137 131.629 91.2137 131.629 90.8125 129.25C90.0413 127.242 90.0413 127.242 88 125.438C86.6697 125.562 86.6697 125.562 85.3125 125.688C81.0957 125.37 79.852 123.906 76.8672 121.094C74.3806 118.888 71.6616 117.281 68.7969 115.614C67 114.438 67 114.438 64 111.438C63.67 115.068 63.34 118.698 63 122.438C62.34 122.438 61.68 122.438 61 122.438C60.67 121.118 60.34 119.798 60 118.438C58.35 119.098 56.7 119.758 55 120.438C55 121.098 55 121.758 55 122.438C56.65 122.438 58.3 122.438 60 122.438C60 123.098 60 123.758 60 124.438C58.02 124.108 56.04 123.778 54 123.438C54 122.778 54 122.118 54 121.438C52.02 122.098 50.04 122.758 48 123.438C46.875 116.688 46.875 116.688 48 114.438C48.99 114.438 49.98 114.438 51 114.438C51.33 113.118 51.66 111.798 52 110.438C53.32 110.108 54.64 109.778 56 109.438C56.33 110.098 56.66 110.758 57 111.438C59.0162 110.722 59.0162 110.722 61 109.438C61.8053 107.388 61.8053 107.388 62 105.438C61.4431 105.314 60.8862 105.19 60.3125 105.063C56.0098 103.9 53.0687 102.693 50 99.4379C68.1753 97.0542 68.1753 97.0542 76 100.438Z" fill="#414A26"/>
<path d="M67 0.438032C78.1309 -0.272451 88.3474 1.37099 97.1289 8.69194C104.465 15.5382 108.651 21.9213 112 31.438C108.806 32.5026 107.828 32.3877 104.648 31.6958C103.796 31.5167 102.944 31.3375 102.066 31.1529C100.734 30.8609 100.734 30.8609 99.375 30.563C74.2754 25.1391 46.0276 24.5233 22 34.438C20.515 34.933 20.515 34.933 19 35.438C21.1574 25.0781 26.3112 16.8121 34.875 10.5005C46.7918 2.86865 46.7918 2.86865 52.2891 3.84428C52.8537 4.04022 53.4183 4.23616 54 4.43803C53.3593 4.70616 52.7187 4.97428 52.0586 5.25053C45.6913 8.13527 40.7403 11.3986 37 17.438C36.2908 20.0879 36.2908 20.0879 36 22.438C39.4101 23.4607 42.5933 23.6061 46.1445 23.6841C47.3678 23.7155 48.591 23.747 49.8513 23.7793C51.1585 23.8111 52.4657 23.8428 53.8125 23.8755C72.0627 24.3932 90.1768 25.2145 108 29.438C105.466 20.4834 99.7836 12.3441 91.75 7.43803C84.1273 3.74705 75.358 2.40989 67 1.43803C67 1.10803 67 0.778032 67 0.438032Z" fill="#C5BE9A"/>
<path d="M75 43.4382C83.6268 42.671 83.6268 42.671 86.9297 44.5163C88.3542 45.7495 89.6843 47.0896 91 48.4382C91.66 48.7682 92.32 49.0982 93 49.4382C92.01 47.7882 91.02 46.1382 90 44.4382C91.6052 44.4984 93.2093 44.5873 94.8125 44.6882C96.1525 44.7578 96.1525 44.7578 97.5195 44.8288C100 45.4382 100 45.4382 101.781 47.3445C102.98 49.4033 103.583 51.1034 104 53.4382C103.67 51.1282 103.34 48.8182 103 46.4382C103.66 46.4382 104.32 46.4382 105 46.4382C110.74 57.7753 110.74 57.7753 110 64.4382C109.34 63.4482 108.68 62.4582 108 61.4382C107.914 62.0067 107.827 62.5752 107.738 63.1609C106.948 67.5015 106.139 70.6159 103.312 74.0632C100.97 76.9882 100.992 77.2716 101.188 81.3757C101.456 82.3863 101.724 83.397 102 84.4382C103.98 83.9432 103.98 83.9432 106 83.4382C107.354 86.147 107.065 88.4475 107 91.4382C106.794 90.8195 106.587 90.2007 106.375 89.5632C104.452 86.5917 102.334 86.308 99 85.4382C98.67 85.7682 98.34 86.0982 98 86.4382C96.3338 86.4788 94.6661 86.4809 93 86.4382C93.6187 85.6132 94.2375 84.7882 94.875 83.9382C96.6204 81.3721 97.4235 79.1568 98.0625 76.1257C98.3719 74.9088 98.6812 73.692 99 72.4382C99.99 72.1082 100.98 71.7782 102 71.4382C103.144 69.1511 103.103 67.8456 103.062 65.3132C103.042 64.0345 103.021 62.7557 103 61.4382C101.35 61.1082 99.7 60.7782 98 60.4382C97.67 59.1182 97.34 57.7982 97 56.4382C94.03 55.7782 91.06 55.1182 88 54.4382C88.66 56.0882 89.32 57.7382 90 59.4382C89.4225 59.1288 88.845 58.8195 88.25 58.5007C87.5075 58.1501 86.765 57.7995 86 57.4382C85.3606 57.1288 84.7212 56.8195 84.0625 56.5007C81.6452 56.1915 81.6452 56.1915 79.25 58.8757C78.5075 59.7213 77.765 60.567 77 61.4382C76.34 61.1082 75.68 60.7782 75 60.4382C76.9732 55.8686 78.9224 53.3036 83 50.4382C82.0512 50.0257 81.1025 49.6132 80.125 49.1882C76.8588 47.3592 76.3889 46.7014 75 43.4382Z" fill="#25120F"/>
<path d="M97.0001 56.438C97.9901 56.933 97.9901 56.933 99.0001 57.438C99.6251 59.5005 99.6251 59.5005 100 61.438C100.99 61.108 101.98 60.778 103 60.438C104.877 62.3144 104.18 64.936 104.231 67.4302C104 69.438 104 69.438 102 72.438C101.01 72.438 100.02 72.438 99.0001 72.438C98.9176 73.6342 98.8351 74.8305 98.7501 76.063C98.2233 80.4818 96.7014 82.9524 94.0001 86.438C94.4951 87.428 94.4951 87.428 95.0001 88.438C97.9701 88.108 100.94 87.778 104 87.438C104.495 88.428 104.495 88.428 105 89.438C104.443 89.5128 103.886 89.5875 103.313 89.6646C96.9111 90.7675 92.8773 93.2119 88.0001 97.438C88.0001 95.128 88.0001 92.818 88.0001 90.438C87.3594 90.8479 86.7187 91.2578 86.0587 91.6802C77.9179 96.7515 70.6982 99.7099 61.0001 98.438C50.042 95.5297 36.0608 90.7004 28.9454 81.3481C27.2237 77.8692 27.0175 74.2725 27.0001 70.438C26.3671 70.3065 25.7342 70.175 25.0821 70.0396C23.0001 69.438 23.0001 69.438 21.6876 67.813C20.7262 64.492 21.3551 61.7918 22.0001 58.438C26.7501 57.313 26.7501 57.313 29.0001 58.438C28.9653 59.272 28.9305 60.106 28.8946 60.9653C28.5976 72.1628 28.5976 72.1628 33.2305 82.0747C40.9842 89.669 55.6244 95.6508 66.3126 95.813C75.4889 95.6119 83.3502 91.6559 90.0001 85.438C90.5075 84.9901 91.0149 84.5423 91.5377 84.0808C95.9571 79.7014 96.7198 76.1379 96.8829 70.0024C96.879 68.5165 96.879 68.5165 96.8751 67.0005C96.8957 65.9828 96.9163 64.9651 96.9376 63.9165C96.9844 61.4228 97.0045 58.932 97.0001 56.438Z" fill="#AD230E"/>
<path d="M44 101.438C46.1875 101.063 46.1875 101.063 49 101.438C50.9902 103.278 52.3899 105.23 54 107.438C53.3812 108.18 52.7625 108.923 52.125 109.688C48.3768 114.539 47.7606 117.216 48 123.438C44.25 124.563 44.25 124.563 42 123.438C39.643 124.381 37.3096 125.384 35 126.438C34.01 126.768 33.02 127.098 32 127.438C30.7912 129.438 30.7912 129.438 30 131.438C28 130.438 28 130.438 27.25 128.25C26.9446 124.815 27.7958 122.649 29 119.438C29.1237 118.654 29.2475 117.87 29.375 117.063C30.6041 111.901 32.7948 107.673 36.5 103.875C39 102.438 39 102.438 41.1875 102.375C43.7553 103.881 44.1467 105.665 45 108.438C44.67 106.128 44.34 103.818 44 101.438Z" fill="#D6CEB2"/>
<path d="M16 40.438C16.66 41.098 17.32 41.758 18 42.438C17.4573 42.8247 16.9146 43.2114 16.3555 43.6099C15.2823 44.391 15.2823 44.391 14.1875 45.188C13.4798 45.6985 12.7721 46.2089 12.043 46.7349C9.97022 48.4628 8.52624 50.2233 7 52.438C7.95777 51.9791 8.91555 51.5202 9.90234 51.0474C17.1469 47.6728 24.266 44.8252 32.0625 43.0005C32.7514 42.8371 33.4403 42.6737 34.1501 42.5054C38.4918 41.5583 42.5653 41.2938 47 41.438C46.67 42.098 46.34 42.758 46 43.438C43.2773 44.0708 43.2773 44.0708 39.9375 44.563C38.8328 44.7306 37.728 44.8981 36.5898 45.0708C35.3079 45.2526 35.3079 45.2526 34 45.438C33.34 47.748 32.68 50.058 32 52.438C31.34 52.108 30.68 51.778 30 51.438C30 53.088 30 54.738 30 56.438C29.34 56.108 28.68 55.778 28 55.438C28 52.468 28 49.498 28 46.438C27.2369 46.768 26.4737 47.098 25.6875 47.438C23 48.438 23 48.438 20 48.438C20.33 51.408 20.66 54.378 21 57.438C20.34 57.108 19.68 56.778 19 56.438C19 58.088 19 59.738 19 61.438C16.2027 59.3704 15.9731 58.2936 15.3125 54.7505C15.2094 53.6574 15.1062 52.5642 15 51.438C14.34 51.438 13.68 51.438 13 51.438C13.624 53.1675 14.2492 54.8966 14.875 56.6255C15.3971 58.0699 15.3971 58.0699 15.9297 59.5435C16.9099 62.1943 17.9372 64.8193 19 67.438C17.68 68.428 16.36 69.418 15 70.438C12.69 69.448 10.38 68.458 8 67.438C8 66.778 8 66.118 8 65.438C7.23688 65.1905 6.47375 64.943 5.6875 64.688C2.65967 63.2797 1.42688 62.4596 0 59.438C0.7305 53.1557 5.65713 48.6763 10 44.438C11.9537 42.8988 13.8385 41.6808 16 40.438Z" fill="#776A48"/>
<path d="M67.0001 0.437896C67.0001 0.767896 67.0001 1.0979 67.0001 1.4379C66.4571 1.52765 65.914 1.6174 65.3546 1.70987C43.7225 5.35472 43.7225 5.35471 27.1602 18.9496C23.8084 23.9739 21.1881 28.4978 20.0001 34.4379C20.9611 34.0396 20.9611 34.0396 21.9415 33.6332C35.6124 28.0508 35.6124 28.0508 42.0001 28.4379C41.6701 29.0979 41.3401 29.7579 41.0001 30.4379C37.9824 31.3334 34.9661 32.0649 31.8985 32.7621C27.0281 33.9507 23.2638 35.791 19.0001 38.4379C19.8051 38.2264 19.8051 38.2264 20.6263 38.0107C50.0643 30.3785 77.6432 29.9171 107.316 36.6332C110.697 37.509 110.697 37.509 113 37.4379C113 38.4279 113 39.4179 113 40.4379C112.254 40.2917 111.509 40.1454 110.74 39.9948C107.327 39.3272 103.914 38.6638 100.5 38.0004C99.327 37.7703 98.154 37.5402 96.9454 37.3031C72.0109 32.4703 46.9875 33.0173 22.6876 40.6684C20.0001 41.4379 20.0001 41.4379 17.0001 41.4379C16.2079 32.5253 19.6325 24.1976 25.2501 17.3441C36.9617 4.58688 49.925 -0.136592 67.0001 0.437896Z" fill="#544925"/>
<path d="M45 35.4379C42.3333 36.7712 39.6667 38.1045 37 39.4379C37.8421 39.4279 37.8421 39.4279 38.7011 39.4177C44.6404 39.3504 50.5795 39.3057 56.519 39.2731C58.7242 39.2581 60.9293 39.2378 63.1343 39.2115C79.8749 39.0174 96.044 39.6156 112.062 45.0004C113.073 45.3126 113.073 45.3126 114.104 45.6312C115.759 46.1653 117.384 46.7928 119 47.4379C119.495 48.4279 119.495 48.4279 120 49.4379C118.65 49.0569 118.65 49.0569 117.273 48.6683C101.251 44.3181 84.5876 42.0434 68 41.4379C67.2988 41.4106 66.5975 41.3834 65.875 41.3553C46.7294 40.7038 27.4246 42.8854 10.1875 51.8129C9.13562 52.3491 8.08375 52.8854 7 53.4379C6.34 53.1079 5.68 52.7779 5 52.4379C15.0347 41.1419 29.7127 34.7969 45 35.4379Z" fill="#C5BE9A"/>
<path d="M52.0001 244.438C54.2363 250.01 55.8325 254.452 54.0001 260.438C50.7894 262.673 47.8385 262.736 44.0001 262.75C42.4532 262.776 42.4532 262.776 40.8751 262.801C37.6296 262.391 36.2574 261.786 34.0001 259.438C33.5149 255.21 33.8574 252.152 34.6876 248C37.6662 244.7 39.2084 244.914 43.5626 244.563C46.3791 244.469 49.1828 244.438 52.0001 244.438Z" fill="#311C10"/>
<path d="M69 245.438C73.95 245.438 78.9 245.438 84 245.438C87.0748 251.588 87.7308 253.069 87 259.438C84.7599 261.757 83.3658 262.387 80.1601 262.836C79.1379 262.829 78.1157 262.821 77.0625 262.813C76.0428 262.821 75.0232 262.828 73.9726 262.836C70.5887 262.383 68.6842 261.533 66 259.438C65.1547 253.944 66.637 250.262 69 245.438Z" fill="#402712"/>
<path d="M91.9999 112.438C92.6599 112.438 93.3199 112.438 93.9999 112.438C96.2225 120.356 96.6675 128.25 95.9999 136.438C95.3399 137.428 94.6799 138.418 93.9999 139.438C90.8749 139.625 90.8749 139.625 87.9999 139.438C87.6699 141.088 87.3399 142.738 86.9999 144.438C84.5249 144.933 84.5249 144.933 81.9999 145.438C82.6599 144.118 83.3199 142.798 83.9999 141.438C83.2574 141.211 82.5149 140.984 81.7499 140.75C78.3644 139.135 76.9578 137.629 74.9999 134.438C74.3748 130.687 74.7659 128.916 76.4374 125.5C79.3303 123.172 79.9479 123.13 83.4999 123.375C86.5218 123.909 88.0249 124.455 90.6249 126.188C91.9999 128.438 91.9999 128.438 91.8749 131.063C90.9999 133.438 90.9999 133.438 88.9999 135.438C90.3199 135.768 91.6399 136.098 92.9999 136.438C94.4456 128.197 93.3016 120.603 91.9999 112.438Z" fill="#1F100E"/>
<path d="M41 47.438C42.5 48.813 42.5 48.813 44 50.438C44 51.098 44 51.758 44 52.438C43.1647 52.4999 43.1647 52.4999 42.3125 52.563C38.7597 53.9073 37.2904 56.4477 35 59.438C34.01 59.108 33.02 58.778 32 58.438C30.7191 66.3797 30.3536 73.6442 35.1172 80.4731C38.0848 83.8398 41.5177 85.7165 45.5 87.688C46.151 88.0257 46.8019 88.3635 47.4727 88.7114C50.9153 90.478 54.3794 92.0733 58 93.438C57.3606 92.5305 56.7212 91.623 56.0625 90.688C54.333 87.9627 53.647 86.4573 53 83.438C52.34 82.778 51.68 82.118 51 81.438C52.32 80.778 53.64 80.118 55 79.438C55 80.428 55 81.418 55 82.438C59.9954 84.4632 63.7635 85.5588 69.1875 85.5005C70.2742 85.4915 71.3609 85.4824 72.4805 85.4731C73.7276 85.4557 73.7276 85.4557 75 85.438C73.6274 88.1833 71.5941 88.8815 69 90.438C68.505 91.428 68.505 91.428 68 92.438C67.34 92.438 66.68 92.438 66 92.438C65.67 93.428 65.34 94.418 65 95.438C56.872 97.8524 48.2109 92.191 41.0625 88.563C35.094 85.1611 31.3887 81.5173 28.5625 75.2505C27.6896 69.334 27.2743 62.796 30.082 57.3325C31.375 55.688 31.375 55.688 34 53.438C34.99 53.438 35.98 53.438 37 53.438C39.2117 50.4956 39.2117 50.4956 41 47.438Z" fill="#F7A17B"/>
<path d="M51 55.4381C55.3309 59.769 55.8425 63.154 56.25 69.0631C56 72.4381 56 72.4381 54.7578 74.0865C51.5436 76.5579 47.9569 76.7419 44 76.4381C40.8125 74.6881 40.8125 74.6881 39 71.4381C39.0942 65.7171 40.373 59.9718 44 55.4381C46.7918 54.0422 48.0612 54.4585 51 55.4381Z" fill="#B93528"/>
<path d="M54 121.438C54 122.098 54 122.758 54 123.438C56.475 123.933 56.475 123.933 59 124.438C59.125 130.188 59.125 130.188 58 132.438C48.7472 133.907 39.3424 133.53 30 133.438C30 130.438 30 130.438 32.0625 127.938C35.408 125.091 37.8532 123.82 42 122.438C42.99 122.768 43.98 123.098 45 123.438C51.4 121.438 51.4 121.438 54 121.438Z" fill="#DED7BF"/>
<path d="M61 142.438C61.9488 142.603 62.8975 142.768 63.875 142.938C68.5764 143.623 73.26 143.524 78 143.438C77.835 144.222 77.67 145.005 77.5 145.813C76.9376 148.32 76.9376 148.32 77 150.438C78.32 149.118 79.64 147.798 81 146.438C81.75 148.625 81.75 148.625 82 151.438C80.5625 154.188 80.5625 154.188 78 156.438C75.2663 157.151 72.8494 157.296 70 157.438C70 156.778 70 156.118 70 155.438C69.3619 155.594 68.7238 155.75 68.0664 155.911C66.827 156.203 66.827 156.203 65.5625 156.5C64.7388 156.698 63.9151 156.895 63.0664 157.098C62.3845 157.21 61.7026 157.322 61 157.438C60.67 157.108 60.34 156.778 60 156.438C60.0903 154.081 60.2469 151.726 60.4375 149.375C60.5393 148.085 60.6412 146.795 60.7461 145.465C60.8299 144.466 60.9137 143.467 61 142.438Z" fill="#D7D1B4"/>
<path d="M41.9998 140.438C43.5202 140.383 45.0412 140.345 46.5623 140.313C47.8326 140.278 47.8326 140.278 49.1287 140.243C51.9998 140.438 51.9998 140.438 58.9998 142.438C58.9998 147.388 58.9998 152.338 58.9998 157.438C46.7807 155.37 46.7807 155.37 42.9998 150.438C42.1425 147.086 41.9529 143.889 41.9998 140.438Z" fill="#D8D2B6"/>
<path d="M49 42.438C49.33 43.428 49.66 44.418 50 45.438C50.33 44.448 50.66 43.458 51 42.438C52.32 42.768 53.64 43.098 55 43.438C55.1238 44.3455 55.2475 45.253 55.375 46.188C55.9211 49.0277 56.5726 50.9639 58 53.438C57.34 53.438 56.68 53.438 56 53.438C56.66 55.088 57.32 56.738 58 58.438C55.5064 57.2342 53.3186 55.9837 51 54.438C47.4617 54.2121 44.3909 54.3946 41 55.438C41.33 54.448 41.66 53.458 42 52.438C42.66 52.438 43.32 52.438 44 52.438C43.01 51.448 42.02 50.458 41 49.438C39.35 51.418 37.7 53.398 36 55.438C35.34 54.448 34.68 53.458 34 52.438C33.67 52.108 33.34 51.778 33 51.438C33.66 49.128 34.32 46.818 35 44.438C36.7702 44.1014 38.5412 43.7688 40.3125 43.438C41.2986 43.2524 42.2848 43.0667 43.3008 42.8755C46 42.438 46 42.438 49 42.438Z" fill="#1D100E"/>
<path d="M83.6249 57.313C84.4087 57.3542 85.1924 57.3955 85.9999 57.438C89.0055 62.4473 89.2933 65.7652 88.9999 71.438C89.9899 71.768 90.9799 72.098 91.9999 72.438C91.2162 72.5205 90.4324 72.603 89.6249 72.688C86.8524 73.1661 86.8524 73.1661 85.6874 75.5005C85.4605 76.1399 85.2337 76.7792 84.9999 77.438C78.2499 75.813 78.2499 75.813 75.9999 72.438C75.505 67.1915 76.2798 63.9366 78.9999 59.438C80.9999 57.438 80.9999 57.438 83.6249 57.313Z" fill="#BE4F43"/>
<path d="M43 99.438C46.125 105.688 46.125 105.688 45.5625 110.063C45.4606 110.88 45.3588 111.698 45.2539 112.54C45.1701 113.166 45.0863 113.793 45 114.438C44.67 114.438 44.34 114.438 44 114.438C44.0651 112.452 44.1302 110.467 44.1953 108.481C44.1325 106.124 44.1325 106.124 42 103.438C38.6053 103.721 37.2586 104.179 34.8125 106.625C32.5721 110.102 31.4962 113.453 30.5 117.438C30 119.438 30 119.438 28.8125 122.25C27.792 126.254 28.7656 128.56 30 132.438C44.5264 132.582 44.5264 132.582 59 131.438C59.33 132.428 59.66 133.418 60 134.438C57.8553 136.583 53.4155 136.178 50.4375 136.5C49.6311 136.591 48.8248 136.682 47.9941 136.776C45.9965 137 43.9983 137.22 42 137.438C42 140.408 42 143.378 42 146.438C39.6023 144.04 39.6571 143.105 39.375 139.813C39.3002 138.996 39.2254 138.178 39.1484 137.336C39.0994 136.71 39.0504 136.083 39 135.438C38.3129 135.496 37.6258 135.554 36.9179 135.614C29.6137 135.98 29.6137 135.98 26.875 133.563C24.4733 124.986 26.096 117.331 30 109.438C33.4148 104.035 36.9939 101.48 43 99.438Z" fill="#8B6D3C"/>
<path d="M82.0001 94.438C82.9901 94.768 83.9801 95.098 85.0001 95.438C86.1876 99.0005 86.1876 99.0005 87.0001 102.438C88.6398 101.417 88.6398 101.417 90.3126 100.375C92.1759 99.2153 92.1759 99.2153 94.0001 98.438C94.9901 98.768 95.9801 99.098 97.0001 99.438C96.2791 105.687 90.1959 110.242 86.0001 114.438C84.972 115.75 83.9593 117.075 83.0001 118.438C82.6701 117.778 82.3401 117.118 82.0001 116.438C83.4376 113.813 83.4376 113.813 85.0001 111.438C84.0101 111.438 83.0201 111.438 82.0001 111.438C79.8126 110.438 79.8126 110.438 78.0001 108.438C77.3733 103.58 77.2289 101.571 80.0001 97.5005C80.6601 96.8199 81.3201 96.1392 82.0001 95.438C82.0001 95.108 82.0001 94.778 82.0001 94.438Z" fill="#5F3122"/>
<path d="M67.0001 107.438C70.6743 107.744 71.7814 108.196 74.3126 111C75.1479 112.207 75.1479 112.207 76.0001 113.438C74.6801 113.108 73.3601 112.778 72.0001 112.438C75.8433 116.896 80.2353 118.558 85.7501 120.313C88.0594 120.688 88.0594 120.688 89.6876 119.125C90.3373 118.29 90.3373 118.29 91.0001 117.438C91.6601 116.778 92.3201 116.118 93.0001 115.438C93.3922 117.978 93.7641 120.518 94.1251 123.063C94.2372 123.776 94.3494 124.489 94.4649 125.223C95.1024 129.855 94.8797 133.024 93.0001 137.438C91.3501 137.108 89.7001 136.778 88.0001 136.438C88.7735 135.324 88.7735 135.324 89.5626 134.188C91.2137 131.629 91.2137 131.629 90.8126 129.25C90.0413 127.242 90.0413 127.242 88.0001 125.438C86.6698 125.562 86.6698 125.562 85.3126 125.688C81.0976 125.37 79.8499 123.912 76.8751 121.09C74.3464 118.862 71.5527 117.318 68.6016 115.711C67.0001 114.438 67.0001 114.438 66.211 112.477C66.0001 110.438 66.0001 110.438 67.0001 107.438Z" fill="#5A5B32"/>
<path d="M83 95.4382C82.34 96.0982 81.68 96.7582 81 97.4382C78.2859 101.509 78.5257 103.616 79 108.438C79.66 109.098 80.32 109.758 81 110.438C81.66 110.108 82.32 109.778 83 109.438C83.99 110.098 84.98 110.758 86 111.438C85.01 113.088 84.02 114.738 83 116.438C83.7838 115.613 84.5675 114.788 85.375 113.938C88 111.438 88 111.438 90 111.438C90.8125 113.126 90.8125 113.126 91 115.438C89.0625 118.251 89.0625 118.251 86 120.438C83.1099 120.566 80.8647 120.069 78 119.438C77.9136 118.823 77.8273 118.208 77.7383 117.575C76.9475 112.383 76.9475 112.383 73.6875 108.501C72.8006 108.15 71.9138 107.799 71 107.438C70.0719 107.046 69.1437 106.654 68.1875 106.251C67.4656 105.983 66.7437 105.714 66 105.438C66.33 104.778 66.66 104.118 67 103.438C69.31 103.768 71.62 104.098 74 104.438C74 103.778 74 103.118 74 102.438C74.66 102.438 75.32 102.438 76 102.438C76 101.778 76 101.118 76 100.438C73.03 99.9432 73.03 99.9432 70 99.4382C71 97.4382 71 97.4382 72.9609 96.5515C73.7576 96.2872 74.5542 96.023 75.375 95.7507C76.1665 95.4787 76.958 95.2067 77.7734 94.9265C80 94.4382 80 94.4382 83 95.4382Z" fill="#1F100E"/>
<path d="M97 56.438C97.66 56.768 98.32 57.098 99 57.438C99.625 59.5005 99.625 59.5005 100 61.438C100.99 61.108 101.98 60.778 103 60.438C104.876 62.3144 104.18 64.936 104.23 67.4302C104 69.438 104 69.438 102 72.438C101.01 72.438 100.02 72.438 99 72.438C98.9175 73.6342 98.835 74.8305 98.75 76.063C98.2232 80.4818 96.7013 82.9524 94 86.438C94.33 87.098 94.66 87.758 95 88.438C97.97 88.108 100.94 87.778 104 87.438C104.33 88.098 104.66 88.758 105 89.438C104.443 89.5128 103.886 89.5875 103.312 89.6646C96.9111 90.7675 92.8773 93.2119 88 97.438C88 95.128 88 92.818 88 90.438C87.01 90.438 86.02 90.438 85 90.438C85.7103 89.7393 86.4205 89.0406 87.1523 88.3208C88.0714 87.4107 88.9905 86.5006 89.9375 85.563C91.3123 84.2056 91.3123 84.2056 92.7148 82.8208C95.8651 79.5359 96.138 77.8645 96.3164 73.4302C96.3583 72.444 96.4002 71.4579 96.4434 70.4419C96.4827 69.4094 96.522 68.3768 96.5625 67.313C96.6057 66.2727 96.6489 65.2324 96.6934 64.1606C96.7996 61.5866 96.9017 59.0124 97 56.438Z" fill="#AC2510"/>
<path d="M87 53.438C90.3799 53.9757 93.6874 54.581 97 55.438C97.1459 59.1459 97.2343 62.8531 97.3125 66.563C97.3753 68.1331 97.3753 68.1331 97.4395 69.7349C97.5776 78.4637 97.5776 78.4637 94.4805 82.1802C93.2526 83.2978 93.2526 83.2978 92 84.438C92 81.438 92 81.438 94 78.438C93.9862 76.3808 93.9862 76.3808 93 74.438C92.3452 74.0281 91.6903 73.6181 91.0156 73.1958C88.2397 70.7749 88.2832 68.9169 87.875 65.313C87.6439 63.3466 87.3659 61.3838 87 59.438C86.34 59.108 85.68 58.778 85 58.438C85.99 58.438 86.98 58.438 88 58.438C87.835 57.7986 87.67 57.1592 87.5 56.5005C87 54.438 87 54.438 87 53.438Z" fill="#FCBE9B"/>
<path d="M40.9999 115.438C41.3299 117.088 41.6599 118.738 41.9999 120.438C43.6499 120.438 45.2999 120.438 46.9999 120.438C47.3299 121.428 47.6599 122.418 47.9999 123.438C44.2499 124.563 44.2499 124.563 41.9999 123.438C39.6429 124.381 37.3096 125.385 34.9999 126.438C34.0099 126.768 33.0199 127.098 31.9999 127.438C30.7911 129.438 30.7911 129.438 29.9999 131.438C27.9999 130.438 27.9999 130.438 27.2499 128.251C26.9448 124.819 27.7755 122.635 28.9999 119.438C29.3497 118.109 29.6909 116.777 29.9999 115.438C33.8175 114.064 37.0725 114.758 40.9999 115.438Z" fill="#F59E7A"/>
<path d="M61 133.438C63.7124 134.006 66.4189 134.592 69.125 135.188C69.8855 135.345 70.6461 135.503 71.4297 135.665C76.4395 136.787 79.9072 138.326 84 141.438C83.8324 141.982 83.6648 142.526 83.4922 143.086C82.732 146.718 83.0896 150.287 83.2578 153.977C83.1727 154.789 83.0877 155.601 83 156.438C79.9231 158.489 79.0635 158.711 75.5508 158.852C74.2794 158.91 74.2794 158.91 72.9824 158.969C71.6608 159.016 71.6608 159.016 70.3125 159.063C69.4198 159.102 68.5271 159.14 67.6074 159.18C65.4052 159.274 63.2029 159.36 61 159.438C61 158.778 61 158.118 61 157.438C63.97 156.778 66.94 156.118 70 155.438C70 156.098 70 156.758 70 157.438C71.4622 157.014 72.9197 156.573 74.375 156.125C75.5932 155.76 75.5932 155.76 76.8359 155.387C79.3318 154.524 79.3318 154.524 81 151.438C81.1671 148.813 81.1671 148.813 81 146.438C80.34 146.438 79.68 146.438 79 146.438C78.9768 145.832 78.9536 145.226 78.9297 144.602C78.1348 142.087 78.1348 142.087 74.9453 141.024C73.6772 140.604 72.4033 140.201 71.125 139.813C64.2266 137.589 64.2266 137.589 61 135.438C61 134.778 61 134.118 61 133.438Z" fill="#B6AA81"/>
<path d="M38.9998 138.438C39.3298 138.438 39.6598 138.438 39.9998 138.438C40.3298 141.078 40.6598 143.718 40.9998 146.438C41.6598 146.438 42.3198 146.438 42.9998 146.438C43.1854 147.18 43.371 147.923 43.5623 148.688C46.6315 154.56 54.0703 156.357 59.9998 158.438C59.9998 158.768 59.9998 159.098 59.9998 159.438C55.1365 159.525 50.5039 159.236 45.6873 158.563C44.4743 158.401 43.2612 158.238 42.0115 158.071C38.9998 157.438 38.9998 157.438 36.9998 155.438C36.3456 149.551 36.63 143.918 38.9998 138.438Z" fill="#B5AA80"/>
<path d="M74 3.43795C82.7617 2.87267 89.8264 4.71851 96.875 10.1254C100.491 13.4926 102.814 17.6404 104 22.4379C103.594 24.7114 103.594 24.7114 103 26.4379C102.49 25.6935 102.49 25.6935 101.969 24.934C94.5141 14.4856 85.8201 9.07779 74 4.43795C74 4.10795 74 3.77795 74 3.43795Z" fill="#FCFBF3"/>
<path d="M56 109.438C56.33 110.098 56.66 110.758 57 111.438C58.32 110.778 59.64 110.118 61 109.438C61.8125 112.125 61.8125 112.125 62 115.438C59.6875 118.313 59.6875 118.313 57 120.438C56.34 120.438 55.68 120.438 55 120.438C55 121.098 55 121.758 55 122.438C56.65 122.438 58.3 122.438 60 122.438C60 123.098 60 123.758 60 124.438C57.03 123.943 57.03 123.943 54 123.438C54 122.778 54 122.118 54 121.438C52.02 122.098 50.04 122.758 48 123.438C46.875 116.688 46.875 116.688 48 114.438C48.99 114.438 49.98 114.438 51 114.438C51.1856 113.479 51.1856 113.479 51.375 112.5C51.5813 111.82 51.7875 111.139 52 110.438C54 109.438 54 109.438 56 109.438Z" fill="#454622"/>
<path d="M109 48.438C114.941 48.8093 119.404 50.5594 124 54.438C124.33 55.428 124.66 56.418 125 57.438C122.248 60.3935 119.58 62.5536 116 64.438C115.34 64.438 114.68 64.438 114 64.438C113.723 63.5344 113.446 62.6307 113.16 61.6997C112.798 60.5202 112.436 59.3407 112.062 58.1255C111.703 56.9537 111.343 55.782 110.973 54.5747C110.336 52.5224 109.679 50.4764 109 48.438Z" fill="#776846"/>
<path d="M34 44.438C35 46.438 35 46.438 34.4375 48.438C34.2931 49.098 34.1488 49.758 34 50.438C34.66 51.098 35.32 51.758 36 52.438C35.34 52.438 34.68 52.438 34 52.438C33.7319 53.2217 33.4637 54.0055 33.1875 54.813C32 57.438 32 57.438 29 59.438C28.0306 59.273 27.0612 59.108 26.0625 58.938C22.7709 58.4006 21.7243 58.6567 19 60.438C18.67 58.788 18.34 57.138 18 55.438C18.99 55.933 18.99 55.933 20 56.438C20 53.798 20 51.158 20 48.438C22.64 47.778 25.28 47.118 28 46.438C28.33 48.748 28.66 51.058 29 53.438C29 51.458 29 49.478 29 47.438C29.66 48.758 30.32 50.078 31 51.438C31.99 49.128 32.98 46.818 34 44.438Z" fill="#301712"/>
<path d="M44 39.438C49.5094 39.3626 55.0185 39.3089 60.5283 39.2732C62.3939 39.2584 64.2595 39.238 66.125 39.2117C81.8108 38.9962 97.0677 39.9599 112.062 45.0005C112.736 45.2087 113.41 45.4169 114.104 45.6314C115.759 46.1654 117.384 46.793 119 47.438C119.495 48.428 119.495 48.428 120 49.438C118.65 49.0571 118.65 49.0571 117.273 48.6685C92.8623 42.0406 68.1419 41.2455 43 41.438C43.33 40.778 43.66 40.118 44 39.438Z" fill="#C6BF9B"/>
<path d="M45 251.438C47.9375 252.938 47.9375 252.938 50 254.438C49.67 255.428 49.34 256.418 49 257.438C48.34 257.438 47.68 257.438 47 257.438C47 258.098 47 258.758 47 259.438C47.66 259.768 48.32 260.098 49 260.438C47.439 261.999 45.91 261.608 43.75 261.626C40.0754 261.596 37.3151 261.149 34 259.438C34.3125 256.563 34.3125 256.563 35 253.438C38.7258 250.954 40.5871 251.058 45 251.438Z" fill="#4E280B"/>
<path d="M54 79.438C54.33 80.428 54.66 81.418 55 82.438C57.3763 83.6219 57.3763 83.6219 60 84.438C60.99 84.768 61.98 85.098 63 85.438C65.0615 85.507 67.125 85.5227 69.1875 85.5005C70.2742 85.4915 71.3609 85.4824 72.4805 85.4731C73.3119 85.4615 74.1434 85.4499 75 85.438C73.621 88.196 71.6233 88.8765 69 90.438C68.5462 90.9949 68.0925 91.5517 67.625 92.1255C66 93.438 66 93.438 62.625 94.0005C59 93.438 59 93.438 56.125 90.688C54.3506 87.9742 53.5477 86.5052 53 83.438C52.34 82.778 51.68 82.118 51 81.438C51.99 80.778 52.98 80.118 54 79.438Z" fill="#BD3E35"/>
<path d="M69 245.438C73.95 245.438 78.9 245.438 84 245.438C84.99 247.748 85.98 250.058 87 252.438C86.2162 252.108 85.4325 251.778 84.625 251.438C80.13 250.198 75.6335 249.663 71 250.438C68.7726 253.125 68.7726 253.125 69.125 255.5C70.2587 258.011 71.4862 258.465 74 259.438C73.67 259.768 73.34 260.098 73 260.438C76.96 260.438 80.92 260.438 85 260.438C82.3285 263.11 80.9082 262.737 77.1875 262.75C75.6309 262.776 75.6309 262.776 74.0429 262.801C70.5982 262.39 68.7201 261.573 66 259.438C65.1547 253.944 66.637 250.262 69 245.438Z" fill="#1F130D"/>
<path d="M67.0002 0.437845C67.0002 0.767845 67.0002 1.09785 67.0002 1.43785C66.4571 1.5276 65.9141 1.61735 65.3547 1.70982C43.7542 5.32228 43.7542 5.32228 27.2306 18.8793C23.5281 24.4837 20.4806 30.1981 18.0002 36.4378C17.0002 34.4378 17.0002 34.4378 17.5666 32.1175C21.9265 19.8415 29.5418 10.2661 41.5002 4.56285C50.1204 1.00699 57.7031 0.125047 67.0002 0.437845Z" fill="#858767"/>
<path d="M54 26.4379C73.9538 25.9789 92.7296 26.9153 112 32.4379C111.67 33.4279 111.34 34.4179 111 35.4379C109.78 35.0396 109.78 35.0396 108.535 34.6333C90.3903 29.0408 71.8498 28.9505 53 28.4379C53.33 27.7779 53.66 27.1179 54 26.4379Z" fill="#554C26"/>
<path d="M80 35.4381C93.2391 34.9022 106.327 35.6804 117 44.4381C117.495 45.9231 117.495 45.9231 118 47.4381C111.592 45.772 111.592 45.772 108.562 44.0631C103.281 41.6542 97.7683 40.5404 92.125 39.2506C90.9597 38.978 89.7944 38.7053 88.5938 38.4244C85.7307 37.7556 82.8661 37.0937 80 36.4381C80 36.1081 80 35.7781 80 35.4381Z" fill="#FAF9F0"/>
<path d="M53 40.3052C54.2011 40.3023 54.2011 40.3023 55.4265 40.2993C56.2758 40.3038 57.125 40.3083 58 40.313C58.8576 40.3149 59.7153 40.3169 60.5989 40.3188C66.4585 40.3588 72.185 40.6754 78 41.438C78 41.768 78 42.098 78 42.438C73.1367 42.9961 68.338 43.5091 63.4375 43.438C62.3031 43.438 61.1687 43.438 60 43.438C58.6912 44.5277 58.6912 44.5277 58.8125 47.188C58.9981 50.4054 59.6389 52.5456 61 55.438C59.35 55.438 57.7 55.438 56 55.438C56 54.778 56 54.118 56 53.438C56.66 53.438 57.32 53.438 58 53.438C57.01 52.0767 57.01 52.0767 56 50.688C54 47.438 54 47.438 54 43.438C53.01 43.108 52.02 42.778 51 42.438C50.67 43.758 50.34 45.078 50 46.438C49.8763 45.7986 49.7525 45.1592 49.625 44.5005C49.3156 43.4796 49.3156 43.4796 49 42.438C48.34 42.108 47.68 41.778 47 41.438C49.2581 40.3089 50.4958 40.3091 53 40.3052Z" fill="#80795C"/>
<path d="M61 136.438C67.2047 137.553 73.7188 138.828 79 142.438C80.25 145.5 80.25 145.5 80 148.438C78.5625 150.313 78.5625 150.313 77 151.438C76.34 151.108 75.68 150.778 75 150.438C75.99 148.128 76.98 145.818 78 143.438C77.01 143.933 77.01 143.933 76 144.438C70.4687 144.719 66.242 144.185 61 142.438C61 140.458 61 138.478 61 136.438Z" fill="#B6AD83"/>
<path d="M67 0.438032C78.1309 -0.272451 88.3474 1.37099 97.1289 8.69194C104.465 15.5382 108.651 21.9213 112 31.438C111.01 31.768 110.02 32.098 109 32.438C108.816 31.7716 108.631 31.1051 108.441 30.4185C105.487 21.0303 100.3 12.6972 91.75 7.43803C84.1273 3.74705 75.358 2.40989 67 1.43803C67 1.10803 67 0.778032 67 0.438032Z" fill="#99A089"/>
<path d="M83.5627 57.3755C84.7693 57.4064 84.7693 57.4064 86.0002 57.438C88.6661 61.9922 89.3158 65.1775 89.0002 70.438C88.6702 70.438 88.3402 70.438 88.0002 70.438C87.879 69.8721 87.7578 69.3062 87.633 68.7231C87.4654 67.9897 87.2978 67.2562 87.1252 66.5005C86.9628 65.7696 86.8004 65.0387 86.633 64.2856C86.1706 62.231 86.1706 62.231 84.0002 61.438C83.2459 66.4171 83.2459 66.4171 83.0002 71.438C83.6602 71.438 84.3202 71.438 85.0002 71.438C85.3302 69.458 85.6602 67.478 86.0002 65.438C86.3302 65.438 86.6602 65.438 87.0002 65.438C86.1252 72.313 86.1252 72.313 85.0002 73.438C82.5627 73.688 82.5627 73.688 80.0002 73.438C77.8122 70.156 77.8114 69.2132 78.0002 65.438C78.0002 64.448 78.0002 63.458 78.0002 62.438C80.1974 57.4576 80.1974 57.4576 83.5627 57.3755Z" fill="#431808"/>
<path d="M105 47.438C105.66 47.438 106.32 47.438 107 47.438C112.883 57.88 112.883 57.88 112 64.438C111 67.8755 111 67.8755 110 70.438C109.34 70.438 108.68 70.438 108 70.438C104.755 74.6663 103 78.0946 103 83.438C103.66 83.768 104.32 84.098 105 84.438C104.01 84.438 103.02 84.438 102 84.438C100 81.438 100 81.438 100.125 78.563C101.115 75.0274 102.582 73.1589 105 70.438C106.148 68.1417 106.308 66.361 106.563 63.813C106.646 62.9957 106.73 62.1785 106.816 61.3364C106.877 60.7099 106.938 60.0835 107 59.438C107.66 60.098 108.32 60.758 109 61.438C108.462 56.1605 107.227 52.1815 105 47.438Z" fill="#8D5044"/>
<path d="M59 135.438C60.125 140.188 60.125 140.188 59 142.438C53.39 141.778 47.78 141.118 42 140.438C41.67 141.098 41.34 141.758 41 142.438C41.33 140.788 41.66 139.138 42 137.438C47.8077 135.932 52.9982 135.22 59 135.438Z" fill="#B6AD83"/>
<path d="M49 99.438C49.5569 99.7267 50.1137 100.015 50.6875 100.313C53.0056 101.475 53.0056 101.475 55.5 102.438C57.7384 103.333 59.8613 104.329 62 105.438C62 107.748 62 110.058 62 112.438C61.34 111.778 60.68 111.118 60 110.438C58.02 111.428 58.02 111.428 56 112.438C56 111.448 56 110.458 56 109.438C54.0002 110.229 54.0002 110.229 52 111.438C51.67 112.428 51.34 113.418 51 114.438C50.34 114.438 49.68 114.438 49 114.438C50.1245 111.466 51.2229 109.104 53 106.438C51.35 104.788 49.7 103.138 48 101.438C48.33 100.778 48.66 100.118 49 99.438Z" fill="#404825"/>
<path d="M78 120.438C78.33 121.758 78.66 123.078 79 124.438C74.7761 127.879 71.4994 129.438 66 129.438C65.67 127.458 65.34 125.478 65 123.438C66.4096 122.736 67.8281 122.052 69.25 121.375C70.0389 120.992 70.8278 120.61 71.6406 120.215C74.2599 119.352 75.4486 119.507 78 120.438Z" fill="#FEC7B4"/>
<path d="M92 115.438C95.4142 121.287 95.6752 128.737 94.0625 135.188C93.7119 135.93 93.3612 136.673 93 137.438C91.35 137.108 89.7 136.778 88 136.438C88.7734 135.324 88.7734 135.324 89.5625 134.188C91.1908 131.649 91.1908 131.649 90.875 129.375C90.0392 127.317 90.0392 127.317 88.375 125.375C87.9212 124.736 87.4675 124.097 87 123.438C88.0162 120.389 88.7739 119.571 91 117.438C91.33 116.778 91.66 116.118 92 115.438Z" fill="#D8D3B8"/>
<path d="M47 41.4378C46.67 42.0978 46.34 42.7578 46 43.4378C43.2773 44.0706 43.2773 44.0706 39.9375 44.5628C38.2804 44.8142 38.2804 44.8142 36.5898 45.0706C35.3079 45.2524 35.3079 45.2524 34 45.4378C33.34 47.7478 32.68 50.0578 32 52.4378C31.34 52.1078 30.68 51.7778 30 51.4378C30 53.0878 30 54.7378 30 56.4378C29.34 56.1078 28.68 55.7778 28 55.4378C28 52.4678 28 49.4978 28 46.4378C24.37 47.7578 20.74 49.0778 17 50.4378C17.33 49.4478 17.66 48.4578 18 47.4378C26.8873 43.3236 37.2078 41.0121 47 41.4378Z" fill="#87896B"/>
<path d="M62 105.438C72.523 106.076 72.523 106.076 77 110.438C77.375 114.188 77.375 114.188 77 117.438C72.125 114.813 72.125 114.813 71 111.438C71.99 111.438 72.98 111.438 74 111.438C71.6143 109.546 69.9282 108.414 67 107.438C66.67 108.758 66.34 110.078 66 111.438C65.34 111.438 64.68 111.438 64 111.438C63.67 115.068 63.34 118.698 63 122.438C62.34 122.438 61.68 122.438 61 122.438C61.33 116.828 61.66 111.218 62 105.438Z" fill="#7C7B4A"/>
<path d="M82 109.438C83.32 110.098 84.64 110.758 86 111.438C84.515 113.913 84.515 113.913 83 116.438C83.7838 115.613 84.5675 114.788 85.375 113.938C88 111.438 88 111.438 90 111.438C90.8125 113.125 90.8125 113.125 91 115.438C88.875 118.25 88.875 118.25 86 120.438C83.375 120.5 83.375 120.5 81 119.438C79.125 117.625 79.125 117.625 78 115.438C78.125 113.313 78.125 113.313 79 111.438C79.99 110.778 80.98 110.118 82 109.438Z" fill="#351912"/>
<path d="M44 101.438C46.1875 101.063 46.1875 101.063 49 101.438C50.9902 103.278 52.3899 105.23 54 107.438C53.4019 108.16 52.8038 108.882 52.1875 109.625C50.2258 112.148 48.5828 114.668 47 117.438C44.8779 114.255 44.7854 113.608 44.9375 110C45.0574 106.919 44.8715 104.404 44 101.438Z" fill="#D7CDB1"/>
<path d="M22.9998 73.438C24.3011 75.3899 25.5933 77.348 26.8748 79.313C28.7988 82.1425 30.8259 84.7982 32.9998 87.438C32.6698 87.768 32.3398 88.098 31.9998 88.438C32.9898 89.098 33.9798 89.758 34.9998 90.438C34.9998 91.098 34.9998 91.758 34.9998 92.438C27.0734 90.4938 27.0734 90.4938 24.9998 87.438C22.8728 82.6242 22.8218 78.5993 22.9998 73.438Z" fill="#80483D"/>
<path d="M83 251.438C83.66 253.088 84.32 254.738 85 256.438C80.3151 258.927 77.0556 258.295 72 257.438C72 256.118 72 254.798 72 253.438C75.6342 251.112 78.7709 251.275 83 251.438Z" fill="#4D280B"/>
<path d="M43 99.438C46.125 105.688 46.125 105.688 45.5625 110.063C45.4607 110.88 45.3588 111.698 45.2539 112.54C45.1701 113.166 45.0863 113.793 45 114.438C44.67 114.438 44.34 114.438 44 114.438C44.0651 112.452 44.1302 110.467 44.1953 108.481C44.1325 106.124 44.1325 106.124 42 103.438C38.6054 103.721 37.2587 104.179 34.8125 106.625C32.5465 110.142 31.3308 113.509 30.625 117.625C29.7525 120.156 28.1994 121.019 26 122.438C27.2175 114.768 29.6186 108.27 35.6211 103.02C37.9968 101.379 40.2603 100.351 43 99.438Z" fill="#906E40"/>
<path d="M79 123.438C80.4592 123.552 81.9174 123.68 83.375 123.813C84.5932 123.917 84.5932 123.917 85.8359 124.024C88 124.438 88 124.438 90 126.438C89.016 129.39 88.0118 131.104 86 133.438C85.34 133.438 84.68 133.438 84 133.438C83.67 132.118 83.34 130.798 83 129.438C81.05 129.633 81.05 129.633 79 130.438C77.7156 132.422 77.7156 132.422 77 134.438C76.3125 132.75 76.3125 132.75 76 130.438C77.4375 127.813 77.4375 127.813 79 125.438C79 124.778 79 124.118 79 123.438Z" fill="#321C14"/>
<path d="M47 61.438C47.99 61.768 48.98 62.098 50 62.438C49.67 63.428 49.34 64.418 49 65.438C48.9613 67.1042 48.955 68.7719 49 70.438C49.66 70.438 50.32 70.438 51 70.438C51.33 67.798 51.66 65.158 52 62.438C52.33 62.438 52.66 62.438 53 62.438C53.3692 68.838 53.3692 68.838 51.5 71.8755C51.005 72.3911 50.51 72.9067 50 73.438C48.02 72.778 46.04 72.118 44 71.438C43.67 69.128 43.34 66.818 43 64.438C44.8125 62.8755 44.8125 62.8755 47 61.438Z" fill="#651E03"/>
<path d="M29 15.438C29.33 16.098 29.66 16.758 30 17.438C29.2713 19.3924 28.535 21.3446 27.7422 23.2739C26.8184 25.6598 26.8184 25.6598 26.75 29.2505C26 32.438 26 32.438 24.3867 33.5396C22.4375 34.3755 22.4375 34.3755 19 35.438C20.7692 27.5189 24.0427 21.8214 29 15.438Z" fill="#ACA170"/>
<path d="M61 133.438C63.7531 134.03 66.5019 134.636 69.25 135.25C70.416 135.499 70.416 135.499 71.6055 135.752C75.7101 136.682 78.8409 137.474 82 140.438C81.4265 143.305 81.1385 144.299 79 146.438C78.9768 145.832 78.9536 145.226 78.9297 144.602C78.1348 142.087 78.1348 142.087 74.9453 141.024C73.6772 140.604 72.4033 140.201 71.125 139.813C64.2266 137.589 64.2266 137.589 61 135.438C61 134.778 61 134.118 61 133.438Z" fill="#948551"/>
<path d="M80.0001 128.438C82.0626 128.875 82.0626 128.875 84.0001 129.438C84.0001 130.758 84.0001 132.078 84.0001 133.438C86.511 132.183 86.8714 130.937 88.0001 128.438C88.6601 128.768 89.3201 129.098 90.0001 129.438C89.8126 131.313 89.8126 131.313 89.0001 133.438C86.4376 134.688 86.4376 134.688 84.0001 135.438C84.3301 136.428 84.6601 137.418 85.0001 138.438C82.6251 138.125 82.6251 138.125 80.0001 137.438C78.0001 134.438 78.0001 134.438 78.3126 131.813C79.0001 129.438 79.0001 129.438 80.0001 128.438Z" fill="#592C21"/>
<path d="M108 39.438C110.5 38.938 110.5 38.938 114 39.438C118.407 42.8491 122.785 47.2695 125 52.438C124.67 53.428 124.34 54.418 124 55.438C123.504 55.1003 123.007 54.7625 122.496 54.4146C118.045 51.492 114.192 49.6278 109 48.438C109.33 47.778 109.66 47.118 110 46.438C114.455 47.428 114.455 47.428 119 48.438C115.618 44.7579 112.575 42.4594 108 40.438C108 40.108 108 39.778 108 39.438Z" fill="#868869"/>
<path d="M23 41.438C22.3606 42.2218 21.7213 43.0055 21.0625 43.813C19.0186 46.2334 19.0186 46.2334 18 48.438C16.2241 49.4044 14.4036 50.29 12.5625 51.1255C11.5738 51.5832 10.5851 52.0408 9.56641 52.5123C8.71949 52.8178 7.87258 53.1233 7 53.438C6.34 53.108 5.68 52.778 5 52.438C17.1129 39.4757 17.1129 39.4757 23 41.438Z" fill="#ACA170"/>
<path d="M46.0001 57.438C47.6501 57.768 49.3001 58.098 51.0001 58.438C51.0001 58.768 51.0001 59.098 51.0001 59.438C49.0201 60.098 47.0401 60.758 45.0001 61.438C44.0622 66.4881 44.0622 66.4881 45.0001 71.438C46.6501 71.768 48.3001 72.098 50.0001 72.438C52.2964 68.9935 52.5402 66.4999 53.0001 62.438C53.3301 62.438 53.6601 62.438 54.0001 62.438C55.4473 69.674 55.4473 69.674 53.5001 73.0005C51.0001 74.438 51.0001 74.438 47.4376 74.438C44.0001 73.438 44.0001 73.438 42.0001 71.813C40.5234 68.3058 41.0413 66.0812 42.0001 62.438C44.0626 59.5005 44.0626 59.5005 46.0001 57.438Z" fill="#EBEEEE"/>
<path d="M83 29.438C92.6886 29.7285 100.844 31.168 110 34.438C110 35.098 110 35.758 110 36.438C100.992 34.8157 91.9953 33.131 83 31.438C83 30.778 83 30.118 83 29.438Z" fill="#D4D0A0"/>
<path d="M65 193.438C65.66 193.438 66.32 193.438 67 193.438C69.3132 201.33 68.856 208.306 68 216.438C63.8902 212.328 64.9435 204.929 64.9375 199.438C64.9534 197.438 64.9726 195.438 65 193.438Z" fill="#82663B"/>
<path d="M93 86.438C93.66 87.098 94.32 87.758 95 88.438C97.2213 88.4611 97.2213 88.4611 99.625 88.063C100.442 87.9521 101.26 87.8413 102.102 87.7271C102.728 87.6317 103.355 87.5363 104 87.438C104.33 88.098 104.66 88.758 105 89.438C104.165 89.5501 104.165 89.5501 103.312 89.6646C96.9111 90.7675 92.8773 93.2119 88 97.438C87.6875 94.7505 87.6875 94.7505 88 91.438C90.5 88.563 90.5 88.563 93 86.438Z" fill="#9E6253"/>
<path d="M60 133.438C59.67 134.098 59.34 134.758 59 135.438C56.1282 135.914 53.3288 136.28 50.4375 136.563C49.6312 136.649 48.8249 136.736 47.9941 136.825C45.997 137.038 43.9986 137.239 42 137.438C42 140.408 42 143.378 42 146.438C39.5787 144.017 39.4716 142.637 38.875 139.313C38.7074 138.403 38.5398 137.493 38.3672 136.555C38.246 135.857 38.1248 135.158 38 134.438C40.354 134.268 42.7081 134.102 45.0625 133.938C46.3735 133.845 47.6845 133.752 49.0352 133.657C52.7008 133.455 56.3299 133.4 60 133.438Z" fill="#988854"/>
<path d="M65 130.438C68.3 130.438 71.6 130.438 75 130.438C75.66 132.748 76.32 135.058 77 137.438C74.36 137.108 71.72 136.778 69 136.438C69 135.778 69 135.118 69 134.438C67.35 134.108 65.7 133.778 64 133.438C64.33 132.448 64.66 131.458 65 130.438Z" fill="#E8E3D0"/>
<path d="M16 40.438C16.66 41.098 17.32 41.758 18 42.438C17.4573 42.8247 16.9146 43.2114 16.3555 43.6099C15.2823 44.391 15.2823 44.391 14.1875 45.188C13.4798 45.6985 12.7721 46.2089 12.043 46.7349C9.93533 48.4919 8.45163 50.1117 7 52.438C7 53.428 7 54.418 7 55.438C4.69 56.758 2.38 58.078 0 59.438C1.52218 52.0174 7.32811 46.0048 13.5 41.8755C14.325 41.4011 15.15 40.9267 16 40.438Z" fill="#767451"/>
<path d="M70 249.438C71.7496 249.384 73.4998 249.345 75.25 249.313C76.2245 249.29 77.199 249.267 78.2031 249.243C81.0196 249.439 82.6095 249.992 85 251.438C84.67 252.428 84.34 253.418 84 254.438C83.67 253.778 83.34 253.118 83 252.438C77.2025 252.194 77.2025 252.194 72 254.438C72 255.098 72 255.758 72 256.438C72.66 257.098 73.32 257.758 74 258.438C72.35 258.108 70.7 257.778 69 257.438C68.0791 254.859 67.8149 253.844 68.9765 251.297C69.3143 250.684 69.652 250.07 70 249.438Z" fill="#351B0D"/>
<path d="M92 112.438C92.66 112.438 93.32 112.438 94 112.438C96.2226 120.356 96.6676 128.25 96 136.438C95.34 137.428 94.68 138.418 94 139.438C90.375 139.625 90.375 139.625 87 139.438C89 138.438 91 137.438 93 136.438C94.6847 128.295 93.2908 120.535 92 112.438Z" fill="#937645"/>
<path d="M97 56.438C97.99 56.933 97.99 56.933 99 57.438C99.625 59.5005 99.625 59.5005 100 61.438C100.66 61.438 101.32 61.438 102 61.438C102.33 63.748 102.66 66.058 103 68.438C101.68 69.428 100.36 70.418 99 71.438C99 70.448 99 69.458 99 68.438C98.34 68.438 97.68 68.438 97 68.438C97 64.478 97 60.518 97 56.438Z" fill="#B12D1A"/>
<path d="M85.125 51.313C88.2155 53.1673 88.8109 56.1679 90 59.438C89.4225 59.1286 88.845 58.8192 88.25 58.5005C87.5075 58.1499 86.765 57.7992 86 57.438C85.3606 57.1286 84.7212 56.8192 84.0625 56.5005C81.6452 56.1913 81.6452 56.1913 79.25 58.8755C78.5075 59.7211 77.765 60.5667 77 61.438C76.34 61.108 75.68 60.778 75 60.438C77.1187 55.4199 79.2517 51.6585 85.125 51.313Z" fill="#3D201B"/>
<path d="M37 249.438C41.62 249.438 46.24 249.438 51 249.438C53 253.438 53 253.438 52.625 255.688C52.4188 256.265 52.2125 256.843 52 257.438C50.35 257.768 48.7 258.098 47 258.438C47.66 257.118 48.32 255.798 49 254.438C45.3618 252.11 42.2397 252.202 38 252.438C37.01 252.933 37.01 252.933 36 253.438C36.33 252.118 36.66 250.798 37 249.438Z" fill="#351B0D"/>
<path d="M39.625 112.75C40.401 112.85 41.177 112.949 41.9766 113.051C44 113.438 44 113.438 46 114.438C46.625 117.5 46.625 117.5 47 120.438C45.35 120.438 43.7 120.438 42 120.438C41.67 119.118 41.34 117.798 41 116.438C39.9069 116.294 38.8138 116.149 37.6875 116C34 115.438 34 115.438 31 114.438C34.1234 112.577 36.0383 112.253 39.625 112.75Z" fill="#FFCCBB"/>
<path d="M51 250.438C51.99 250.768 52.98 251.098 54 251.438C55.25 258.063 55.25 258.063 53 261.438C49.776 262.513 47.3253 262.605 43.9375 262.625C42.874 262.64 41.8105 262.654 40.7148 262.668C38 262.438 38 262.438 36 260.438C39.96 260.438 43.92 260.438 48 260.438C47.67 259.778 47.34 259.118 47 258.438C48.65 257.778 50.3 257.118 52 256.438C51.67 254.458 51.34 252.478 51 250.438Z" fill="#1D120D"/>
<path d="M105 89.4378C105 90.0978 105 90.7578 105 91.4378C99.8192 94.7837 96.1522 96.006 90 96.4378C94.6117 90.179 97.2243 89.1387 105 89.4378Z" fill="#693826"/>
<path d="M35 253.438C35.33 254.428 35.66 255.418 36 256.438C39.63 256.768 43.26 257.098 47 257.438C47 258.098 47 258.758 47 259.438C47.66 259.768 48.32 260.098 49 260.438C47.439 261.999 45.91 261.608 43.75 261.625C40.0754 261.596 37.3151 261.149 34 259.438C34.33 257.458 34.66 255.478 35 253.438Z" fill="#432912"/>
<path d="M90 44.438C91.6052 44.4982 93.2093 44.5871 94.8125 44.688C96.1525 44.7576 96.1525 44.7576 97.5195 44.8286C100 45.438 100 45.438 101.812 47.2505C103.492 50.3444 103.199 52.9823 103 56.438C101.009 53.4515 100.059 50.8411 99 47.438C98.34 47.438 97.68 47.438 97 47.438C97.33 49.088 97.66 50.738 98 52.438C96.8507 51.4838 95.7057 50.5245 94.5625 49.563C93.9244 49.0293 93.2863 48.4956 92.6289 47.9458C91 46.438 91 46.438 90 44.438Z" fill="#321712"/>
<path d="M31.0002 11.438C31.3302 12.428 31.6602 13.418 32.0002 14.438C31.2783 15.098 30.5564 15.758 29.8127 16.438C24.2066 22.0757 21.0078 29.1795 18.0002 36.438C17.0002 34.438 17.0002 34.438 17.5666 32.1177C20.5298 23.7742 24.4737 17.4624 31.0002 11.438Z" fill="#73704C"/>
<path d="M82 94.438C82.99 94.768 83.98 95.098 85 95.438C86.1875 99.0005 86.1875 99.0005 87 102.438C88.1137 101.778 89.2275 101.118 90.375 100.438C93.75 98.438 93.75 98.438 96 98.438C96 99.098 96 99.758 96 100.438C94.9275 100.995 93.855 101.552 92.75 102.125C89.3508 104.049 87.246 106.204 85 109.438C84.8672 108.607 84.7345 107.775 84.5977 106.918C84.4211 105.832 84.2445 104.745 84.0625 103.625C83.8885 102.547 83.7145 101.468 83.5352 100.356C83.0613 97.3887 83.0613 97.3887 82 94.438Z" fill="#995E50"/>
<path d="M93 55.438C94.32 55.438 95.64 55.438 97 55.438C97.1459 59.1459 97.2343 62.8531 97.3125 66.563C97.3544 67.6097 97.3963 68.6564 97.4395 69.7349C97.5776 78.4637 97.5776 78.4637 94.4805 82.1802C93.2526 83.2978 93.2526 83.2978 92 84.438C92 81.438 92 81.438 93.5 79.0005C96.6916 71.4204 95.3624 63.1159 93 55.438Z" fill="#F69D76"/>
<path d="M87 73.438C90.125 73.2505 90.125 73.2505 93 73.438C93 74.758 93 76.078 93 77.438C88 81.438 88 81.438 84 81.438C84.5472 78.0634 85.0549 76.3556 87 73.438Z" fill="#FDD8C4"/>
<path d="M86 57.4378C88.6659 61.992 89.3156 65.1772 89 70.4378C88.67 70.4378 88.34 70.4378 88 70.4378C87.8788 69.8719 87.7577 69.306 87.6328 68.7229C87.4652 67.9894 87.2977 67.256 87.125 66.5003C86.9626 65.7694 86.8002 65.0385 86.6328 64.2854C86.1704 62.2308 86.1704 62.2308 84 61.4378C84 62.0978 84 62.7578 84 63.4378C82.35 63.7678 80.7 64.0978 79 64.4378C78.3125 62.6253 78.3125 62.6253 78 60.4378C80.1408 57.1076 82.2409 57.133 86 57.4378Z" fill="#B43C1E"/>
<path d="M56 109.438C56 110.428 56 111.418 56 112.438C56.66 112.768 57.32 113.098 58 113.438C55.6875 115.938 55.6875 115.938 53 118.438C52.01 118.438 51.02 118.438 50 118.438C49.67 117.118 49.34 115.798 49 114.438C49.66 114.438 50.32 114.438 51 114.438C51.1237 113.799 51.2475 113.159 51.375 112.5C51.5812 111.82 51.7875 111.139 52 110.438C54 109.438 54 109.438 56 109.438Z" fill="#747745"/>
<path d="M82 59.438C85.1612 60.8078 85.9927 61.4271 88 64.438C88.0791 66.77 88.088 69.1063 88 71.438C87.01 71.933 87.01 71.933 86 72.438C86 71.118 86 69.798 86 68.438C85.67 69.428 85.34 70.418 85 71.438C84.34 71.438 83.68 71.438 83 71.438C82.3738 67.3678 82 63.5616 82 59.438Z" fill="#F4EFEA"/>
<path d="M4 56.438C4.66 56.768 5.32 57.098 6 57.438C5.01 57.768 4.02 58.098 3 58.438C5.80804 61.402 8.18316 63.883 12 65.438C12 66.098 12 66.758 12 67.438C13.65 67.768 15.3 68.098 17 68.438C16.34 69.098 15.68 69.758 15 70.438C12.69 69.448 10.38 68.458 8 67.438C8 66.778 8 66.118 8 65.438C6.82438 65.0049 6.82438 65.0049 5.625 64.563C3 63.438 3 63.438 1 61.438C1.25 59.3755 1.25 59.3755 2 57.438C2.66 57.108 3.32 56.778 4 56.438Z" fill="#64583C"/>
<path d="M107 52.438C109.863 55.301 109.994 57.0965 110.062 61.1255C110.042 62.2186 110.021 63.3117 110 64.438C109.34 63.448 108.68 62.458 108 61.438C107.67 63.748 107.34 66.058 107 68.438C106.34 68.108 105.68 67.778 105 67.438C103.615 61.2592 104.092 58.021 107 52.438Z" fill="#482216"/>
<path d="M54.9999 42.438C56.6499 42.438 58.2999 42.438 59.9999 42.438C59.6699 43.098 59.3399 43.758 58.9999 44.438C58.7185 48.6595 59.199 51.6109 60.9999 55.438C59.3499 55.438 57.6999 55.438 55.9999 55.438C55.9999 54.778 55.9999 54.118 55.9999 53.438C56.6599 53.438 57.3199 53.438 57.9999 53.438C57.3193 52.5511 56.6387 51.6642 55.9374 50.7505C53.9999 47.438 53.9999 47.438 54.2499 44.563C54.4974 43.8617 54.7449 43.1605 54.9999 42.438Z" fill="#F49770"/>
<path d="M79 118.438C80.9453 118.68 80.9453 118.68 83.125 119.313C83.8495 119.517 84.5739 119.72 85.3203 119.93C85.8746 120.098 86.4289 120.265 87 120.438C87.33 121.758 87.66 123.078 88 124.438C85.3125 125.25 85.3125 125.25 82 125.438C79.125 123 79.125 123 77 120.438C77.66 119.778 78.32 119.118 79 118.438Z" fill="#505B2F"/>
<path d="M96 99.438C96.33 100.428 96.66 101.418 97 102.438C93.5761 106.265 90.9928 108.161 86 109.438C87.3516 105.015 89.1989 103.034 93 100.438C93.99 100.108 94.98 99.778 96 99.438Z" fill="#683725"/>
<path d="M75 86.4378C74.0719 87.0359 73.1438 87.634 72.1875 88.2503C69.7975 89.8905 67.9153 91.3096 66 93.4378C63.6483 92.8391 61.3141 92.1685 59 91.4378C58.67 90.7778 58.34 90.1178 58 89.4378C60.0182 89.4703 62.0365 89.5029 64.0547 89.5354C66.0819 89.5642 66.0819 89.5642 68 88.4378C65.69 88.1078 63.38 87.7778 61 87.4378C61 87.1078 61 86.7778 61 86.4378C62.77 86.2424 64.541 86.0568 66.3125 85.8753C67.2986 85.7708 68.2848 85.6664 69.3008 85.5588C72 85.4378 72 85.4378 75 86.4378Z" fill="#AF252D"/>
<path d="M36 72.438C38.1875 72.1255 38.1875 72.1255 41 72.438C43.8125 74.813 43.8125 74.813 46 77.438C46 78.098 46 78.758 46 79.438C41.4852 78.9068 38.6533 77.0718 35 74.438C35.33 73.778 35.66 73.118 36 72.438Z" fill="#FEDBC6"/>
<path d="M60 109.438C61 112.438 61 112.438 59.9375 114.938C57.5755 117.986 55.6036 119.114 52 120.438C49.625 120.125 49.625 120.125 48 119.438C51.625 116.438 51.625 116.438 55 116.438C55.2681 115.654 55.5363 114.87 55.8125 114.063C57 111.438 57 111.438 60 109.438Z" fill="#575830"/>
<path d="M20.0001 49.438C20.3301 52.078 20.6601 54.718 21.0001 57.438C20.3401 57.108 19.6801 56.778 19.0001 56.438C19.0001 58.088 19.0001 59.738 19.0001 61.438C17.5001 60.438 17.5001 60.438 16.0001 58.438C15.7266 55.7195 15.8652 53.1812 16.0001 50.438C18.0001 49.438 18.0001 49.438 20.0001 49.438Z" fill="#8B4E42"/>
<path d="M84.1873 55.8128C85.0845 56.1222 85.0845 56.1222 85.9998 56.4378C85.9998 56.7678 85.9998 57.0978 85.9998 57.4378C85.0716 57.6441 84.1435 57.8503 83.1873 58.0628C79.8272 59.1721 79.8272 59.1721 78.1873 62.1253C76.9456 65.589 76.3652 68.7832 75.9998 72.4378C75.6698 72.4378 75.3398 72.4378 74.9998 72.4378C74.8048 70.9804 74.6191 69.5219 74.4373 68.0628C74.3328 67.2507 74.2284 66.4386 74.1209 65.6019C73.9998 63.4378 73.9998 63.4378 74.9998 61.4378C75.6598 61.4378 76.3198 61.4378 76.9998 61.4378C77.2679 60.8191 77.536 60.2003 77.8123 59.5628C79.4111 56.7017 80.7995 55.2321 84.1873 55.8128Z" fill="#F8A37D"/>
<path d="M27.9998 120.438C28.3298 121.098 28.6598 121.758 28.9998 122.438C29.6598 122.768 30.3198 123.098 30.9998 123.438C30.6698 124.098 30.3398 124.758 29.9998 125.438C31.3198 125.438 32.6398 125.438 33.9998 125.438C33.9998 126.098 33.9998 126.758 33.9998 127.438C33.3398 127.438 32.6798 127.438 31.9998 127.438C31.3398 128.758 30.6798 130.078 29.9998 131.438C29.3398 131.108 28.6798 130.778 27.9998 130.438C26.8856 126.791 27.0569 124.105 27.9998 120.438Z" fill="#B2A47A"/>
<path d="M60 98.438C62.97 98.438 65.94 98.438 69 98.438C66.75 102.938 66.75 102.938 63 104.438C60 100.688 60 100.688 60 98.438Z" fill="#E7986F"/>
<path d="M56 85.438C60.29 86.098 64.58 86.758 69 87.438C66 90.438 66 90.438 63.0625 90.813C59.7332 90.4053 58.3509 89.7889 56 87.438C56 86.778 56 86.118 56 85.438Z" fill="white"/>
<path d="M108 67.438C108.625 69.188 108.625 69.188 109 71.438C108.333 72.7713 107.667 74.1047 107 75.438C106.833 78.6049 106.833 78.6049 107 81.438C106.01 81.108 105.02 80.778 104 80.438C104.33 81.428 104.66 82.418 105 83.438C104.34 83.438 103.68 83.438 103 83.438C102.25 80.7505 102.25 80.7505 102 77.438C103.812 74.8755 103.812 74.8755 106 72.438C107.24 69.7585 107.24 69.7585 108 67.438Z" fill="#2D1511"/>
<path d="M65.9999 214.438C66.3299 215.098 66.6599 215.758 66.9999 216.438C67.6599 216.438 68.3199 216.438 68.9999 216.438C68.9999 223.038 68.9999 229.638 68.9999 236.438C68.6699 236.438 68.3399 236.438 67.9999 236.438C67.6629 233.709 67.3302 230.98 66.9999 228.25C66.9045 227.482 66.8091 226.713 66.7108 225.92C66.248 222.069 65.8752 218.326 65.9999 214.438Z" fill="#74512D"/>
<path d="M47 96.438C48.5159 96.6855 48.5159 96.6855 50.0625 96.938C53.7626 97.4078 57.2761 97.514 61 97.438C58.5367 99.9013 57.525 99.7634 54.125 100C50.9645 100.232 48.0541 100.579 45 101.438C45 100.778 45 100.118 45 99.438C45.66 99.438 46.32 99.438 47 99.438C47 98.448 47 97.458 47 96.438Z" fill="#1D110E"/>
<path d="M19 63.438C19.33 63.438 19.66 63.438 20 63.438C20 65.418 20 67.398 20 69.438C20.66 69.438 21.32 69.438 22 69.438C22 72.738 22 76.038 22 79.438C19.8481 76.2101 19.7991 75.154 20 71.438C18.68 71.108 17.36 70.778 16 70.438C16.99 68.128 17.98 65.818 19 63.438Z" fill="#1E100E"/>
<path d="M47 61.438C47.99 61.768 48.98 62.098 50 62.438C49.67 63.428 49.34 64.418 49 65.438C48.9608 67.4376 48.9556 69.4385 49 71.438C47.68 70.778 46.36 70.118 45 69.438C44.875 66.563 44.875 66.563 45 63.438C45.66 62.778 46.32 62.118 47 61.438Z" fill="#27110B"/>
<path d="M61 133.438C63.8151 134.053 66.6266 134.679 69.4375 135.313C70.2399 135.487 71.0424 135.661 71.8691 135.84C73.9282 136.309 75.9666 136.868 78 137.438C78.33 138.098 78.66 138.758 79 139.438C66.3303 138.843 66.3303 138.843 61 135.438C61 134.778 61 134.118 61 133.438Z" fill="#8E7341"/>
<path d="M74 102.438C74.66 102.438 75.32 102.438 76 102.438C76 104.748 76 107.058 76 109.438C73.03 108.448 70.06 107.458 67 106.438C67 105.448 67 104.458 67 103.438C69.31 103.768 71.62 104.098 74 104.438C74 103.778 74 103.118 74 102.438Z" fill="#3C4323"/>
<path d="M51 53.438C53.375 55.438 53.375 55.438 55 57.438C54.01 57.438 53.02 57.438 52 57.438C51.34 56.778 50.68 56.118 50 55.438C47.3842 55.7649 45.3592 56.2584 43 57.438C42.2731 59.4168 41.6018 61.4175 41 63.438C40.3125 61.7505 40.3125 61.7505 40 59.438C42.7011 53.9072 44.869 52.8249 51 53.438Z" fill="#F8A37D"/>
<path d="M24 47.438C24 50.408 24 53.378 24 56.438C23.01 56.768 22.02 57.098 21 57.438C20.67 54.468 20.34 51.498 20 48.438C23 47.438 23 47.438 24 47.438Z" fill="#472216"/>
<path d="M66 110.438C66.66 110.438 67.32 110.438 68 110.438C68.3919 111.036 68.7838 111.634 69.1875 112.25C71.7261 115.314 74.2991 116.041 78 117.438C78 118.098 78 118.758 78 119.438C73.4818 118.906 70.5471 117.26 67 114.438C66.125 112.188 66.125 112.188 66 110.438Z" fill="#3A4323"/>
<path d="M37 144.438C37.33 144.438 37.66 144.438 38 144.438C38.0864 145.041 38.1727 145.645 38.2617 146.266C39.2104 151.721 39.2104 151.721 42.625 156C43.4088 156.475 44.1925 156.949 45 157.438C42.125 157.563 42.125 157.563 39 157.438C37 155.438 37 155.438 36.8047 152.836C36.8279 151.839 36.8511 150.841 36.875 149.813C36.893 148.81 36.9111 147.807 36.9297 146.774C36.9529 146.003 36.9761 145.232 37 144.438Z" fill="#B2A074"/>
<path d="M64 111.438C67.3734 112.562 68.6007 113.884 71 116.438C71.66 117.098 72.32 117.758 73 118.438C70.03 118.108 67.06 117.778 64 117.438C63 114.438 63 114.438 64 111.438Z" fill="#DBD7BD"/>
<path d="M41 47.438C42.5 48.813 42.5 48.813 44 50.438C44 51.098 44 51.758 44 52.438C43.3813 52.5411 42.7625 52.6442 42.125 52.7505C39.6347 53.3132 39.6347 53.3132 38 56.438C35.875 57.1255 35.875 57.1255 34 57.438C33.67 56.448 33.34 55.458 33 54.438C33.5775 54.3967 34.155 54.3555 34.75 54.313C38.1331 52.9973 39.1922 50.4725 41 47.438Z" fill="#EE835A"/>
<path d="M101 44.438C105.455 45.428 105.455 45.428 110 46.438C109.34 47.098 108.68 47.758 108 48.438C105.875 48.063 105.875 48.063 104 47.438C104.33 49.418 104.66 51.398 105 53.438C104.01 53.933 104.01 53.933 103 54.438C102.34 51.138 101.68 47.838 101 44.438Z" fill="#876B54"/>
<path d="M108 39.438C110.5 38.938 110.5 38.938 114 39.438C116.954 41.8518 119.484 44.577 122 47.438C121.67 48.428 121.34 49.418 121 50.438C120.484 49.6955 119.969 48.953 119.438 48.188C116.517 44.8935 113.862 43.5121 110 41.438C109.34 40.778 108.68 40.118 108 39.438Z" fill="#9A9D80"/>
<path d="M38.9998 145.438C41.1721 148.697 43.071 152.03 44.9998 155.438C42.6248 155.125 42.6248 155.125 39.9998 154.438C37.8517 151.216 37.7059 150.16 37.9998 146.438C38.3298 146.108 38.6598 145.778 38.9998 145.438Z" fill="#D8D2B6"/>
<path d="M105 86.4379C105.33 88.0879 105.66 89.7379 106 91.4379C105.34 90.4479 104.68 89.4579 104 88.4379C100.37 88.7679 96.74 89.0979 93 89.4379C94 86.4379 94 86.4379 96.1875 85.1254C99.7422 84.2565 101.676 85.0466 105 86.4379Z" fill="#462116"/>
<path d="M47 42.438C47.33 45.408 47.66 48.378 48 51.438C44 49.438 44 49.438 42.75 46.313C42.5025 45.3642 42.255 44.4155 42 43.438C45.875 42.438 45.875 42.438 47 42.438Z" fill="#311711"/>
<path d="M123 54.438C123.66 54.768 124.32 55.098 125 55.438C124.632 58.09 124.313 59.1764 122.223 60.9224C121.51 61.34 120.797 61.7577 120.062 62.188C118.997 62.8299 118.997 62.8299 117.91 63.4849C116 64.438 116 64.438 114 64.438C115 61.438 115 61.438 116.594 60.3755C118.5 59.438 118.5 59.438 120.406 58.5005C122.338 57.4485 122.338 57.4485 123 54.438Z" fill="#5E5237"/>
<path d="M33 45.438C32.67 47.748 32.34 50.058 32 52.438C31.34 52.108 30.68 51.778 30 51.438C30 53.088 30 54.738 30 56.438C29.34 56.108 28.68 55.778 28 55.438C28 52.468 28 49.498 28 46.438C30 45.438 30 45.438 33 45.438Z" fill="#884C40"/>
<path d="M37 245.438C37.99 245.768 38.98 246.098 40 246.438C40.33 247.428 40.66 248.418 41 249.438C40.3812 249.665 39.7625 249.892 39.125 250.125C36.3859 251.817 35.9498 253.43 35 256.438C34.67 256.438 34.34 256.438 34 256.438C34.468 252.382 34.8795 248.972 37 245.438Z" fill="#1E120D"/>
<path d="M79.9999 97.438C81.1614 100.922 80.9999 103.779 80.9999 107.438C81.4284 109.748 81.4284 109.748 81.9999 111.438C79.9999 110.438 79.9999 110.438 77.9999 108.438C77.2104 104.032 77.5045 101.181 79.9999 97.438Z" fill="#8D5044"/>
<path d="M102 61.438C102.33 63.748 102.66 66.058 103 68.438C101.68 69.428 100.36 70.418 99 71.438C99.33 69.458 99.66 67.478 100 65.438C99.34 65.438 98.68 65.438 98 65.438C98 64.448 98 63.458 98 62.438C100 61.438 100 61.438 102 61.438Z" fill="#FCA179"/>
<path d="M24.0001 59.438C24.9901 59.438 25.9801 59.438 27.0001 59.438C26.8144 60.1599 26.6288 60.8817 26.4376 61.6255C25.9801 64.5663 26.2649 66.579 27.0001 69.438C26.3401 69.438 25.6801 69.438 25.0001 69.438C23.1494 66.315 22.7065 64.0586 23.0001 60.438C23.3301 60.108 23.6601 59.778 24.0001 59.438Z" fill="#FC986E"/>
<path d="M65 130.438C68.3 130.438 71.6 130.438 75 130.438C75 131.428 75 132.418 75 133.438C71.37 133.438 67.74 133.438 64 133.438C64.33 132.448 64.66 131.458 65 130.438Z" fill="#DBD7BD"/>
<path d="M37.3594 112.364C38.1483 112.491 38.9372 112.619 39.75 112.75C40.5492 112.87 41.3484 112.99 42.1719 113.114C42.7752 113.221 43.3784 113.328 44 113.438C44 114.098 44 114.758 44 115.438C39.71 115.438 35.42 115.438 31 115.438C35 112.438 35 112.438 37.3594 112.364Z" fill="#FCD2C4"/>
<path d="M117 53.438C119.475 53.933 119.475 53.933 122 54.438C122 55.758 122 57.078 122 58.438C120.02 59.428 120.02 59.428 118 60.438C117.67 58.128 117.34 55.818 117 53.438Z" fill="#9C926E"/>
<path d="M66 42.4379C71.285 41.9094 71.285 41.9094 74 42.4379C76.5 45.4379 76.5 45.4379 78 48.4379C76.0625 48.0629 76.0625 48.0629 74 47.4379C73.67 46.7779 73.34 46.1179 73 45.4379C71.1047 44.9726 71.1047 44.9726 68.9375 44.8129C67.6381 44.6891 66.3388 44.5654 65 44.4379C65.33 43.7779 65.66 43.1179 66 42.4379Z" fill="#F3936C"/>
<path d="M38 234.438C38.66 234.438 39.32 234.438 40 234.438C39.34 238.068 38.68 241.698 38 245.438C37.34 245.438 36.68 245.438 36 245.438C36.1404 243.792 36.2875 242.146 36.4375 240.5C36.5187 239.584 36.5999 238.667 36.6836 237.723C37 235.438 37 235.438 38 234.438Z" fill="#775731"/>
<path d="M65 124.438C65.33 124.438 65.66 124.438 66 124.438C66 126.088 66 127.738 66 129.438C70.95 127.953 70.95 127.953 76 126.438C75.67 127.758 75.34 129.078 75 130.438C71.7 130.438 68.4 130.438 65 130.438C65 128.458 65 126.478 65 124.438Z" fill="#FC9B73"/>
<path d="M83 95.4378C81.375 97.5003 81.375 97.5003 79 99.4378C75.75 99.1878 75.75 99.1878 73 98.4378C76.1556 95.2822 78.69 94.0011 83 95.4378Z" fill="#2D1511"/>
<path d="M50 61.438C50.66 61.768 51.32 62.098 52 62.438C51.67 65.078 51.34 67.718 51 70.438C50.34 70.438 49.68 70.438 49 70.438C48.375 67.063 48.375 67.063 48 63.438C48.66 62.778 49.32 62.118 50 61.438Z" fill="white"/>
<path d="M51.0001 42.438C51.6601 42.438 52.3201 42.438 53.0001 42.438C53.3301 45.408 53.6601 48.378 54.0001 51.438C50.0001 49.438 50.0001 49.438 49.1251 47.5005C49.0001 45.438 49.0001 45.438 51.0001 42.438Z" fill="#2D1511"/>
<path d="M72 99.438C73.32 99.768 74.64 100.098 76 100.438C76 101.098 76 101.758 76 102.438C75.34 102.438 74.68 102.438 74 102.438C74 103.098 74 103.758 74 104.438C72.02 104.438 70.04 104.438 68 104.438C69.32 102.788 70.64 101.138 72 99.438Z" fill="#868750"/>
<path d="M93 86.438C93.33 87.098 93.66 87.758 94 88.438C93.3812 89.1805 92.7625 89.923 92.125 90.688C90.3956 92.926 89.1389 94.8754 88 97.438C87.6875 94.7505 87.6875 94.7505 88 91.438C90.5 88.563 90.5 88.563 93 86.438Z" fill="#844A3F"/>
<path d="M67 72.438C68.4018 75.0547 69.605 77.4752 70 80.438C69.34 81.098 68.68 81.758 68 82.438C65.375 82.063 65.375 82.063 63 81.438C63 81.108 63 80.778 63 80.438C64.65 80.438 66.3 80.438 68 80.438C67.67 79.778 67.34 79.118 67 78.438C66.96 76.4384 66.9565 74.4375 67 72.438Z" fill="#AE2B18"/>
<path d="M21.9999 58.438C24.4949 60.933 24.3593 62.1113 24.6249 65.563C24.6996 66.4731 24.7744 67.3831 24.8514 68.3208C24.9249 69.3688 24.9249 69.3688 24.9999 70.438C21.9999 68.438 21.9999 68.438 21.453 66.563C21.386 65.8617 21.3189 65.1605 21.2499 64.438C21.1725 63.7367 21.0952 63.0355 21.0155 62.313C20.9999 60.438 20.9999 60.438 21.9999 58.438Z" fill="#B42E20"/>
<path d="M6 56.438C6.66 56.768 7.32 57.098 8 57.438C8 59.418 8 61.398 8 63.438C6.0625 62.6255 6.0625 62.6255 4 61.438C3.67 60.448 3.34 59.458 3 58.438C3.99 57.778 4.98 57.118 6 56.438Z" fill="#9C926E"/>
<path d="M75 109.438C75.66 109.768 76.32 110.098 77 110.438C77 112.748 77 115.058 77 117.438C72.125 114.813 72.125 114.813 71 111.438C72.32 111.768 73.64 112.098 75 112.438C75 111.448 75 110.458 75 109.438Z" fill="#83834D"/>
<path d="M88 109.438C88.99 109.768 89.98 110.098 91 110.438C89.5026 111.642 88.0052 112.847 86.5078 114.051C84.7471 115.561 84.7471 115.561 83 118.438C82.67 117.778 82.34 117.118 82 116.438C83.6847 113.068 84.8192 111.559 88 109.438Z" fill="#8D5044"/>
<path d="M59 105.438C59.99 105.438 60.98 105.438 62 105.438C62 107.748 62 110.058 62 112.438C61.34 111.778 60.68 111.118 60 110.438C58.02 111.428 58.02 111.428 56 112.438C56.66 111.118 57.32 109.798 58 108.438C58.66 108.438 59.32 108.438 60 108.438C59.67 107.448 59.34 106.458 59 105.438Z" fill="#33381C"/>
<path d="M50 99.438C53.3125 99.1255 53.3125 99.1255 57 99.438C58.9375 101.938 58.9375 101.938 60 104.438C52.4286 102.581 52.4286 102.581 50 99.438Z" fill="#81824C"/>
<path d="M49.0625 59.3755C50.5166 59.4064 50.5166 59.4064 52 59.438C52.33 60.428 52.66 61.418 53 62.438C52.0719 62.3967 51.1438 62.3555 50.1875 62.313C46.8419 62.1666 46.8419 62.1666 44 64.438C45.125 59.4558 45.125 59.4558 49.0625 59.3755Z" fill="#B47637"/>
<path d="M63 184.438C66 187.438 66 187.438 66.3125 190.5C66 193.438 66 193.438 64 195.438C63.67 191.808 63.34 188.178 63 184.438Z" fill="#775831"/>
<path d="M63 116.438C64.32 116.768 65.64 117.098 67 117.438C67 118.098 67 118.758 67 119.438C67.99 119.768 68.98 120.098 70 120.438C66.25 121.563 66.25 121.563 64 120.438C63.67 121.098 63.34 121.758 63 122.438C63 120.458 63 118.478 63 116.438Z" fill="#C4B894"/>
<path d="M61 117.438C61 119.088 61 120.738 61 122.438C59.02 122.438 57.04 122.438 55 122.438C55 121.778 55 121.118 55 120.438C59.5 117.438 59.5 117.438 61 117.438Z" fill="#B3A074"/>
<path d="M58 92.438C60.64 92.768 63.28 93.098 66 93.438C65.67 94.098 65.34 94.758 65 95.438C61.7159 96.3887 60.3031 96.539 57 95.438C57.33 94.448 57.66 93.458 58 92.438Z" fill="#F29F85"/>
<path d="M66 72.438C66.33 72.438 66.66 72.438 67 72.438C67.33 75.078 67.66 77.718 68 80.438C66.68 79.778 65.36 79.118 64 78.438C64.875 73.563 64.875 73.563 66 72.438Z" fill="#FDD8C3"/>
<path d="M55 42.438C55.99 42.768 56.98 43.098 58 43.438C57.67 45.748 57.34 48.058 57 50.438C55.4375 49.2505 55.4375 49.2505 54 47.438C54.3125 44.7505 54.3125 44.7505 55 42.438Z" fill="#E97247"/>
<path d="M43 169.438C47.7517 169.87 49.92 170.766 53 174.438C49.0879 173.282 46.1255 172.083 43 169.438Z" fill="#67351A"/>
<path d="M61 123.438C61.66 123.768 62.32 124.098 63 124.438C63.1875 127.313 63.1875 127.313 63 130.438C62.01 131.098 61.02 131.758 60 132.438C60.33 129.468 60.66 126.498 61 123.438Z" fill="#F3EEDE"/>
<path d="M87 46.438C92.6615 48.8995 92.6615 48.8995 94.375 51.6255C94.5813 52.2236 94.7875 52.8217 95 53.438C91.6627 52.2654 89.2256 51.2493 87 48.438C87 47.778 87 47.118 87 46.438Z" fill="#2D1511"/>
<path d="M86 44.438C88.375 44.688 88.375 44.688 91 45.438C92.3125 47.5005 92.3125 47.5005 93 49.438C89.3468 48.1882 88.2193 47.767 86 44.438Z" fill="#8D5044"/>
<path d="M88 128.438C88.66 128.768 89.32 129.098 90 129.438C89.75 131.313 89.75 131.313 89 133.438C86.9375 134.688 86.9375 134.688 85 135.438C86.875 129.563 86.875 129.563 88 128.438Z" fill="#8D5044"/>
<path d="M67 107.438C70.6742 107.744 71.7814 108.196 74.3125 111C75.1478 112.207 75.1478 112.207 76 113.438C72.0633 112.126 69.7728 110.519 67 107.438Z" fill="#393A1C"/>
</svg>
