<svg width="736" height="441" viewBox="0 0 736 441" fill="none" xmlns="http://www.w3.org/2000/svg">
<path fill-rule="evenodd" clip-rule="evenodd" d="M0 359.325H0.392335C0.856207 363.679 4.782 367.079 9.45618 367.079H204.547C209.577 367.079 213.682 363.168 213.682 358.408V358.372C213.682 353.612 209.577 349.703 204.547 349.703H201.941C200.656 345.214 196.125 341.916 190.736 341.916C189.344 341.916 188.025 342.153 186.81 342.527C185.349 335.692 178.531 330.49 170.36 330.49C169.54 330.49 168.754 330.559 167.969 330.661C165.615 322.363 157.228 316.243 147.2 316.243C144.988 316.243 142.811 316.55 140.813 317.092C136.745 311.788 130.037 308.321 122.505 308.321C114.834 308.321 108.053 311.89 104.021 317.332C100.631 312.503 94.4937 309.271 87.4639 309.271C78.578 309.271 71.1206 314.407 68.8367 321.445C66.9095 320.97 64.8752 320.73 62.7701 320.73C51.7073 320.73 42.3581 327.6 39.2889 337.054C37.7903 336.678 36.2199 336.476 34.5786 336.476C25.6218 336.476 18.3423 342.358 17.9854 349.703H9.45618C4.42451 349.703 0.321416 353.612 0.321416 358.372V358.408L0.356876 358.917L0 359.325Z" fill="#F0F0EE"/>
<path fill-rule="evenodd" clip-rule="evenodd" d="M371.118 288.263H569.828C575.597 288.263 580.279 283.799 580.279 278.303C580.279 274.165 577.652 270.627 573.883 269.105C574.168 267.907 574.339 266.71 574.339 265.459C574.339 257.349 567.2 250.817 558.347 250.817C557.547 250.817 556.805 250.872 556.005 250.925C553.321 243.089 545.323 237.374 535.842 237.374C533.673 237.374 531.615 237.647 529.673 238.191C527.16 228.339 517.452 221.047 505.857 221.047C502.315 221.047 498.945 221.699 495.918 222.951C490.892 217.78 483.41 214.57 475.128 214.57C464.447 214.57 455.136 219.959 450.623 227.85C447.426 226.381 443.828 225.618 440 225.618C430.863 225.618 422.923 230.245 418.697 237.156C415.784 236.068 412.584 235.415 409.271 235.415C397.563 235.415 387.739 242.926 385.281 252.994C384.939 252.941 384.539 252.941 384.139 252.941C374.602 252.941 366.834 259.744 366.834 268.125V268.343C361.408 268.724 357.123 273.077 357.123 278.303C357.123 283.799 361.865 288.263 367.634 288.263H371.118Z" fill="#F0F0EE"/>
<path fill-rule="evenodd" clip-rule="evenodd" d="M526.06 440.772H724.77C730.539 440.772 735.221 436.309 735.221 430.812C735.221 426.675 732.594 423.137 728.826 421.614C729.11 420.416 729.281 419.219 729.281 417.968C729.281 409.858 722.142 403.326 713.289 403.326C712.489 403.326 711.747 403.381 710.947 403.434C708.263 395.598 700.266 389.883 690.784 389.883C688.615 389.883 686.558 390.156 684.616 390.7C682.102 380.848 672.394 373.556 660.799 373.556C657.257 373.556 653.887 374.208 650.86 375.46C645.834 370.289 638.352 367.079 630.07 367.079C619.389 367.079 610.079 372.468 605.566 380.359C602.368 378.89 598.77 378.128 594.942 378.128C585.805 378.128 577.865 382.754 573.639 389.665C570.726 388.577 567.526 387.925 564.213 387.925C552.505 387.925 542.681 395.435 540.224 405.503C539.881 405.45 539.481 405.45 539.081 405.45C529.544 405.45 521.776 412.253 521.776 420.634V420.852C516.35 421.233 512.066 425.586 512.066 430.812C512.066 436.309 516.807 440.772 522.576 440.772H526.06Z" fill="#F0F0EE"/>
<path fill-rule="evenodd" clip-rule="evenodd" d="M265.73 75.0935C265.209 75.0621 264.681 75.0464 264.151 75.0464C263.576 75.0464 263.052 75.0464 262.477 75.0955C263.104 73.4001 263.471 71.5535 263.471 69.6577C263.471 60.4265 255.459 52.9417 245.615 52.9417C244.829 52.9417 244.149 52.9417 243.415 53.0419C243.469 52.2423 243.52 51.4447 243.52 50.6471C243.52 36.3258 231.109 24.6507 215.82 24.6507C211.787 24.6507 207.965 25.4974 204.508 26.9452C199.692 19.2601 190.633 14.0718 180.211 14.0718C178.222 14.0718 176.284 14.2702 174.399 14.6199C170.472 6.03693 160.994 -7.62939e-06 149.944 -7.62939e-06C136.547 -7.62939e-06 125.472 8.87568 123.724 20.3956C118.531 14.8301 110.983 11.3038 102.553 11.3038C86.894 11.3038 74.2002 23.3993 74.2002 38.3198C74.2002 39.5712 74.321 40.7912 74.4933 41.9974C59.5835 42.791 47.7395 54.5309 47.7387 68.9367C47.7387 83.4781 60.4766 95.8742 75.7433 96.0254C95.7389 96.2199 115.782 95.9527 135.793 95.9527C158.5 95.9527 181.207 95.9527 203.914 95.9527C221.04 95.9527 238.168 95.9527 255.296 95.9527C258.43 95.9527 261.566 95.9527 264.702 95.9527C278.655 95.9527 279.657 75.9265 265.73 75.0935Z" fill="#F0F0EE"/>
</svg>
