<svg width="1140" height="311" viewBox="0 0 1140 311" fill="none" xmlns="http://www.w3.org/2000/svg">
<path fill-rule="evenodd" clip-rule="evenodd" d="M142.617 65.0434C180.969 70.9881 220.423 63.9839 255.021 44.6171C305.774 16.1839 364.052 0 426.01 0C514.581 0 595.631 33.0695 657.922 87.7425C696.909 121.957 747.932 137.478 798.467 130.494C814.323 128.278 830.51 127.139 846.958 127.139C968.46 127.139 1075.82 189.373 1140 284.237H142.617V65.0434Z" fill="#2F8779"/>
<path fill-rule="evenodd" clip-rule="evenodd" d="M46.6252 49.7896C190.622 1.04962 273.737 41.127 378.344 112.173C403.402 129.191 427.951 149.911 460.494 158.74C527.646 176.959 599.663 148.615 668.363 167.145C689.143 172.751 771.575 226.405 768.311 242.761C766.624 251.207 749.072 259.542 740.86 263.849C658.248 307.178 531.838 290.838 437.407 288.716C385.604 287.553 333.897 289.702 282.418 294.106C226.409 298.896 119.82 321.513 66.4774 304.806C41.3487 296.937 20.6045 280.726 8.958 262.283C-12.0085 229.085 5.15395 80.1166 46.6252 49.7896Z" fill="#2B7C70"/>
</svg>
