<svg width="1616" height="482" viewBox="0 0 1616 482" fill="none" xmlns="http://www.w3.org/2000/svg">
<path fill-rule="evenodd" clip-rule="evenodd" d="M1413.83 100.85C1359.47 110.067 1303.54 99.2071 1254.5 69.179C1182.55 25.0931 1099.94 6.10352e-05 1012.11 6.10352e-05C886.559 6.10352e-05 771.667 51.2744 683.367 136.045C628.1 189.095 555.774 213.16 484.138 202.331C461.661 198.895 438.716 197.13 415.4 197.13C243.166 197.13 90.9824 293.623 -6.10352e-05 440.71H1413.83V100.85Z" fill="#2F8779"/>
<path fill-rule="evenodd" clip-rule="evenodd" d="M1549.91 77.1988C1345.78 1.62741 1227.97 63.7674 1079.68 173.923C1044.16 200.311 1009.36 232.437 963.23 246.127C868.039 274.375 765.951 230.427 668.566 259.158C639.109 267.851 522.258 351.04 526.886 376.401C529.277 389.496 554.158 402.419 565.798 409.098C682.905 476.279 862.096 450.944 995.956 447.653C1069.39 445.851 1142.69 449.183 1215.66 456.012C1295.06 463.438 1446.15 498.506 1521.77 472.602C1557.39 460.4 1586.79 435.265 1603.3 406.67C1633.02 355.196 1608.69 124.221 1549.91 77.1988Z" fill="#2B7C70"/>
</svg>
