<svg width="1809" height="525" viewBox="0 0 1809 525" fill="none" xmlns="http://www.w3.org/2000/svg">
<path fill-rule="evenodd" clip-rule="evenodd" d="M226.31 109.847C287.169 119.886 349.776 108.058 404.678 75.3506C485.215 27.3318 577.694 0.000152588 676.011 0.000152588C816.558 0.000152588 945.172 55.8487 1044.02 148.182C1105.89 205.965 1186.85 232.176 1267.04 220.381C1292.2 216.639 1317.89 214.716 1343.99 214.716C1536.79 214.716 1707.15 319.817 1809 480.027H226.31V109.847Z" fill="#2F8779"/>
<path fill-rule="evenodd" clip-rule="evenodd" d="M73.9868 84.0858C302.487 1.77258 434.377 69.4562 600.372 189.439C640.135 218.181 679.09 253.173 730.731 268.084C837.29 298.852 951.571 250.984 1060.59 282.278C1093.56 291.746 1224.37 382.357 1219.19 409.981C1216.51 424.244 1188.66 438.319 1175.63 445.594C1044.54 518.769 843.943 491.173 694.096 487.589C611.893 485.626 529.841 489.256 448.153 496.694C359.275 504.782 190.136 542.978 105.489 514.763C65.6138 501.473 32.6961 474.096 14.2149 442.95C-19.0556 386.884 8.17851 135.303 73.9868 84.0858Z" fill="#2B7C70"/>
</svg>
