<svg width="1280" height="1274" viewBox="0 0 1280 1274" fill="none" xmlns="http://www.w3.org/2000/svg">
<mask id="mask0_90_4" style="mask-type:luminance" maskUnits="userSpaceOnUse" x="325" y="258" width="1224" height="686">
<path d="M325.611 944H1548.38V258.437H325.611V944Z" fill="white"/>
</mask>
<g mask="url(#mask0_90_4)">
<path fill-rule="evenodd" clip-rule="evenodd" d="M910.662 876.623L675.404 404.803L424.508 881.924L910.662 876.623Z" fill="#4DB6A4"/>
</g>
<mask id="mask1_90_4" style="mask-type:luminance" maskUnits="userSpaceOnUse" x="425" y="399" width="487" height="483">
<path fill-rule="evenodd" clip-rule="evenodd" d="M911.216 876.533L676.198 399.851L425.558 881.888L911.216 876.533Z" fill="white"/>
</mask>
<g mask="url(#mask1_90_4)">
<path fill-rule="evenodd" clip-rule="evenodd" d="M757.749 369.352L676.198 399.851L687.579 956.747L911.216 897.593L757.749 369.352Z" fill="#42998D"/>
<path fill-rule="evenodd" clip-rule="evenodd" d="M803.044 624.232L783.183 616.847C783.183 616.847 762.592 599.388 748.175 587.166C746.073 585.384 742.934 584.953 740.318 586.088C737.704 587.224 736.171 589.682 736.486 592.242C738.299 607.062 740.984 628.999 743.121 646.476C743.472 649.339 741.518 652.029 738.426 652.942C735.334 653.854 731.943 652.741 730.276 650.268C722.794 639.17 714.216 626.446 707.98 617.195C706.536 615.053 703.768 613.9 700.98 614.275C698.192 614.651 695.94 616.481 695.284 618.904C694.082 623.345 692.713 628.408 691.328 633.521C690.551 636.39 687.572 638.361 684.236 638.212C680.902 638.063 678.163 635.835 677.719 632.913C675.425 617.841 672.802 600.584 670.92 588.218C670.532 585.667 668.381 583.603 665.535 583.052C662.69 582.502 659.758 583.582 658.198 585.755C649.614 597.715 637.394 614.74 628.814 626.693C627.256 628.868 624.325 629.946 621.481 629.398C618.635 628.848 616.482 626.786 616.092 624.237C614.489 613.768 612.456 600.506 611.018 591.107C610.67 588.831 608.909 586.92 606.458 586.154C604.008 585.391 601.277 585.901 599.389 587.478C579.313 604.241 535.442 640.871 535.442 640.871L674.96 378.404L803.044 624.232Z" fill="#B5E4DD"/>
</g>
<mask id="mask2_90_4" style="mask-type:luminance" maskUnits="userSpaceOnUse" x="424" y="402" width="487" height="478">
<path fill-rule="evenodd" clip-rule="evenodd" d="M910.304 874.131L675.046 402.31L424.15 879.431L910.304 874.131Z" fill="white"/>
</mask>
<g mask="url(#mask2_90_4)">
<mask id="mask3_90_4" style="mask-type:luminance" maskUnits="userSpaceOnUse" x="534" y="381" width="269" height="273">
<path fill-rule="evenodd" clip-rule="evenodd" d="M802.021 624.403L782.141 617.094C782.141 617.094 761.528 599.813 747.096 587.716C744.992 585.951 741.85 585.525 739.232 586.648C736.615 587.773 735.082 590.206 735.395 592.739C737.21 607.409 739.898 629.122 742.038 646.421C742.389 649.254 740.433 651.917 737.338 652.82C734.243 653.724 730.847 652.622 729.179 650.174C721.69 639.189 713.103 626.595 706.86 617.438C705.415 615.318 702.645 614.177 699.854 614.547C697.063 614.92 694.808 616.731 694.151 619.13C692.948 623.526 691.576 628.536 690.191 633.598C689.414 636.437 686.43 638.389 683.093 638.241C679.755 638.093 677.013 635.888 676.568 632.994C674.273 618.077 671.647 600.996 669.763 588.757C669.374 586.232 667.221 584.189 664.372 583.643C661.525 583.099 658.589 584.168 657.027 586.319C648.435 598.157 636.203 615.008 627.614 626.839C626.054 628.99 623.121 630.061 620.273 629.517C617.424 628.972 615.269 626.931 614.879 624.408C613.274 614.046 611.24 600.919 609.8 591.616C609.451 589.363 607.688 587.471 605.235 586.714C602.782 585.956 600.049 586.463 598.159 588.024C578.063 604.615 534.146 640.871 534.146 640.871L673.807 381.083L802.021 624.403Z" fill="white"/>
</mask>
<g mask="url(#mask3_90_4)">
<path fill-rule="evenodd" clip-rule="evenodd" d="M756.68 372.122L675.046 402.31L686.439 953.528L910.304 894.977L756.68 372.122Z" fill="#9ADCD2"/>
</g>
</g>
<mask id="mask4_90_4" style="mask-type:luminance" maskUnits="userSpaceOnUse" x="-6" y="84" width="1263" height="798">
<path d="M-5.13156 881.138H1256.06V84.6429H-5.13156V881.138Z" fill="white"/>
</mask>
<g mask="url(#mask4_90_4)">
<path fill-rule="evenodd" clip-rule="evenodd" d="M598.304 802.859L355.654 254.692L96.8736 809.018L598.304 802.859Z" fill="#4DB6A4"/>
</g>
<mask id="mask5_90_4" style="mask-type:luminance" maskUnits="userSpaceOnUse" x="97" y="248" width="502" height="561">
<path fill-rule="evenodd" clip-rule="evenodd" d="M598.875 802.754L356.473 248.939L97.9561 808.976L598.875 802.754Z" fill="white"/>
</mask>
<g mask="url(#mask5_90_4)">
<path fill-rule="evenodd" clip-rule="evenodd" d="M440.586 213.505L356.473 248.939L368.212 895.948L598.875 827.222L440.586 213.505Z" fill="#42998D"/>
<path fill-rule="evenodd" clip-rule="evenodd" d="M487.304 509.628L466.82 501.048C466.82 501.048 445.581 480.764 430.711 466.565C428.543 464.494 425.306 463.993 422.608 465.312C419.912 466.632 418.33 469.488 418.655 472.461C420.525 489.68 423.294 515.166 425.499 535.472C425.861 538.797 423.846 541.923 420.656 542.983C417.467 544.044 413.969 542.75 412.25 539.877C404.533 526.983 395.685 512.201 389.253 501.452C387.764 498.964 384.909 497.624 382.034 498.059C379.158 498.496 376.835 500.623 376.158 503.438C374.919 508.598 373.507 514.479 372.078 520.42C371.277 523.753 368.204 526.044 364.763 525.87C361.325 525.697 358.499 523.109 358.041 519.714C355.676 502.203 352.97 482.153 351.029 467.787C350.628 464.823 348.41 462.425 345.474 461.784C342.54 461.145 339.516 462.4 337.907 464.925C329.053 478.82 316.45 498.6 307.6 512.487C305.993 515.014 302.97 516.267 300.036 515.63C297.1 514.991 294.88 512.595 294.478 509.633C292.824 497.47 290.728 482.063 289.245 471.143C288.885 468.499 287.069 466.278 284.541 465.389C282.014 464.502 279.198 465.094 277.25 466.926C256.544 486.402 211.293 528.959 211.293 528.959L355.196 224.022L487.304 509.628Z" fill="#B5E4DD"/>
</g>
<mask id="mask6_90_4" style="mask-type:luminance" maskUnits="userSpaceOnUse" x="96" y="251" width="502" height="556">
<path fill-rule="evenodd" clip-rule="evenodd" d="M597.934 799.964L355.284 251.797L96.5043 806.122L597.934 799.964Z" fill="white"/>
</mask>
<g mask="url(#mask6_90_4)">
<mask id="mask7_90_4" style="mask-type:luminance" maskUnits="userSpaceOnUse" x="209" y="227" width="278" height="317">
<path fill-rule="evenodd" clip-rule="evenodd" d="M486.249 509.827L465.744 501.335C465.744 501.335 444.484 481.257 429.599 467.203C427.428 465.153 424.188 464.658 421.487 465.963C418.788 467.269 417.207 470.096 417.53 473.039C419.402 490.082 422.174 515.309 424.381 535.407C424.743 538.699 422.726 541.792 419.534 542.842C416.341 543.892 412.839 542.611 411.118 539.767C403.394 527.005 394.537 512.373 388.098 501.735C386.608 499.272 383.75 497.946 380.871 498.376C377.993 498.809 375.668 500.914 374.99 503.7C373.749 508.807 372.334 514.629 370.905 520.509C370.104 523.808 367.026 526.075 363.584 525.904C360.142 525.732 357.313 523.17 356.854 519.808C354.487 502.477 351.779 482.632 349.835 468.412C349.434 465.479 347.214 463.105 344.275 462.471C341.338 461.839 338.31 463.081 336.7 465.58C327.837 479.333 315.221 498.911 306.362 512.657C304.753 515.156 301.727 516.4 298.79 515.768C295.852 515.135 293.629 512.764 293.227 509.832C291.571 497.793 289.473 482.543 287.988 471.735C287.628 469.117 285.81 466.919 283.28 466.039C280.75 465.159 277.931 465.747 275.981 467.561C255.254 486.836 209.957 528.959 209.957 528.959L354.007 227.134L486.249 509.827Z" fill="white"/>
</mask>
<g mask="url(#mask7_90_4)">
<path fill-rule="evenodd" clip-rule="evenodd" d="M439.483 216.724L355.284 251.796L367.035 892.208L597.935 824.182L439.483 216.724Z" fill="#9ADCD2"/>
</g>
</g>
<mask id="mask8_90_4" style="mask-type:luminance" maskUnits="userSpaceOnUse" x="-183" y="233" width="800" height="514">
<path d="M-182.18 746.918H616.423V233.292H-182.18V746.918Z" fill="white"/>
</mask>
<g mask="url(#mask8_90_4)">
<path fill-rule="evenodd" clip-rule="evenodd" d="M199.923 696.439L46.2739 342.95L-117.589 700.41L199.923 696.439Z" fill="#4DB6A4"/>
</g>
<mask id="mask9_90_4" style="mask-type:luminance" maskUnits="userSpaceOnUse" x="-117" y="339" width="318" height="362">
<path fill-rule="evenodd" clip-rule="evenodd" d="M200.285 696.371L46.7925 339.24L-116.904 700.383L200.285 696.371Z" fill="white"/>
</mask>
<g mask="url(#mask9_90_4)">
<path fill-rule="evenodd" clip-rule="evenodd" d="M100.054 316.39L46.7924 339.24L54.2258 756.468L200.285 712.15L100.054 316.39Z" fill="#42998D"/>
<path fill-rule="evenodd" clip-rule="evenodd" d="M129.637 507.347L116.666 501.814C116.666 501.814 103.217 488.734 93.8012 479.577C92.4284 478.242 90.3784 477.919 88.6701 478.769C86.963 479.621 85.9613 481.462 86.167 483.38C87.3512 494.483 89.1048 510.918 90.5009 524.012C90.7299 526.157 89.4539 528.172 87.4345 528.856C85.4151 529.54 83.1998 528.706 82.1111 526.853C77.225 518.538 71.6224 509.006 67.5494 502.075C66.6065 500.47 64.7989 499.606 62.978 499.887C61.157 500.168 59.6862 501.54 59.2576 503.355C58.4727 506.683 57.5787 510.475 56.6737 514.306C56.1667 516.456 54.2208 517.933 52.0423 517.821C49.8649 517.709 48.0758 516.04 47.7856 513.851C46.2879 502.559 44.5747 489.63 43.3452 480.365C43.0917 478.454 41.687 476.908 39.8281 476.494C37.9704 476.082 36.0551 476.892 35.0362 478.52C29.43 487.48 21.4493 500.235 15.8455 509.191C14.8278 510.82 12.9138 511.628 11.0561 511.217C9.19711 510.805 7.79128 509.26 7.53657 507.35C6.48953 499.507 5.16206 489.571 4.22279 482.53C3.99501 480.824 2.84512 479.392 1.24456 478.819C-0.355995 478.247 -2.13902 478.629 -3.3722 479.811C-16.484 492.37 -45.1372 519.813 -45.1372 519.813L45.9841 323.172L129.637 507.347Z" fill="#B5E4DD"/>
</g>
<mask id="mask10_90_4" style="mask-type:luminance" maskUnits="userSpaceOnUse" x="-118" y="341" width="318" height="358">
<path fill-rule="evenodd" clip-rule="evenodd" d="M199.689 694.572L46.0401 341.083L-117.823 698.543L199.689 694.572Z" fill="white"/>
</mask>
<g mask="url(#mask10_90_4)">
<mask id="mask11_90_4" style="mask-type:luminance" maskUnits="userSpaceOnUse" x="-46" y="325" width="175" height="204">
<path fill-rule="evenodd" clip-rule="evenodd" d="M128.969 507.475L115.985 501.999C115.985 501.999 102.522 489.052 93.0968 479.989C91.7226 478.667 89.6705 478.348 87.9604 479.189C86.2516 480.032 85.2501 481.855 85.4548 483.752C86.6402 494.743 88.3956 511.01 89.7931 523.971C90.0223 526.093 88.745 528.088 86.7236 528.765C84.7022 529.442 82.4846 528.616 81.3948 526.783C76.5036 518.552 70.8954 509.117 66.8182 502.257C65.8743 500.668 64.0649 499.813 62.2421 500.091C60.4193 500.37 58.947 501.727 58.518 503.524C57.7322 506.818 56.8361 510.572 55.9314 514.364C55.4239 516.491 53.4748 517.953 51.2953 517.842C49.1157 517.732 47.3247 516.08 47.0342 513.912C45.535 502.736 43.82 489.939 42.5893 480.769C42.3355 478.877 40.9295 477.346 39.0686 476.937C37.209 476.53 35.2918 477.33 34.2719 478.942C28.6599 487.811 20.671 500.436 15.0615 509.3C14.0429 510.912 12.1268 511.714 10.2672 511.306C8.40638 510.898 6.99912 509.369 6.74414 507.479C5.69604 499.715 4.36721 489.881 3.42698 482.911C3.19897 481.223 2.0479 479.806 0.445717 479.238C-1.15647 478.671 -2.94132 479.05 -4.17575 480.22C-17.3009 492.65 -45.9834 519.813 -45.9834 519.813L45.2309 325.179L128.969 507.475Z" fill="white"/>
</mask>
<g mask="url(#mask11_90_4)">
<path fill-rule="evenodd" clip-rule="evenodd" d="M99.3559 318.466L46.04 341.082L53.4809 754.056L199.689 710.189L99.3559 318.466Z" fill="#9ADCD2"/>
</g>
</g>
<path fill-rule="evenodd" clip-rule="evenodd" d="M-23.6786 690.511C14.6736 696.455 54.1275 689.451 88.7258 670.084C139.479 641.651 197.757 625.467 259.715 625.467C348.286 625.467 429.336 658.537 491.627 713.21C530.614 747.425 581.637 762.945 632.172 755.961C648.028 753.745 664.215 752.607 680.663 752.607C802.165 752.607 909.522 814.84 973.705 909.705H-23.6786V690.511Z" fill="#2F8779"/>
<path fill-rule="evenodd" clip-rule="evenodd" d="M-119.67 675.257C24.327 626.517 107.442 666.594 212.049 737.64C237.107 754.659 261.656 775.378 294.198 784.208C361.351 802.426 433.368 774.082 502.068 792.612C522.848 798.219 605.28 851.872 602.016 868.229C600.329 876.674 582.777 885.009 574.565 889.316C491.953 932.645 365.543 916.305 271.112 914.183C219.309 913.02 167.601 915.17 116.123 919.574C60.1138 924.363 -46.4748 946.98 -99.8177 930.273C-124.946 922.404 -145.691 906.193 -157.337 887.751C-178.304 854.552 -161.141 705.584 -119.67 675.257Z" fill="#2B7C70"/>
<path fill-rule="evenodd" clip-rule="evenodd" d="M1332.83 892.85C1278.47 902.067 1222.54 891.207 1173.5 861.179C1101.55 817.093 1018.94 792 931.112 792C805.559 792 690.667 843.274 602.367 928.045C547.1 981.095 474.774 1005.16 403.138 994.331C380.661 990.895 357.716 989.13 334.4 989.13C162.166 989.13 9.98242 1085.62 -81 1232.71H1332.83V892.85Z" fill="#2F8779"/>
<path fill-rule="evenodd" clip-rule="evenodd" d="M1468.91 869.199C1264.78 793.627 1146.97 855.767 998.681 965.923C963.16 992.311 928.361 1024.44 882.23 1038.13C787.039 1066.37 684.951 1022.43 587.566 1051.16C558.109 1059.85 441.258 1143.04 445.886 1168.4C448.277 1181.5 473.158 1194.42 484.798 1201.1C601.905 1268.28 781.096 1242.94 914.956 1239.65C988.389 1237.85 1061.69 1241.18 1134.66 1248.01C1214.06 1255.44 1365.15 1290.51 1440.77 1264.6C1476.39 1252.4 1505.79 1227.27 1522.3 1198.67C1552.02 1147.2 1527.69 916.221 1468.91 869.199Z" fill="#2B7C70"/>
<mask id="mask12_90_4" style="mask-type:luminance" maskUnits="userSpaceOnUse" x="-380" y="15" width="2131" height="866">
<path d="M-380 880.054H1751V15H-380V880.054Z" fill="white"/>
</mask>
<g mask="url(#mask12_90_4)">
<path fill-rule="evenodd" clip-rule="evenodd" d="M619.456 779.691H644.074V756.817H619.456V779.691Z" fill="#552C17"/>
<path fill-rule="evenodd" clip-rule="evenodd" d="M631.765 679.395L688.358 770.869H575.172L631.765 679.395Z" fill="#32706B"/>
</g>
<g clip-path="url(#clip0_90_4)">
<mask id="mask13_90_4" style="mask-type:luminance" maskUnits="userSpaceOnUse" x="575" y="678" width="114" height="93">
<path fill-rule="evenodd" clip-rule="evenodd" d="M631.859 678.648L688.452 770.122H575.267L631.859 678.648Z" fill="white"/>
</mask>
<g mask="url(#mask13_90_4)">
<path fill-rule="evenodd" clip-rule="evenodd" d="M688.452 728.189C687.598 727.686 631.657 731.677 631.657 731.677V770.122L694.841 771.61C694.841 771.61 689.306 728.69 688.452 728.189Z" fill="#2A605C"/>
</g>
<path fill-rule="evenodd" clip-rule="evenodd" d="M631.127 649.167L679.627 731.365H582.626L631.127 649.167Z" fill="#3B857E"/>
<mask id="mask14_90_4" style="mask-type:luminance" maskUnits="userSpaceOnUse" x="582" y="649" width="98" height="83">
<path fill-rule="evenodd" clip-rule="evenodd" d="M631.127 649.167L679.627 731.365H582.626L631.127 649.167Z" fill="white"/>
</mask>
<g mask="url(#mask14_90_4)">
<path fill-rule="evenodd" clip-rule="evenodd" d="M668.908 683.591L631.127 692.489V731.365L687.719 734.596L668.908 683.591Z" fill="#35746F"/>
</g>
<mask id="mask15_90_4" style="mask-type:luminance" maskUnits="userSpaceOnUse" x="-318" y="-1" width="2132" height="866">
<path d="M-317.737 864.085H1813.26V-0.968689H-317.737V864.085Z" fill="white"/>
</mask>
<g mask="url(#mask15_90_4)">
<path fill-rule="evenodd" clip-rule="evenodd" d="M632.696 636.723L670.477 693.079H594.915L632.696 636.723Z" fill="#42998D"/>
</g>
<mask id="mask16_90_4" style="mask-type:luminance" maskUnits="userSpaceOnUse" x="594" y="636" width="77" height="58">
<path fill-rule="evenodd" clip-rule="evenodd" d="M632.677 636.754L670.458 693.107H594.893L632.677 636.754Z" fill="white"/>
</mask>
<g mask="url(#mask16_90_4)">
<path fill-rule="evenodd" clip-rule="evenodd" d="M665.882 642.462L632.474 636.752V693.107L681.177 696.844L665.882 642.462Z" fill="#387F78"/>
</g>
</g>
<mask id="mask17_90_4" style="mask-type:luminance" maskUnits="userSpaceOnUse" x="-655" y="-56" width="1992" height="794">
<path d="M-655 737.039H1336.26V-55.0345H-655V737.039Z" fill="white"/>
</mask>
<g mask="url(#mask17_90_4)">
<path fill-rule="evenodd" clip-rule="evenodd" d="M278.918 645.143H301.922V624.199H278.918V645.143Z" fill="#552C17"/>
<path fill-rule="evenodd" clip-rule="evenodd" d="M290.42 553.308L343.302 637.065H237.538L290.42 553.308Z" fill="#32706B"/>
</g>
<g clip-path="url(#clip1_90_4)">
<mask id="mask18_90_4" style="mask-type:luminance" maskUnits="userSpaceOnUse" x="239" y="553" width="106" height="84">
<path fill-rule="evenodd" clip-rule="evenodd" d="M291.931 553.039L344.813 636.796H239.049L291.931 553.039Z" fill="white"/>
</mask>
<g mask="url(#mask18_90_4)">
<path fill-rule="evenodd" clip-rule="evenodd" d="M344.813 598.4C344.015 597.94 291.741 601.594 291.741 601.594V636.796L350.782 638.158C350.782 638.158 345.61 598.858 344.813 598.4Z" fill="#2A605C"/>
</g>
<path fill-rule="evenodd" clip-rule="evenodd" d="M291.246 526.045L336.566 601.308H245.926L291.246 526.045Z" fill="#3B857E"/>
<mask id="mask19_90_4" style="mask-type:luminance" maskUnits="userSpaceOnUse" x="245" y="526" width="92" height="76">
<path fill-rule="evenodd" clip-rule="evenodd" d="M291.246 526.045L336.566 601.308H245.926L291.246 526.045Z" fill="white"/>
</mask>
<g mask="url(#mask19_90_4)">
<path fill-rule="evenodd" clip-rule="evenodd" d="M326.549 557.564L291.246 565.712V601.308L344.128 604.267L326.549 557.564Z" fill="#35746F"/>
</g>
<mask id="mask20_90_4" style="mask-type:luminance" maskUnits="userSpaceOnUse" x="-596" y="-70" width="1992" height="793">
<path d="M-595.397 722.831H1395.87V-69.2421H-595.397V722.831Z" fill="white"/>
</mask>
<g mask="url(#mask20_90_4)">
<path fill-rule="evenodd" clip-rule="evenodd" d="M292.712 514.651L328.016 566.252H257.409L292.712 514.651Z" fill="#42998D"/>
</g>
<mask id="mask21_90_4" style="mask-type:luminance" maskUnits="userSpaceOnUse" x="257" y="514" width="71" height="53">
<path fill-rule="evenodd" clip-rule="evenodd" d="M292.695 514.679L327.998 566.278H257.388L292.695 514.679Z" fill="white"/>
</mask>
<g mask="url(#mask21_90_4)">
<path fill-rule="evenodd" clip-rule="evenodd" d="M323.722 519.905L292.505 514.677V566.278L338.015 569.699L323.722 519.905Z" fill="#387F78"/>
</g>
</g>
<path fill-rule="evenodd" clip-rule="evenodd" d="M13 462.325H13.3923C13.8562 466.679 17.782 470.079 22.4562 470.079H217.547C222.577 470.079 226.682 466.168 226.682 461.408V461.372C226.682 456.612 222.577 452.703 217.547 452.703H214.941C213.656 448.214 209.125 444.916 203.736 444.916C202.344 444.916 201.025 445.153 199.81 445.527C198.349 438.692 191.531 433.49 183.36 433.49C182.54 433.49 181.754 433.559 180.969 433.661C178.615 425.363 170.228 419.243 160.2 419.243C157.988 419.243 155.811 419.55 153.813 420.092C149.745 414.788 143.037 411.321 135.505 411.321C127.834 411.321 121.053 414.89 117.021 420.332C113.631 415.503 107.494 412.271 100.464 412.271C91.578 412.271 84.1206 417.407 81.8367 424.445C79.9095 423.97 77.8752 423.73 75.7701 423.73C64.7073 423.73 55.3581 430.6 52.2889 440.054C50.7903 439.678 49.2199 439.476 47.5786 439.476C38.6218 439.476 31.3423 445.358 30.9854 452.703H22.4562C17.4245 452.703 13.3214 456.612 13.3214 461.372V461.408L13.3569 461.917L13 462.325Z" fill="#F0F0EE"/>
<path fill-rule="evenodd" clip-rule="evenodd" d="M384.118 391.263H582.828C588.597 391.263 593.279 386.799 593.279 381.303C593.279 377.165 590.652 373.627 586.883 372.105C587.168 370.907 587.339 369.71 587.339 368.459C587.339 360.349 580.2 353.817 571.347 353.817C570.547 353.817 569.805 353.872 569.005 353.925C566.321 346.089 558.323 340.374 548.842 340.374C546.673 340.374 544.615 340.647 542.673 341.191C540.16 331.339 530.452 324.047 518.857 324.047C515.315 324.047 511.945 324.699 508.918 325.951C503.892 320.78 496.41 317.57 488.128 317.57C477.447 317.57 468.136 322.959 463.623 330.85C460.426 329.381 456.828 328.618 453 328.618C443.863 328.618 435.923 333.245 431.697 340.156C428.784 339.068 425.584 338.415 422.271 338.415C410.563 338.415 400.739 345.926 398.281 355.994C397.939 355.941 397.539 355.941 397.139 355.941C387.602 355.941 379.834 362.744 379.834 371.125V371.343C374.408 371.724 370.123 376.077 370.123 381.303C370.123 386.799 374.865 391.263 380.634 391.263H384.118Z" fill="#F0F0EE"/>
<path fill-rule="evenodd" clip-rule="evenodd" d="M539.06 543.772H737.77C743.539 543.772 748.221 539.309 748.221 533.812C748.221 529.675 745.594 526.137 741.826 524.614C742.11 523.416 742.281 522.219 742.281 520.968C742.281 512.858 735.142 506.326 726.289 506.326C725.489 506.326 724.747 506.381 723.947 506.434C721.263 498.598 713.266 492.883 703.784 492.883C701.615 492.883 699.558 493.156 697.616 493.7C695.102 483.848 685.394 476.556 673.799 476.556C670.257 476.556 666.887 477.208 663.86 478.46C658.834 473.289 651.352 470.079 643.07 470.079C632.389 470.079 623.079 475.468 618.566 483.359C615.368 481.89 611.77 481.128 607.942 481.128C598.805 481.128 590.865 485.754 586.639 492.665C583.726 491.577 580.526 490.925 577.213 490.925C565.505 490.925 555.681 498.435 553.224 508.503C552.881 508.45 552.481 508.45 552.081 508.45C542.544 508.45 534.776 515.253 534.776 523.634V523.852C529.35 524.233 525.066 528.586 525.066 533.812C525.066 539.309 529.807 543.772 535.576 543.772H539.06Z" fill="#F0F0EE"/>
<path fill-rule="evenodd" clip-rule="evenodd" d="M278.73 178.094C278.209 178.062 277.681 178.046 277.151 178.046C276.576 178.046 276.052 178.046 275.477 178.095C276.104 176.4 276.471 174.553 276.471 172.658C276.471 163.426 268.459 155.942 258.615 155.942C257.829 155.942 257.149 155.942 256.415 156.042C256.469 155.242 256.52 154.445 256.52 153.647C256.52 139.326 244.109 127.651 228.82 127.651C224.787 127.651 220.965 128.497 217.508 129.945C212.692 122.26 203.633 117.072 193.211 117.072C191.222 117.072 189.284 117.27 187.399 117.62C183.472 109.037 173.994 103 162.944 103C149.547 103 138.472 111.876 136.724 123.396C131.531 117.83 123.983 114.304 115.553 114.304C99.894 114.304 87.2002 126.399 87.2002 141.32C87.2002 142.571 87.321 143.791 87.4933 144.997C72.5835 145.791 60.7395 157.531 60.7387 171.937C60.7387 186.478 73.4766 198.874 88.7433 199.025C108.739 199.22 128.782 198.953 148.793 198.953C171.5 198.953 194.207 198.953 216.914 198.953C234.04 198.953 251.168 198.953 268.296 198.953C271.43 198.953 274.566 198.953 277.702 198.953C291.655 198.953 292.657 178.926 278.73 178.094Z" fill="#F0F0EE"/>
<defs>
<clipPath id="clip0_90_4">
<rect width="164.371" height="187.748" fill="white" transform="translate(563 605.721)"/>
</clipPath>
<clipPath id="clip1_90_4">
<rect width="153.593" height="171.909" fill="white" transform="translate(227.587 486.264)"/>
</clipPath>
</defs>
</svg>
