<svg  viewBox="0 0 125 315" fill="none" xmlns="http://www.w3.org/2000/svg">
<path d="M106.75 286.697C112.072 276.187 121.327 257.332 122.38 245.499C123.432 233.666 120.147 219.525 111.584 211.678C107.873 214.271 104.162 216.863 100.451 219.455C107.215 226.543 109.732 237.194 109.725 247.19C109.718 257.186 102.124 274.74 97.4339 283.46C98.4331 286.284 103.952 287.449 106.75 286.697Z" fill="#F25A3A"/>
<path d="M111.528 282.343C108.385 282.567 105.027 281.531 102.065 279.857C101.863 279.741 101.662 279.625 101.46 279.495C100.028 278.632 98.6997 277.617 97.5457 276.537C101.606 266.167 107.14 243.17 104.235 233.226C100.445 220.254 92.1142 205.599 84.2505 193.162C76.9564 181.617 70.0662 171.977 67.5628 167.333C67.8898 163.687 69.399 160.287 71.707 157.207C71.8527 157.012 71.9992 156.808 72.1656 156.621C75.8512 151.959 81.358 148.068 87.2887 145.184C88.6803 150.532 92.817 159.475 97.698 169.006C105.507 184.276 115.909 200.678 118.447 206.903C131.679 239.386 118.836 271.124 111.528 282.343Z" fill="#211F1D"/>
<path d="M110.089 257.614C108.365 265.361 105.361 272.696 102.065 279.857C101.863 279.741 101.662 279.625 101.46 279.495C105.27 271.218 108.698 262.687 110.145 253.606C111.904 242.59 109.47 232.139 106.25 221.689C104.644 216.463 103.038 211.208 100.764 206.251C98.602 201.555 95.8627 197.191 93.1018 192.864C85.6347 181.196 78.4862 169.317 71.707 157.207C71.8527 157.012 71.9992 156.808 72.1656 156.621C74.6417 161.071 77.1724 165.491 79.752 169.876C85.2795 179.254 91.2806 188.306 96.9058 197.619C102.454 206.802 105.764 216.956 108.65 227.334C110.04 232.336 111.167 237.458 111.445 242.669C111.716 247.692 111.174 252.729 110.089 257.614Z" fill="#1C1A18"/>
<path d="M84.2505 193.162C82.5542 190.477 80.8795 187.895 79.2768 185.455C80.0856 181.611 80.8605 177.866 81.5873 174.269C83.7612 177.902 85.9666 181.514 88.2035 185.105C86.821 187.755 85.5022 190.442 84.2505 193.162ZM88.6257 184.302C86.3234 180.644 84.0253 176.983 81.7868 173.282C83.9583 162.49 85.6876 153.08 86.6181 146.335C86.9004 146.158 87.1786 145.977 87.4543 145.791C88.9866 151.193 92.9975 159.827 97.698 169.007C94.428 173.945 91.3998 179.05 88.6257 184.302Z" fill="#1C1A19"/>
<path d="M88.2034 185.105C85.9666 181.514 83.7612 177.902 81.5873 174.269C81.6544 173.937 81.7206 173.612 81.7868 173.282C84.0253 176.983 86.3234 180.644 88.6257 184.302C88.4841 184.569 88.3434 184.838 88.2034 185.105Z" fill="#1A1816"/>
<path d="M120.568 310.429C121.277 307.694 118.343 300.084 111.601 299.722C108.845 299.574 104.8 301.37 103.518 302.259C104.227 297.838 105.048 293.289 107.515 286.527C103.274 286.338 100.837 285.004 97.4339 282.36C93.6672 292.233 90.4577 296.925 91.2921 299.903C91.5488 300.819 93.0472 305.077 93.481 305.918C94.0803 307.076 94.702 308.266 95.6723 309.106C98.5838 311.63 103.302 311.214 106.811 311.238C111.403 311.27 116.014 311.068 120.568 310.429Z" fill="#8E694D"/>
<path d="M91.5513 295.918C92.3419 299.81 94.712 304.188 97.2758 307.136C97.7129 307.638 98.1831 308.129 98.7676 308.428C99.3487 308.725 100.006 308.813 100.65 308.882C107.334 309.598 114.071 308.785 120.745 307.974C121.018 309.465 121.429 311.26 121.295 312.772C113.747 314.308 105.421 314.802 97.8164 313.611C96.8809 313.464 95.9314 313.292 95.092 312.838C93.6796 312.073 92.7549 310.619 91.8965 309.222C90.6911 307.262 89.2068 303.112 88.8674 300.809C88.6016 299.006 90.1356 296.989 91.5513 295.918Z" fill="#EAAD7B"/>
<path d="M102.345 299.46C102.631 296.44 103.011 293.427 103.485 290.433C103.668 289.277 103.866 288.118 104.226 287.008C104.59 285.887 105.165 284.769 106.138 284.159C107.111 283.549 108.551 283.64 109.202 284.611C109.742 285.419 109.593 286.509 109.405 287.473C108.641 291.361 107.589 295.186 106.26 298.904C105.859 300.027 105.429 301.145 104.837 302.169C103.187 305.022 102.195 301.047 102.345 299.46Z" fill="#674C3A"/>
<path d="M108.092 293.94C106.413 293.688 104.732 293.436 103.052 293.184C101.764 292.992 101.342 295.064 102.639 295.258C104.32 295.51 106 295.762 107.68 296.014C108.968 296.207 109.39 294.135 108.092 293.94Z" fill="#49362A"/>
<path d="M106.827 296.792C105.486 296.581 104.145 296.372 102.804 296.16C101.516 295.958 101.095 298.031 102.392 298.235C103.733 298.445 105.073 298.656 106.414 298.865C107.702 299.068 108.123 296.995 106.827 296.792Z" fill="#49362A"/>
<path d="M105.875 299.851C104.669 299.595 103.446 299.489 102.216 299.523C100.909 299.56 101.039 301.674 102.347 301.638C103.403 301.608 104.428 301.705 105.462 301.924C106.744 302.196 107.159 300.121 105.875 299.851Z" fill="#49362A"/>
<path d="M72.7675 192.899C68.942 215.095 58.6064 269.168 52.8371 290.965C49.3561 292.005 45.7028 291.722 42.475 290.086C44.8269 268.553 53.2436 214.704 58.3241 193.618C62.811 190.642 67.682 191.063 72.7675 192.899Z" fill="#F25A3A"/>
<path d="M87.1364 142.046C84.647 167.209 63.1893 256.186 58.2107 280.951C51.751 281.952 50.5415 283.017 47.3982 281.807C47.1896 281.734 46.9743 281.64 46.745 281.539C45.6465 281.053 44.3046 280.313 42.4758 279.249C44.0264 265.094 52.8703 182.32 54.4978 168.18C49.5398 162.542 46.4255 155.171 45.7715 147.554C51.2369 146.648 56.2015 145.56 61.6661 144.654C62.5635 144.509 63.4534 144.357 64.35 144.219C64.4758 144.198 64.6074 144.176 64.7324 144.154C64.8367 144.14 64.941 144.118 65.0454 144.104C65.7134 143.995 66.3807 143.893 67.0487 143.791C70.2815 143.307 73.5978 142.923 76.9216 142.639C80.3431 142.336 83.7778 142.139 87.1364 142.046Z" fill="#343230"/>
<path d="M76.9216 142.64C77.0814 162.179 64.5106 160.577 64.5106 160.577L64.7324 144.154C65.5048 144.031 66.2764 143.908 67.0487 143.791C70.2815 143.307 73.5978 142.923 76.9216 142.64Z" fill="#232221"/>
<path d="M65.0453 144.104C65.0735 152.917 64.5519 161.723 63.7042 170.499C61.7571 190.662 58.4681 210.701 55.4366 230.712C52.8495 247.758 50.1723 264.789 47.3982 281.807C47.1896 281.734 46.9743 281.64 46.745 281.539C48.0522 273.508 49.3387 265.478 50.6036 257.44C53.7817 237.277 56.8547 217.094 59.7331 196.88C62.2232 179.443 64.3781 161.868 64.35 144.219C64.4758 144.198 64.6074 144.176 64.7324 144.154C64.8367 144.14 64.941 144.118 65.0453 144.104Z" fill="#2A2827"/>
<path d="M68.6332 308.74C69.3808 306.61 68.8841 304.116 67.5653 302.311C66.2466 300.507 64.1877 299.372 62.042 298.993C59.0799 298.467 55.2718 298.45 52.9671 300.458C53.8206 294.825 53.8529 288.996 54.5251 283.335C50.3437 284.001 46.0339 283.777 41.9361 282.682C40.9816 290.765 38.6355 299.619 37.6437 307.785C47.6648 310.1 58.584 310.917 68.6332 308.74Z" fill="#8E694D"/>
<path d="M70.1664 311.941C70.2972 310.415 70.1606 308.683 70.0464 307.155C59.2678 308.993 47.7252 308.284 37.1512 305.435C36.5493 307.354 36.2695 309.382 36.3266 311.4C42.2705 313.082 48.1714 314.015 54.3306 314.065C59.469 314.107 65.4725 314.122 70.1664 311.941Z" fill="#EAAD7B"/>
<path d="M51.3015 297.454C50.9935 294.436 50.7791 291.407 50.6607 288.374C50.6144 287.204 50.5829 286.027 50.7195 284.864C50.8578 283.689 51.203 282.473 52.0374 281.67C52.8711 280.867 54.2991 280.652 55.1245 281.464C55.8116 282.141 55.8778 283.239 55.8803 284.224C55.8902 288.192 55.6046 292.161 55.0268 296.083C54.8521 297.266 54.6501 298.452 54.2693 299.581C53.2097 302.722 51.4638 299.041 51.3015 297.454Z" fill="#674C3A"/>
<path d="M55.8546 290.834C54.16 290.943 52.4663 291.052 50.7725 291.16C49.4728 291.243 49.4637 293.362 50.7725 293.278C52.4663 293.17 54.16 293.061 55.8546 292.953C57.1543 292.869 57.1626 290.751 55.8546 290.834Z" fill="#49362A"/>
<path d="M55.1708 293.893C53.8165 293.971 52.4629 294.049 51.1086 294.127C49.8081 294.201 49.7998 296.32 51.1086 296.245C52.4629 296.167 53.8165 296.089 55.1708 296.013C56.4714 295.937 56.4797 293.819 55.1708 293.893Z" fill="#49362A"/>
<path d="M54.8339 297.09C53.6037 297.095 52.3843 297.25 51.1872 297.543C49.9149 297.856 50.4538 299.898 51.7278 299.586C52.7552 299.334 53.7784 299.213 54.8339 299.209C56.1411 299.204 56.1435 297.085 54.8339 297.09Z" fill="#49362A"/>
<path d="M67.4477 4.08904C63.6976 5.4403 61.051 7.45772 59.3473 11.3036C60.0758 9.65892 52.7767 8.26104 51.4911 9.30426C49.1971 11.1664 49.462 15.0709 49.8975 17.6682C50.7717 22.8739 52.0068 28.0494 52.299 33.344C52.5416 37.737 52.2469 44.5839 55.593 47.9992C61.008 53.5268 67.6597 46.7299 69.7723 41.4163C70.5522 39.4549 71.3866 37.6377 71.6979 35.5047C71.7881 34.8834 72.1739 28.8226 71.5522 28.7717C79.3389 29.4102 88.7324 28.1089 94.3386 21.8557C98.6037 17.0986 99.3785 9.97817 96.9546 4.08644C94.1656 -2.69405 87.3731 0.801464 81.9764 1.70921C77.1443 2.52204 72.1201 2.4047 67.4477 4.08904Z" fill="#401F1D"/>
<path d="M73.5299 65.8572L75.3164 52.9468L93.0836 54.1946L91.8344 39.1382L96.0291 37.9906L92.0902 18.468C83.979 25.856 71.9297 21.8858 71.9297 21.8858L68.9942 31.8296C67.2474 28.4851 64.3218 23.1802 60.8474 27.3634C57.3737 31.5475 62.7506 38.7741 62.7506 38.7741L55.2429 63.6301C55.2429 63.6301 65.3061 74.524 73.5299 65.8572Z" fill="#F25A3A"/>
<path d="M78.0789 27.7749C78.5905 28.7112 79.7172 29.0304 80.7305 29.2453C82.5542 29.6319 84.3896 29.9589 86.234 30.2247C87.1016 30.3498 87.2862 29.6845 86.7456 29.0546C86.3251 28.5645 85.2373 28.5472 84.6818 28.435C82.5087 27.9984 80.3009 27.6472 78.0789 27.7749Z" fill="#401F1D"/>
<path d="M85.5858 33.0231C85.0138 33.0507 84.5303 33.5063 84.5303 34.1232V34.2458C84.5303 34.8213 85.0154 35.3718 85.5858 35.3459C86.1578 35.3192 86.6413 34.8627 86.6413 34.2458V34.1232C86.6413 33.5477 86.1554 32.9972 85.5858 33.0231Z" fill="#401F1D"/>
<path d="M92.4321 46.3449C92.4321 46.3449 87.9311 46.3449 84.5303 46.3449C84.5303 46.3449 83.4905 52.7354 92.8344 51.1908L92.4321 46.3449Z" fill="white"/>
<path d="M74.9737 55.4242L75.3164 52.9469C63.0536 51.2358 62.7506 38.7741 62.7506 38.7741L60.2256 47.1345C60.2256 47.1345 65.2333 53.5759 74.9737 55.4242Z" fill="#F14B2D"/>
<path d="M64.1844 35.3467L66.0313 32.5035C66.0313 32.5035 63.7448 27.7758 62.2497 28.9942C60.7546 30.2117 64.1844 35.3467 64.1844 35.3467Z" fill="#F14B2D"/>
<path d="M94.0878 18.6405C94.0878 18.6405 92.0273 26.0716 83.4839 24.3148C83.4839 24.3148 89.3525 23.5943 89.4568 17.7379L94.0878 18.6405Z" fill="#401F1D"/>
<path d="M78.0765 63.8666L75.9621 73.7155L72.9521 72.9044L70.928 72.3607L67.2847 71.3753L65.2614 70.8317L60.95 69.6642L58.9334 69.1206L54.7271 67.9903L52.7039 67.4467L49.5746 66.5984L53.3156 58.3442L55.6237 58.8584L57.6751 59.3149L61.9169 60.2649L63.975 60.7205L67.6812 61.5472L69.7185 62.0036L73.126 62.7647L75.1624 63.2142L78.0765 63.8666Z" fill="#DB2924"/>
<path d="M57.6751 59.3148C56.7785 62.2356 55.7975 65.1271 54.7271 67.9902L52.7039 67.4466C53.7602 64.6129 54.7412 61.7498 55.6237 58.8583L57.6751 59.3148Z" fill="#C02524"/>
<path d="M63.975 60.7205C62.8069 63.6275 61.8681 66.6424 60.95 69.6642L58.9334 69.1206C59.8448 66.135 60.7836 63.1486 61.9169 60.2649L63.975 60.7205Z" fill="#C02524"/>
<path d="M69.7185 62.0035C68.9602 65.1418 68.1464 68.2654 67.2847 71.3752L65.2614 70.8316C66.124 67.7512 66.9303 64.656 67.6812 61.5471L69.7185 62.0035Z" fill="#C02524"/>
<path d="M75.1624 63.2141C74.5233 66.468 73.7857 69.7004 72.9521 72.9042L70.928 72.3606C71.7625 69.1861 72.4926 65.99 73.1259 62.7646L75.1624 63.2141Z" fill="#C02524"/>
<path d="M91.009 142.959C79.0285 154.229 57.1055 154.149 43.9221 146.756C43.9006 146.213 43.7962 128.522 43.783 113.548C43.7756 103.72 43.8037 95.0673 43.9221 93.2044C44.8948 77.6588 49.5746 66.5984 49.5746 66.5984C49.5746 66.5984 81.5459 64.8451 86.9832 88.0228C89.1182 97.6473 90.0918 114.613 90.5785 127.949C90.8079 134.066 90.9254 139.422 91.009 142.959Z" fill="#EE2A2A"/>
<path d="M65.3086 151.926C65.1828 151.926 65.0569 151.926 64.9319 151.924C64.6977 151.922 64.4634 151.919 64.2299 151.914C56.834 151.752 49.5763 149.926 43.9221 146.756C43.9006 146.213 43.7963 128.522 43.783 113.548C50.4024 119.911 58.5095 124.579 67.2151 126.956C71.7318 128.188 76.3984 128.798 81.0658 128.798C84.2521 128.798 87.4385 128.513 90.5785 127.949C90.8079 134.066 90.9254 139.422 91.009 142.959C84.4161 149.16 74.8098 151.926 65.3086 151.926Z" fill="#D92826"/>
<path d="M45.514 73.9406C44.9445 101.669 44.9445 113.744 43.6365 141.046C43.379 146.459 41.2374 149.554 38.1578 151.156C32.7967 153.96 24.5845 152.221 18.5288 150.329C13.7306 148.836 9.10628 145.619 6.56894 140.509C3.53075 134.4 3.91983 126.753 4.65661 119.687C6.41578 102.822 9.6005 86.1745 14.1553 70.0844C23.1796 67.0842 36.3291 70.0197 45.2359 73.8241C45.3261 73.8603 45.4238 73.8966 45.514 73.9406Z" fill="#82484D"/>
<path d="M45.514 73.9406C44.9445 101.669 44.9445 113.744 43.6365 141.046C43.379 146.459 41.2374 149.554 38.1578 151.156C38.032 151.047 37.9144 150.939 37.8027 150.822C34.8133 147.85 32.9912 143.814 31.8091 139.689C29.1459 130.413 29.4795 120.513 30.1128 110.852C30.7105 101.684 31.5731 92.4433 34.3266 83.717C35.3696 80.4347 36.8573 77.0134 39.7365 75.3031C41.0362 74.5352 42.6009 73.9691 44.0885 73.8026C44.4155 73.7663 44.812 73.7663 45.2359 73.8241C45.3261 73.8604 45.4238 73.8966 45.514 73.9406Z" fill="#69282F"/>
<path d="M9.38364 73.6663C20.0529 80.6849 33.2926 83.2891 46.0017 80.867C46.2152 75.8347 46.067 69.4916 44.394 64.8942C44.0264 63.8829 43.6398 62.8414 42.9154 62.0985C42.0727 61.2356 40.8839 60.887 39.7365 60.5988C35.3796 59.5047 30.9026 58.8687 26.3884 58.7022C22.8477 58.5711 19.0653 58.8006 16.0229 60.95C11.7331 63.9813 9.94078 68.2759 9.38364 73.6663Z" fill="#4E2335"/>
<path d="M42.475 136.473C83.0932 127.356 80.9093 82.8671 76.7486 78.6727C67.3575 69.206 52.9481 78.9522 42.2134 89.1213C42.119 92.6616 41.5677 93.3493 42.4452 96.1278C46.0745 92.7704 69.8493 72.7456 72.2501 82.7947C80.2247 116.179 44.7474 128.336 42.143 130.251C42.143 130.251 40.6496 133.513 42.475 136.473Z" fill="#69282F"/>
<path d="M20.2151 151.394C14.5245 151.227 8.99785 147.978 5.91579 142.989C1.54726 135.915 2.56054 126.746 3.49434 118.391C9.06573 120.424 14.9856 121.414 20.8865 121.297C20.8294 131.273 20.3269 140.71 20.2698 150.687C20.2681 150.942 20.3973 151.567 20.2151 151.394Z" fill="#3E1D29"/>
<path d="M20.9329 123.695C20.8352 120.728 20.7118 117.764 20.562 114.8C16.5171 114.278 12.4342 114.013 8.34881 114.003C6.14261 113.999 3.72116 114.147 2.11183 115.555C0.563762 116.908 0.210272 119.042 0 121.007C6.32556 124.339 13.8233 125.142 20.9329 123.695Z" fill="#4E2335"/>
<path d="M27.2212 58.1552C29.006 62.8829 33.6444 66.0125 38.4583 66.8115C41.5048 67.3163 44.7201 66.9867 47.4884 65.569C57.863 60.2554 55.6204 44.2421 46.4752 38.7922C35.6047 32.3137 22.9354 46.7954 27.2212 58.1552Z" fill="#315673"/>
<path d="M33.925 55.3508C34.8456 58.1551 37.3631 60.3684 40.1935 60.648C43.0247 60.9276 45.9809 59.1362 46.9835 56.3629C47.3138 55.4492 47.4404 54.4689 47.5033 53.4939C48.3618 40.2685 30.492 44.8979 33.925 55.3508Z" fill="#29455B"/>
<path d="M78.0701 163.619C80.6073 163.499 83.0728 163.798 85.5036 164.22C84.9858 164.898 84.4909 165.681 84.0939 166.418C86.2487 167.233 88.1427 168.314 90.0156 169.562C90.4935 169.88 90.9892 170.271 91.0455 170.849C91.1013 171.428 90.4131 172.134 89.8802 171.894C90.5542 172.238 90.0615 173.721 89.2558 173.893C89.6487 174.742 88.5285 176.235 87.5138 176.2C87.5484 176.678 86.8763 177.24 86.3666 177.328C85.8558 177.418 85.3734 177.249 84.9258 177.07C80.9492 175.486 77.5092 173.046 74.105 170.624C73.7058 170.341 73.2924 170.04 73.0992 169.596C72.657 168.582 73.5048 167.356 74.2982 166.394C75.2305 165.264 76.6474 163.687 78.0701 163.619Z" fill="#F25A3A"/>
<path d="M78.0202 159.21C79.8057 160.643 80.888 161.659 79.8088 163.721C78.7316 165.779 77.2351 167.654 75.413 169.216C74.6262 169.89 73.7248 170.53 72.6618 170.681C71.2652 170.88 69.9234 170.198 68.7502 169.492C67.0922 168.496 65.5093 167.397 64.0123 166.207C62.4077 164.932 62.7574 162.458 63.7174 160.855C64.3898 159.732 65.4126 158.814 66.5193 158.027C68.0238 156.959 69.9275 156 71.89 156.125C73.7088 156.241 75.0252 157.393 76.5238 158.194C76.9727 158.434 77.4979 158.792 78.0202 159.21Z" fill="#F1424E"/>
<path d="M72.5443 87.0932C70.639 81.8914 62.6747 81.3447 55.7765 87.8972C40.1357 102.757 38.0772 127.76 42.0078 144.508C44.0759 153.319 51.4879 160.55 59.13 165.116C61.4506 166.504 63.3519 167.503 66.1324 164.747C67.5776 163.318 68.979 161.85 70.3341 160.349C70.994 159.619 71.6501 158.869 72.0914 158.03C73.5636 155.226 69.8232 152.796 68.1783 151.442C65.6397 149.353 62.9743 147.351 61.0688 144.695C58.216 140.716 56.9186 135.745 56.8445 130.614C56.6657 118.188 66.1691 106.836 71.5694 95.1957C73.108 91.8784 73.2904 89.1293 72.5443 87.0932Z" fill="#EF3036"/>
</svg>
