<svg width="1254" height="722" viewBox="0 0 1254 722" fill="none" xmlns="http://www.w3.org/2000/svg">
<mask id="mask0_104_4" style="mask-type:luminance" maskUnits="userSpaceOnUse" x="507" y="35" width="1224" height="687">
<path d="M507.791 721.357H1730.56V35.7942H507.791V721.357Z" fill="white"/>
</mask>
<g mask="url(#mask0_104_4)">
<path fill-rule="evenodd" clip-rule="evenodd" d="M1092.84 653.981L857.584 182.16L606.688 659.281L1092.84 653.981Z" fill="#4DB6A4"/>
</g>
<mask id="mask1_104_4" style="mask-type:luminance" maskUnits="userSpaceOnUse" x="607" y="177" width="487" height="483">
<path fill-rule="evenodd" clip-rule="evenodd" d="M1093.4 653.89L858.378 177.208L607.738 659.245L1093.4 653.89Z" fill="white"/>
</mask>
<g mask="url(#mask1_104_4)">
<path fill-rule="evenodd" clip-rule="evenodd" d="M939.929 146.709L858.378 177.208L869.76 734.104L1093.4 674.95L939.929 146.709Z" fill="#42998D"/>
<path fill-rule="evenodd" clip-rule="evenodd" d="M985.224 401.589L965.364 394.204C965.364 394.204 944.772 376.745 930.355 364.523C928.253 362.741 925.114 362.31 922.499 363.445C919.885 364.581 918.351 367.04 918.666 369.599C920.479 384.419 923.164 406.356 925.302 423.833C925.652 426.696 923.699 429.386 920.607 430.299C917.515 431.211 914.123 430.098 912.456 427.625C904.975 416.527 896.396 403.803 890.16 394.552C888.716 392.41 885.949 391.257 883.161 391.632C880.372 392.008 878.12 393.838 877.464 396.261C876.262 400.702 874.894 405.765 873.508 410.878C872.732 413.747 869.752 415.718 866.417 415.569C863.083 415.42 860.343 413.192 859.899 410.27C857.606 395.198 854.983 377.941 853.1 365.575C852.712 363.024 850.561 360.96 847.715 360.409C844.871 359.859 841.938 360.939 840.378 363.112C831.794 375.072 819.575 392.097 810.994 404.05C809.436 406.225 806.506 407.303 803.661 406.755C800.815 406.205 798.662 404.143 798.272 401.594C796.669 391.125 794.637 377.863 793.199 368.464C792.85 366.188 791.089 364.277 788.639 363.511C786.188 362.748 783.458 363.258 781.57 364.835C761.494 381.598 717.622 418.228 717.622 418.228L857.141 155.761L985.224 401.589Z" fill="#B5E4DD"/>
</g>
<mask id="mask2_104_4" style="mask-type:luminance" maskUnits="userSpaceOnUse" x="606" y="179" width="487" height="478">
<path fill-rule="evenodd" clip-rule="evenodd" d="M1092.48 651.488L857.226 179.667L606.33 656.788L1092.48 651.488Z" fill="white"/>
</mask>
<g mask="url(#mask2_104_4)">
<mask id="mask3_104_4" style="mask-type:luminance" maskUnits="userSpaceOnUse" x="716" y="158" width="269" height="273">
<path fill-rule="evenodd" clip-rule="evenodd" d="M984.201 401.76L964.321 394.451C964.321 394.451 943.708 377.17 929.277 365.073C927.173 363.309 924.03 362.882 921.412 364.005C918.796 365.13 917.262 367.563 917.576 370.096C919.391 384.766 922.078 406.479 924.218 423.778C924.569 426.611 922.613 429.274 919.518 430.177C916.423 431.081 913.028 429.979 911.359 427.531C903.87 416.546 895.283 403.952 889.041 394.795C887.595 392.675 884.825 391.534 882.034 391.904C879.243 392.277 876.989 394.088 876.332 396.487C875.129 400.883 873.757 405.893 872.371 410.955C871.594 413.795 868.61 415.746 865.273 415.598C861.936 415.45 859.193 413.245 858.749 410.351C856.453 395.434 853.827 378.353 851.943 366.114C851.554 363.589 849.401 361.546 846.552 361C843.705 360.456 840.769 361.525 839.208 363.676C830.615 375.514 818.383 392.365 809.794 404.196C808.235 406.348 805.301 407.418 802.454 406.874C799.604 406.33 797.45 404.288 797.059 401.765C795.454 391.403 793.42 378.276 791.98 368.973C791.631 366.721 789.869 364.828 787.416 364.071C784.962 363.313 782.23 363.82 780.339 365.381C760.243 381.972 716.326 418.228 716.326 418.228L855.988 158.44L984.201 401.76Z" fill="white"/>
</mask>
<g mask="url(#mask3_104_4)">
<path fill-rule="evenodd" clip-rule="evenodd" d="M938.86 149.479L857.226 179.667L868.619 730.885L1092.48 672.334L938.86 149.479Z" fill="#9ADCD2"/>
</g>
</g>
<mask id="mask4_104_4" style="mask-type:luminance" maskUnits="userSpaceOnUse" x="177" y="-138" width="1262" height="797">
<path d="M177.049 658.495H1438.24V-138H177.049V658.495Z" fill="white"/>
</mask>
<g mask="url(#mask4_104_4)">
<path fill-rule="evenodd" clip-rule="evenodd" d="M780.484 580.216L537.834 32.0494L279.054 586.375L780.484 580.216Z" fill="#4DB6A4"/>
</g>
<mask id="mask5_104_4" style="mask-type:luminance" maskUnits="userSpaceOnUse" x="280" y="26" width="502" height="561">
<path fill-rule="evenodd" clip-rule="evenodd" d="M781.056 580.111L538.653 26.2963L280.136 586.333L781.056 580.111Z" fill="white"/>
</mask>
<g mask="url(#mask5_104_4)">
<path fill-rule="evenodd" clip-rule="evenodd" d="M622.766 -9.138L538.653 26.2961L550.392 673.305L781.056 604.579L622.766 -9.138Z" fill="#42998D"/>
<path fill-rule="evenodd" clip-rule="evenodd" d="M669.484 286.985L649 278.405C649 278.405 627.761 258.121 612.891 243.922C610.723 241.851 607.486 241.351 604.788 242.669C602.092 243.989 600.51 246.845 600.835 249.818C602.705 267.037 605.475 292.523 607.679 312.829C608.041 316.154 606.026 319.28 602.837 320.34C599.648 321.401 596.149 320.107 594.43 317.234C586.713 304.34 577.866 289.558 571.433 278.809C569.944 276.321 567.09 274.981 564.214 275.416C561.338 275.853 559.015 277.98 558.339 280.795C557.099 285.955 555.687 291.836 554.258 297.777C553.457 301.11 550.384 303.401 546.944 303.227C543.505 303.054 540.68 300.466 540.221 297.071C537.856 279.56 535.151 259.51 533.209 245.144C532.809 242.18 530.59 239.782 527.655 239.141C524.721 238.502 521.696 239.757 520.087 242.282C511.233 256.177 498.63 275.957 489.78 289.844C488.173 292.371 485.15 293.624 482.216 292.987C479.281 292.348 477.061 289.952 476.658 286.99C475.005 274.827 472.908 259.42 471.425 248.5C471.065 245.856 469.249 243.635 466.722 242.746C464.194 241.859 461.378 242.451 459.431 244.283C438.724 263.76 393.473 306.316 393.473 306.316L537.376 1.37939L669.484 286.985Z" fill="#B5E4DD"/>
</g>
<mask id="mask6_104_4" style="mask-type:luminance" maskUnits="userSpaceOnUse" x="278" y="29" width="503" height="555">
<path fill-rule="evenodd" clip-rule="evenodd" d="M780.115 577.321L537.465 29.1536L278.685 583.479L780.115 577.321Z" fill="white"/>
</mask>
<g mask="url(#mask6_104_4)">
<mask id="mask7_104_4" style="mask-type:luminance" maskUnits="userSpaceOnUse" x="392" y="4" width="277" height="317">
<path fill-rule="evenodd" clip-rule="evenodd" d="M668.43 287.184L647.924 278.692C647.924 278.692 626.664 258.614 611.779 244.56C609.609 242.51 606.368 242.015 603.667 243.32C600.969 244.626 599.387 247.453 599.71 250.396C601.582 267.439 604.355 292.666 606.562 312.764C606.924 316.056 604.906 319.149 601.714 320.199C598.522 321.249 595.02 319.969 593.299 317.125C585.574 304.362 576.717 289.73 570.279 279.092C568.788 276.629 565.931 275.303 563.052 275.733C560.173 276.166 557.848 278.271 557.171 281.057C555.93 286.164 554.514 291.986 553.086 297.866C552.284 301.165 549.206 303.432 545.764 303.261C542.322 303.089 539.494 300.527 539.035 297.165C536.667 279.834 533.959 259.989 532.015 245.769C531.614 242.836 529.394 240.462 526.455 239.828C523.518 239.196 520.491 240.438 518.88 242.937C510.017 256.69 497.401 276.269 488.542 290.014C486.933 292.513 483.908 293.757 480.971 293.125C478.032 292.492 475.81 290.121 475.407 287.189C473.752 275.15 471.653 259.9 470.168 249.092C469.808 246.474 467.99 244.276 465.46 243.396C462.93 242.516 460.111 243.104 458.162 244.918C437.434 264.193 392.137 306.316 392.137 306.316L536.187 4.49091L668.43 287.184Z" fill="white"/>
</mask>
<g mask="url(#mask7_104_4)">
<path fill-rule="evenodd" clip-rule="evenodd" d="M621.664 -5.91943L537.465 29.1533L549.216 669.565L780.115 601.539L621.664 -5.91943Z" fill="#9ADCD2"/>
</g>
</g>
<mask id="mask8_104_4" style="mask-type:luminance" maskUnits="userSpaceOnUse" x="0" y="10" width="799" height="515">
<path d="M0 524.275H798.603V10.6495H0V524.275Z" fill="white"/>
</mask>
<g mask="url(#mask8_104_4)">
<path fill-rule="evenodd" clip-rule="evenodd" d="M382.104 473.796L228.454 120.307L64.5911 477.767L382.104 473.796Z" fill="#4DB6A4"/>
</g>
<mask id="mask9_104_4" style="mask-type:luminance" maskUnits="userSpaceOnUse" x="65" y="116" width="318" height="362">
<path fill-rule="evenodd" clip-rule="evenodd" d="M382.466 473.728L228.973 116.597L65.2766 477.74L382.466 473.728Z" fill="white"/>
</mask>
<g mask="url(#mask9_104_4)">
<path fill-rule="evenodd" clip-rule="evenodd" d="M282.234 93.747L228.973 116.597L236.406 533.825L382.466 489.507L282.234 93.747Z" fill="#42998D"/>
<path fill-rule="evenodd" clip-rule="evenodd" d="M311.817 284.704L298.846 279.171C298.846 279.171 285.398 266.091 275.982 256.934C274.609 255.599 272.559 255.276 270.85 256.126C269.143 256.978 268.142 258.819 268.347 260.737C269.532 271.84 271.285 288.275 272.681 301.37C272.91 303.514 271.634 305.529 269.615 306.213C267.595 306.897 265.38 306.063 264.291 304.21C259.405 295.895 253.803 286.363 249.73 279.432C248.787 277.827 246.979 276.963 245.158 277.244C243.337 277.526 241.867 278.897 241.438 280.713C240.653 284.04 239.759 287.832 238.854 291.663C238.347 293.813 236.401 295.29 234.223 295.178C232.045 295.066 230.256 293.397 229.966 291.208C228.468 279.916 226.755 266.987 225.525 257.722C225.272 255.811 223.867 254.265 222.008 253.852C220.151 253.44 218.235 254.249 217.217 255.877C211.61 264.837 203.63 277.593 198.026 286.548C197.008 288.177 195.094 288.985 193.236 288.574C191.377 288.162 189.972 286.617 189.717 284.707C188.67 276.864 187.342 266.928 186.403 259.887C186.175 258.182 185.025 256.749 183.425 256.176C181.824 255.604 180.041 255.986 178.808 257.168C165.696 269.727 137.043 297.17 137.043 297.17L228.164 100.529L311.817 284.704Z" fill="#B5E4DD"/>
</g>
<mask id="mask10_104_4" style="mask-type:luminance" maskUnits="userSpaceOnUse" x="64" y="118" width="318" height="358">
<path fill-rule="evenodd" clip-rule="evenodd" d="M381.87 471.929L228.22 118.44L64.3572 475.9L381.87 471.929Z" fill="white"/>
</mask>
<g mask="url(#mask10_104_4)">
<mask id="mask11_104_4" style="mask-type:luminance" maskUnits="userSpaceOnUse" x="136" y="102" width="176" height="205">
<path fill-rule="evenodd" clip-rule="evenodd" d="M311.149 284.832L298.165 279.356C298.165 279.356 284.703 266.409 275.277 257.346C273.903 256.024 271.851 255.705 270.141 256.546C268.432 257.389 267.43 259.212 267.635 261.109C268.821 272.1 270.576 288.367 271.973 301.328C272.203 303.45 270.925 305.445 268.904 306.122C266.883 306.799 264.665 305.974 263.575 304.14C258.684 295.909 253.076 286.474 248.999 279.614C248.055 278.025 246.245 277.171 244.422 277.448C242.6 277.727 241.127 279.084 240.698 280.881C239.913 284.175 239.016 287.929 238.112 291.721C237.604 293.848 235.655 295.31 233.476 295.199C231.296 295.089 229.505 293.437 229.215 291.269C227.715 280.093 226 267.296 224.77 258.126C224.516 256.234 223.11 254.703 221.249 254.294C219.389 253.887 217.472 254.688 216.452 256.299C210.84 265.168 202.851 277.793 197.242 286.657C196.223 288.269 194.307 289.071 192.448 288.663C190.587 288.255 189.179 286.726 188.924 284.836C187.876 277.072 186.548 267.238 185.607 260.268C185.379 258.58 184.228 257.163 182.626 256.595C181.024 256.028 179.239 256.407 178.005 257.577C164.879 270.007 136.197 297.17 136.197 297.17L227.411 102.536L311.149 284.832Z" fill="white"/>
</mask>
<g mask="url(#mask11_104_4)">
<path fill-rule="evenodd" clip-rule="evenodd" d="M281.536 95.8226L228.22 118.44L235.661 531.413L381.87 487.546L281.536 95.8226Z" fill="#9ADCD2"/>
</g>
</g>
</svg>
