<svg  viewBox="0 0 1280 832" fill="none" xmlns="http://www.w3.org/2000/svg">
<mask id="mask0_195_2" style="mask-type:luminance" maskUnits="userSpaceOnUse" x="-1142" y="-177" width="2546" height="1128">
<path d="M-1142 950.054H1404V-177H-1142V950.054Z" fill="white"/>
</mask>
<g mask="url(#mask0_195_2)">
<path fill-rule="evenodd" clip-rule="evenodd" d="M52.0947 819.293H81.5071V789.492H52.0947V819.293Z" fill="#552C17"/>
<path fill-rule="evenodd" clip-rule="evenodd" d="M66.8008 688.621L134.415 807.8H-0.813232L66.8008 688.621Z" fill="#32706B"/>
</g>
<g clip-path="url(#clip0_195_2)">
<mask id="mask1_195_2" style="mask-type:luminance" maskUnits="userSpaceOnUse" x="-1" y="687" width="136" height="120">
<path fill-rule="evenodd" clip-rule="evenodd" d="M66.9131 687.648L134.527 806.827H-0.700928L66.9131 687.648Z" fill="white"/>
</mask>
<g mask="url(#mask1_195_2)">
<path fill-rule="evenodd" clip-rule="evenodd" d="M134.527 752.193C133.507 751.538 66.6709 756.738 66.6709 756.738V806.827L142.16 808.766C142.16 808.766 135.547 752.846 134.527 752.193Z" fill="#2A605C"/>
</g>
<path fill-rule="evenodd" clip-rule="evenodd" d="M66.0376 649.238L123.983 756.331H8.09229L66.0376 649.238Z" fill="#3B857E"/>
<mask id="mask2_195_2" style="mask-type:luminance" maskUnits="userSpaceOnUse" x="8" y="649" width="116" height="108">
<path fill-rule="evenodd" clip-rule="evenodd" d="M66.0376 649.238L123.983 756.331H8.09229L66.0376 649.238Z" fill="white"/>
</mask>
<g mask="url(#mask2_195_2)">
<path fill-rule="evenodd" clip-rule="evenodd" d="M111.176 694.088L66.0376 705.681V756.331L133.652 760.541L111.176 694.088Z" fill="#35746F"/>
</g>
<mask id="mask3_195_2" style="mask-type:luminance" maskUnits="userSpaceOnUse" x="-1068" y="-198" width="2547" height="1128">
<path d="M-1067.61 929.249H1478.39V-197.805H-1067.61V929.249Z" fill="white"/>
</mask>
<g mask="url(#mask3_195_2)">
<path fill-rule="evenodd" clip-rule="evenodd" d="M67.9124 633.026L113.051 706.45H22.7739L67.9124 633.026Z" fill="#42998D"/>
</g>
<mask id="mask4_195_2" style="mask-type:luminance" maskUnits="userSpaceOnUse" x="22" y="633" width="92" height="74">
<path fill-rule="evenodd" clip-rule="evenodd" d="M67.8902 633.066L113.029 706.487H22.7478L67.8902 633.066Z" fill="white"/>
</mask>
<g mask="url(#mask4_195_2)">
<path fill-rule="evenodd" clip-rule="evenodd" d="M107.561 640.502L67.6479 633.063V706.487L125.836 711.355L107.561 640.502Z" fill="#387F78"/>
</g>
</g>
<mask id="mask5_195_2" style="mask-type:luminance" maskUnits="userSpaceOnUse" x="-1043" y="-272" width="2546" height="1128">
<path d="M-1043 855.054H1503V-272H-1043V855.054Z" fill="white"/>
</mask>
<g mask="url(#mask5_195_2)">
<path fill-rule="evenodd" clip-rule="evenodd" d="M151.095 724.293H180.507V694.492H151.095V724.293Z" fill="#552C17"/>
<path fill-rule="evenodd" clip-rule="evenodd" d="M165.801 593.621L233.415 712.8H98.1868L165.801 593.621Z" fill="#32706B"/>
</g>
<g clip-path="url(#clip1_195_2)">
<mask id="mask6_195_2" style="mask-type:luminance" maskUnits="userSpaceOnUse" x="98" y="592" width="136" height="120">
<path fill-rule="evenodd" clip-rule="evenodd" d="M165.913 592.648L233.527 711.827H98.2991L165.913 592.648Z" fill="white"/>
</mask>
<g mask="url(#mask6_195_2)">
<path fill-rule="evenodd" clip-rule="evenodd" d="M233.527 657.193C232.507 656.538 165.671 661.738 165.671 661.738V711.827L241.16 713.766C241.16 713.766 234.547 657.846 233.527 657.193Z" fill="#2A605C"/>
</g>
<path fill-rule="evenodd" clip-rule="evenodd" d="M165.038 554.238L222.983 661.331H107.092L165.038 554.238Z" fill="#3B857E"/>
<mask id="mask7_195_2" style="mask-type:luminance" maskUnits="userSpaceOnUse" x="107" y="554" width="116" height="108">
<path fill-rule="evenodd" clip-rule="evenodd" d="M165.038 554.238L222.983 661.331H107.092L165.038 554.238Z" fill="white"/>
</mask>
<g mask="url(#mask7_195_2)">
<path fill-rule="evenodd" clip-rule="evenodd" d="M210.176 599.088L165.038 610.681V661.331L232.652 665.541L210.176 599.088Z" fill="#35746F"/>
</g>
<mask id="mask8_195_2" style="mask-type:luminance" maskUnits="userSpaceOnUse" x="-969" y="-293" width="2547" height="1128">
<path d="M-968.611 834.249H1577.39V-292.805H-968.611V834.249Z" fill="white"/>
</mask>
<g mask="url(#mask8_195_2)">
<path fill-rule="evenodd" clip-rule="evenodd" d="M166.912 538.026L212.051 611.45H121.774L166.912 538.026Z" fill="#42998D"/>
</g>
<mask id="mask9_195_2" style="mask-type:luminance" maskUnits="userSpaceOnUse" x="121" y="538" width="92" height="74">
<path fill-rule="evenodd" clip-rule="evenodd" d="M166.89 538.066L212.029 611.487H121.748L166.89 538.066Z" fill="white"/>
</mask>
<g mask="url(#mask9_195_2)">
<path fill-rule="evenodd" clip-rule="evenodd" d="M206.561 545.502L166.648 538.063V611.487L224.836 616.355L206.561 545.502Z" fill="#387F78"/>
</g>
</g>
<path d="M933.352 319C882.806 340.187 741.348 402.181 579.881 480.658L0 832H221.181H1248.65H1348V649.822L1292.57 438.116L1204.21 480.658L1140.94 543.719L1091.26 464.642L933.352 319Z" fill="#2B7C70"/>
<path d="M349 576.5L0 831.5H1194.5L825.5 717.5L731.5 576.5L422.5 409L349 576.5Z" fill="#2F8779"/>
<path d="M608 620.5L425 409.5L731 578L824 717L1191.5 831.5L671 750.5L608 620.5Z" fill="#47B491"/>
<path fill-rule="evenodd" clip-rule="evenodd" d="M61 408.325H61.4104C61.8955 412.679 66.0017 416.079 70.8906 416.079H274.945C280.206 416.079 284.499 412.168 284.499 407.408V407.372C284.499 402.612 280.206 398.703 274.945 398.703H272.219C270.875 394.214 266.136 390.916 260.499 390.916C259.043 390.916 257.663 391.153 256.393 391.527C254.864 384.692 247.733 379.49 239.188 379.49C238.329 379.49 237.508 379.559 236.686 379.661C234.224 371.363 225.451 365.243 214.963 365.243C212.649 365.243 210.372 365.55 208.282 366.092C204.028 360.788 197.011 357.32 189.134 357.32C181.11 357.32 174.018 360.89 169.8 366.332C166.255 361.503 159.835 358.271 152.482 358.271C143.188 358.271 135.388 363.407 132.999 370.445C130.984 369.97 128.856 369.73 126.654 369.73C115.083 369.73 105.304 376.6 102.094 386.053C100.527 385.678 98.884 385.476 97.1673 385.476C87.799 385.476 80.185 391.358 79.8118 398.703H70.8906C65.6278 398.703 61.3362 402.612 61.3362 407.372V407.408L61.3733 407.917L61 408.325Z" fill="#F0F0EE"/>
<path fill-rule="evenodd" clip-rule="evenodd" d="M537.637 291.693H745.477C751.511 291.693 756.408 287.229 756.408 281.733C756.408 277.595 753.661 274.057 749.719 272.535C750.016 271.337 750.195 270.14 750.195 268.889C750.195 260.779 742.728 254.247 733.468 254.247C732.632 254.247 731.856 254.302 731.019 254.355C728.211 246.519 719.847 240.804 709.93 240.804C707.661 240.804 705.509 241.077 703.478 241.621C700.849 231.769 690.695 224.477 678.567 224.477C674.863 224.477 671.337 225.129 668.171 226.381C662.914 221.21 655.089 218 646.426 218C635.254 218 625.516 223.389 620.796 231.28C617.451 229.811 613.688 229.048 609.684 229.048C600.127 229.048 591.823 233.675 587.402 240.586C584.355 239.498 581.009 238.845 577.543 238.845C565.297 238.845 555.022 246.356 552.452 256.424C552.094 256.371 551.675 256.371 551.257 256.371C541.282 256.371 533.157 263.174 533.157 271.555V271.773C527.481 272.154 523 276.507 523 281.733C523 287.229 527.96 291.693 533.993 291.693H537.637Z" fill="#F0F0EE"/>
<path fill-rule="evenodd" clip-rule="evenodd" d="M338.939 124.094C338.393 124.062 337.841 124.046 337.287 124.046C336.686 124.046 336.138 124.046 335.536 124.096C336.192 122.4 336.576 120.554 336.576 118.658C336.576 109.427 328.196 101.942 317.899 101.942C317.078 101.942 316.366 101.942 315.598 102.042C315.654 101.242 315.708 100.445 315.708 99.6472C315.708 85.3259 302.727 73.6508 286.735 73.6508C282.517 73.6508 278.52 74.4975 274.903 75.9453C269.866 68.2602 260.391 63.0719 249.49 63.0719C247.41 63.0719 245.383 63.2703 243.412 63.62C239.304 55.037 229.391 49.0001 217.833 49.0001C203.821 49.0001 192.237 57.8758 190.408 69.3957C184.976 63.8302 177.082 60.3039 168.264 60.3039C151.886 60.3039 138.609 72.3994 138.609 87.3199C138.609 88.5713 138.735 89.7912 138.916 90.9975C123.321 91.7911 110.933 103.531 110.932 117.937C110.932 132.478 124.255 144.874 140.223 145.026C161.137 145.22 182.102 144.953 203.031 144.953C226.782 144.953 250.532 144.953 274.282 144.953C292.195 144.953 310.11 144.953 328.026 144.953C331.303 144.953 334.583 144.953 337.863 144.953C352.457 144.953 353.505 124.927 338.939 124.094Z" fill="#F0F0EE"/>
<defs>
<clipPath id="clip0_195_2">
<rect width="196.382" height="244.612" fill="white" transform="translate(-15.3562 592.634)"/>
</clipPath>
<clipPath id="clip1_195_2">
<rect width="196.382" height="244.612" fill="white" transform="translate(83.6438 497.634)"/>
</clipPath>
</defs>
</svg>
