<svg width="1280" height="907" viewBox="0 0 1280 907" fill="none" xmlns="http://www.w3.org/2000/svg">
<mask id="mask0_104_3" style="mask-type:luminance" maskUnits="userSpaceOnUse" x="-516" y="-239" width="2141" height="1146">
<path d="M-515.771 906.526H1625V-239H-515.771V906.526Z" fill="white"/>
</mask>
<g mask="url(#mask0_104_3)">
<path fill-rule="evenodd" clip-rule="evenodd" d="M488.268 773.622H512.999V743.332H488.268V773.622Z" fill="#552C17"/>
<path fill-rule="evenodd" clip-rule="evenodd" d="M500.634 640.808L557.486 761.94H443.781L500.634 640.808Z" fill="#32706B"/>
</g>
<g clip-path="url(#clip0_104_3)">
<mask id="mask1_104_3" style="mask-type:luminance" maskUnits="userSpaceOnUse" x="445" y="640" width="115" height="122">
<path fill-rule="evenodd" clip-rule="evenodd" d="M502.258 640.418L559.11 761.55H445.405L502.258 640.418Z" fill="white"/>
</mask>
<g mask="url(#mask1_104_3)">
<path fill-rule="evenodd" clip-rule="evenodd" d="M559.11 706.021C558.252 705.355 502.054 710.64 502.054 710.64V761.55L565.528 763.521C565.528 763.521 559.968 706.684 559.11 706.021Z" fill="#26615D"/>
</g>
<path fill-rule="evenodd" clip-rule="evenodd" d="M501.522 601.379L550.244 710.226H452.799L501.522 601.379Z" fill="#539A73"/>
<mask id="mask2_104_3" style="mask-type:luminance" maskUnits="userSpaceOnUse" x="452" y="601" width="99" height="110">
<path fill-rule="evenodd" clip-rule="evenodd" d="M501.522 601.379L550.244 710.226H452.799L501.522 601.379Z" fill="white"/>
</mask>
<g mask="url(#mask2_104_3)">
<path fill-rule="evenodd" clip-rule="evenodd" d="M539.476 646.963L501.522 658.746V710.226L558.374 714.506L539.476 646.963Z" fill="#35746F"/>
</g>
<mask id="mask3_104_3" style="mask-type:luminance" maskUnits="userSpaceOnUse" x="-452" y="-260" width="2142" height="1146">
<path d="M-451.692 885.978H1689.08V-259.547H-451.692V885.978Z" fill="white"/>
</mask>
<g mask="url(#mask3_104_3)">
<path fill-rule="evenodd" clip-rule="evenodd" d="M503.098 584.9L541.052 659.527H465.144L503.098 584.9Z" fill="#3EBE80"/>
</g>
<mask id="mask4_104_3" style="mask-type:luminance" maskUnits="userSpaceOnUse" x="465" y="584" width="77" height="76">
<path fill-rule="evenodd" clip-rule="evenodd" d="M503.079 584.941L541.033 659.565H465.122L503.079 584.941Z" fill="white"/>
</mask>
<g mask="url(#mask4_104_3)">
<path fill-rule="evenodd" clip-rule="evenodd" d="M536.436 592.499L502.876 584.938V659.565L551.802 664.513L536.436 592.499Z" fill="#348E85"/>
</g>
</g>
<mask id="mask5_104_3" style="mask-type:luminance" maskUnits="userSpaceOnUse" x="-380" y="15" width="2131" height="866">
<path d="M-380 880.054H1751V15H-380V880.054Z" fill="white"/>
</mask>
<g mask="url(#mask5_104_3)">
<path fill-rule="evenodd" clip-rule="evenodd" d="M619.456 779.691H644.074V756.817H619.456V779.691Z" fill="#552C17"/>
<path fill-rule="evenodd" clip-rule="evenodd" d="M631.765 679.395L688.358 770.869H575.172L631.765 679.395Z" fill="#32706B"/>
</g>
<g clip-path="url(#clip1_104_3)">
<mask id="mask6_104_3" style="mask-type:luminance" maskUnits="userSpaceOnUse" x="575" y="678" width="114" height="93">
<path fill-rule="evenodd" clip-rule="evenodd" d="M631.859 678.648L688.452 770.122H575.267L631.859 678.648Z" fill="white"/>
</mask>
<g mask="url(#mask6_104_3)">
<path fill-rule="evenodd" clip-rule="evenodd" d="M688.452 728.189C687.598 727.686 631.657 731.677 631.657 731.677V770.122L694.841 771.61C694.841 771.61 689.306 728.69 688.452 728.189Z" fill="#2A605C"/>
</g>
<path fill-rule="evenodd" clip-rule="evenodd" d="M631.127 649.167L679.627 731.365H582.626L631.127 649.167Z" fill="#3B857E"/>
<mask id="mask7_104_3" style="mask-type:luminance" maskUnits="userSpaceOnUse" x="582" y="649" width="98" height="83">
<path fill-rule="evenodd" clip-rule="evenodd" d="M631.127 649.167L679.627 731.365H582.626L631.127 649.167Z" fill="white"/>
</mask>
<g mask="url(#mask7_104_3)">
<path fill-rule="evenodd" clip-rule="evenodd" d="M668.908 683.591L631.127 692.489V731.365L687.719 734.596L668.908 683.591Z" fill="#35746F"/>
</g>
<mask id="mask8_104_3" style="mask-type:luminance" maskUnits="userSpaceOnUse" x="-318" y="-1" width="2132" height="866">
<path d="M-317.737 864.085H1813.26V-0.968689H-317.737V864.085Z" fill="white"/>
</mask>
<g mask="url(#mask8_104_3)">
<path fill-rule="evenodd" clip-rule="evenodd" d="M632.696 636.723L670.477 693.079H594.915L632.696 636.723Z" fill="#42998D"/>
</g>
<mask id="mask9_104_3" style="mask-type:luminance" maskUnits="userSpaceOnUse" x="594" y="636" width="77" height="58">
<path fill-rule="evenodd" clip-rule="evenodd" d="M632.677 636.754L670.458 693.107H594.893L632.677 636.754Z" fill="white"/>
</mask>
<g mask="url(#mask9_104_3)">
<path fill-rule="evenodd" clip-rule="evenodd" d="M665.882 642.462L632.474 636.752V693.107L681.177 696.844L665.882 642.462Z" fill="#387F78"/>
</g>
</g>
<mask id="mask10_104_3" style="mask-type:luminance" maskUnits="userSpaceOnUse" x="-655" y="-56" width="1992" height="794">
<path d="M-655 737.039H1336.26V-55.0345H-655V737.039Z" fill="white"/>
</mask>
<g mask="url(#mask10_104_3)">
<path fill-rule="evenodd" clip-rule="evenodd" d="M278.918 645.143H301.922V624.199H278.918V645.143Z" fill="#552C17"/>
<path fill-rule="evenodd" clip-rule="evenodd" d="M290.42 553.308L343.302 637.065H237.538L290.42 553.308Z" fill="#32706B"/>
</g>
<g clip-path="url(#clip2_104_3)">
<mask id="mask11_104_3" style="mask-type:luminance" maskUnits="userSpaceOnUse" x="239" y="553" width="106" height="84">
<path fill-rule="evenodd" clip-rule="evenodd" d="M291.931 553.039L344.813 636.796H239.049L291.931 553.039Z" fill="white"/>
</mask>
<g mask="url(#mask11_104_3)">
<path fill-rule="evenodd" clip-rule="evenodd" d="M344.813 598.4C344.015 597.94 291.741 601.594 291.741 601.594V636.796L350.782 638.158C350.782 638.158 345.61 598.858 344.813 598.4Z" fill="#2A605C"/>
</g>
<path fill-rule="evenodd" clip-rule="evenodd" d="M291.246 526.045L336.566 601.308H245.926L291.246 526.045Z" fill="#3B857E"/>
<mask id="mask12_104_3" style="mask-type:luminance" maskUnits="userSpaceOnUse" x="245" y="526" width="92" height="76">
<path fill-rule="evenodd" clip-rule="evenodd" d="M291.246 526.045L336.566 601.308H245.926L291.246 526.045Z" fill="white"/>
</mask>
<g mask="url(#mask12_104_3)">
<path fill-rule="evenodd" clip-rule="evenodd" d="M326.549 557.564L291.246 565.712V601.308L344.128 604.267L326.549 557.564Z" fill="#35746F"/>
</g>
<mask id="mask13_104_3" style="mask-type:luminance" maskUnits="userSpaceOnUse" x="-596" y="-70" width="1992" height="793">
<path d="M-595.397 722.831H1395.87V-69.2421H-595.397V722.831Z" fill="white"/>
</mask>
<g mask="url(#mask13_104_3)">
<path fill-rule="evenodd" clip-rule="evenodd" d="M292.712 514.651L328.016 566.252H257.409L292.712 514.651Z" fill="#42998D"/>
</g>
<mask id="mask14_104_3" style="mask-type:luminance" maskUnits="userSpaceOnUse" x="257" y="514" width="71" height="53">
<path fill-rule="evenodd" clip-rule="evenodd" d="M292.695 514.679L327.998 566.278H257.388L292.695 514.679Z" fill="white"/>
</mask>
<g mask="url(#mask14_104_3)">
<path fill-rule="evenodd" clip-rule="evenodd" d="M323.722 519.905L292.505 514.677V566.278L338.015 569.699L323.722 519.905Z" fill="#387F78"/>
</g>
</g>
<defs>
<clipPath id="clip0_104_3">
<rect width="165.125" height="248.621" fill="white" transform="translate(433.083 543.846)"/>
</clipPath>
<clipPath id="clip1_104_3">
<rect width="164.371" height="187.748" fill="white" transform="translate(563 605.721)"/>
</clipPath>
<clipPath id="clip2_104_3">
<rect width="153.593" height="171.909" fill="white" transform="translate(227.587 486.264)"/>
</clipPath>
</defs>
</svg>
